<svg width="179" height="256" viewBox="0 0 179 256" fill="none" xmlns="http://www.w3.org/2000/svg">
<g filter="url(#filter0_d_436_552)">
<rect x="14" y="21" width="151" height="227.777" fill="#E8E8E8"/>
</g>
<path d="M50.8857 62L51.4254 60.3416H54.0497L54.5895 62H56.2372L53.7301 54.7273H51.7486L49.2379 62H50.8857ZM51.8161 59.1413L52.7109 56.3892H52.7678L53.6626 59.1413H51.8161ZM60.582 59.6776C60.5856 60.4091 60.0849 60.7926 59.5415 60.7926C58.9698 60.7926 58.6005 60.3913 58.5969 59.7486V56.5455H57.0842V60.0185C57.0877 61.2933 57.8335 62.071 58.9308 62.071C59.7511 62.071 60.3406 61.6484 60.5856 61.0092H60.6424V62H62.0948V56.5455H60.582V59.6776ZM66.2061 56.5455H65.1799V55.2386H63.6671V56.5455H62.9213V57.6818H63.6671V60.5227C63.66 61.5916 64.388 62.1207 65.4853 62.0746C65.8759 62.0604 66.1529 61.9822 66.3056 61.9325L66.0676 60.8068C65.9931 60.821 65.8333 60.8565 65.6912 60.8565C65.3894 60.8565 65.1799 60.7429 65.1799 60.3239V57.6818H66.2061V56.5455ZM69.5975 62.1065C71.2523 62.1065 72.2821 60.9737 72.2821 59.294C72.2821 57.6037 71.2523 56.4744 69.5975 56.4744C67.9426 56.4744 66.9128 57.6037 66.9128 59.294C66.9128 60.9737 67.9426 62.1065 69.5975 62.1065ZM69.6046 60.9347C68.8411 60.9347 68.4505 60.2351 68.4505 59.2834C68.4505 58.3317 68.8411 57.6286 69.6046 57.6286C70.3539 57.6286 70.7445 58.3317 70.7445 59.2834C70.7445 60.2351 70.3539 60.9347 69.6046 60.9347ZM73.2658 62H74.7786V58.7259C74.7786 58.1222 75.1621 57.7209 75.6664 57.7209C76.1635 57.7209 76.4973 58.0618 76.4973 58.598V62H77.964V58.669C77.964 58.1044 78.2871 57.7209 78.8375 57.7209C79.3205 57.7209 79.6827 58.0227 79.6827 58.63V62H81.1919V58.3317C81.1919 57.1491 80.4888 56.4744 79.4732 56.4744C78.6742 56.4744 78.0527 56.8828 77.829 57.5078H77.7722C77.5982 56.8757 77.0407 56.4744 76.2914 56.4744C75.5563 56.4744 74.9988 56.8651 74.7715 57.5078H74.7076V56.5455H73.2658V62ZM83.9423 62.103C84.7484 62.103 85.2704 61.7514 85.5368 61.2436H85.5794V62H87.014V58.321C87.014 57.0213 85.9132 56.4744 84.6987 56.4744C83.3919 56.4744 82.5325 57.0994 82.323 58.0938L83.7221 58.2074C83.8251 57.8452 84.1483 57.5788 84.6916 57.5788C85.2065 57.5788 85.5012 57.8381 85.5012 58.2855V58.3068C85.5012 58.6584 85.1284 58.7045 84.1802 58.7969C83.1007 58.8963 82.1312 59.2585 82.1312 60.4766C82.1312 61.5561 82.9018 62.103 83.9423 62.103ZM84.3755 61.0589C83.9103 61.0589 83.5765 60.8423 83.5765 60.4268C83.5765 60.0007 83.9281 59.7912 84.4608 59.7166C84.791 59.6705 85.3308 59.5923 85.5119 59.4716V60.0504C85.5119 60.6222 85.0396 61.0589 84.3755 61.0589ZM91.089 56.5455H90.0627V55.2386H88.5499V56.5455H87.8042V57.6818H88.5499V60.5227C88.5428 61.5916 89.2708 62.1207 90.3681 62.0746C90.7587 62.0604 91.0357 61.9822 91.1884 61.9325L90.9505 60.8068C90.8759 60.821 90.7161 60.8565 90.574 60.8565C90.2722 60.8565 90.0627 60.7429 90.0627 60.3239V57.6818H91.089V56.5455ZM94.5016 62.1065C95.851 62.1065 96.7601 61.4496 96.9732 60.4375L95.574 60.3452C95.4213 60.7607 95.0307 60.9773 94.5265 60.9773C93.7701 60.9773 93.2907 60.4766 93.2907 59.6634V59.6598H97.0051V59.2443C97.0051 57.3906 95.883 56.4744 94.4412 56.4744C92.8361 56.4744 91.7956 57.6143 91.7956 59.2976C91.7956 61.027 92.8219 62.1065 94.5016 62.1065ZM93.2907 58.7223C93.3226 58.1009 93.7949 57.6037 94.4661 57.6037C95.123 57.6037 95.5776 58.0724 95.5811 58.7223H93.2907ZM101.241 64.0455C102.366 64.0455 102.963 63.4702 103.272 62.5895L105.392 56.5526L103.79 56.5455L102.651 60.5511H102.594L101.464 56.5455H99.8736L101.83 62.1562L101.741 62.3871C101.543 62.8984 101.163 62.9233 100.63 62.7599L100.289 63.8892C100.506 63.9815 100.857 64.0455 101.241 64.0455ZM108.445 62.1065C110.1 62.1065 111.13 60.9737 111.13 59.294C111.13 57.6037 110.1 56.4744 108.445 56.4744C106.79 56.4744 105.76 57.6037 105.76 59.294C105.76 60.9737 106.79 62.1065 108.445 62.1065ZM108.452 60.9347C107.689 60.9347 107.298 60.2351 107.298 59.2834C107.298 58.3317 107.689 57.6286 108.452 57.6286C109.202 57.6286 109.592 58.3317 109.592 59.2834C109.592 60.2351 109.202 60.9347 108.452 60.9347ZM115.611 59.6776C115.615 60.4091 115.114 60.7926 114.571 60.7926C113.999 60.7926 113.63 60.3913 113.626 59.7486V56.5455H112.113V60.0185C112.117 61.2933 112.863 62.071 113.96 62.071C114.78 62.071 115.37 61.6484 115.615 61.0092H115.672V62H117.124V56.5455H115.611V59.6776ZM118.334 62H119.847V58.9141C119.847 58.2429 120.337 57.7812 121.005 57.7812C121.214 57.7812 121.502 57.8168 121.644 57.8629V56.5206C121.509 56.4886 121.321 56.4673 121.168 56.4673C120.557 56.4673 120.056 56.8224 119.858 57.4972H119.801V56.5455H118.334V62ZM49.6037 77H51.1165V73.9141C51.1165 73.2429 51.6065 72.7812 52.2741 72.7812C52.4837 72.7812 52.7713 72.8168 52.9134 72.8629V71.5206C52.7784 71.4886 52.5902 71.4673 52.4375 71.4673C51.8267 71.4673 51.326 71.8224 51.1271 72.4972H51.0703V71.5455H49.6037V77ZM55.9274 77.1065C57.2768 77.1065 58.1859 76.4496 58.399 75.4375L56.9998 75.3452C56.8471 75.7607 56.4565 75.9773 55.9522 75.9773C55.1958 75.9773 54.7164 75.4766 54.7164 74.6634V74.6598H58.4309V74.2443C58.4309 72.3906 57.3088 71.4744 55.867 71.4744C54.2619 71.4744 53.2214 72.6143 53.2214 74.2976C53.2214 76.027 54.2477 77.1065 55.9274 77.1065ZM54.7164 73.7223C54.7484 73.1009 55.2207 72.6037 55.8919 72.6037C56.5488 72.6037 57.0034 73.0724 57.0069 73.7223H54.7164ZM59.4181 79.0455H60.9309V76.1264H60.9771C61.1866 76.581 61.6447 77.0888 62.5254 77.0888C63.7683 77.0888 64.7377 76.1051 64.7377 74.2798C64.7377 72.4048 63.7257 71.4744 62.5289 71.4744C61.6163 71.4744 61.1795 72.0178 60.9771 72.4616H60.9096V71.5455H59.4181V79.0455ZM60.899 74.2727C60.899 73.2997 61.3109 72.6783 62.046 72.6783C62.7953 72.6783 63.193 73.3281 63.193 74.2727C63.193 75.2244 62.7882 75.8849 62.046 75.8849C61.318 75.8849 60.899 75.2457 60.899 74.2727ZM68.2321 77.1065C69.5815 77.1065 70.4906 76.4496 70.7037 75.4375L69.3045 75.3452C69.1518 75.7607 68.7612 75.9773 68.2569 75.9773C67.5005 75.9773 67.0211 75.4766 67.0211 74.6634V74.6598H70.7356V74.2443C70.7356 72.3906 69.6135 71.4744 68.1717 71.4744C66.5666 71.4744 65.5261 72.6143 65.5261 74.2976C65.5261 76.027 66.5524 77.1065 68.2321 77.1065ZM67.0211 73.7223C67.0531 73.1009 67.5254 72.6037 68.1966 72.6037C68.8535 72.6037 69.3081 73.0724 69.3116 73.7223H67.0211ZM74.6241 71.5455H73.5978V70.2386H72.085V71.5455H71.3393V72.6818H72.085V75.5227C72.0779 76.5916 72.8059 77.1207 73.9032 77.0746C74.2939 77.0604 74.5708 76.9822 74.7235 76.9325L74.4856 75.8068C74.411 75.821 74.2512 75.8565 74.1092 75.8565C73.8074 75.8565 73.5978 75.7429 73.5978 75.3239V72.6818H74.6241V71.5455ZM77.165 77.103C77.9711 77.103 78.4931 76.7514 78.7594 76.2436H78.802V77H80.2367V73.321C80.2367 72.0213 79.1358 71.4744 77.9213 71.4744C76.6145 71.4744 75.7551 72.0994 75.5456 73.0938L76.9448 73.2074C77.0478 72.8452 77.3709 72.5788 77.9142 72.5788C78.4292 72.5788 78.7239 72.8381 78.7239 73.2855V73.3068C78.7239 73.6584 78.351 73.7045 77.4029 73.7969C76.3233 73.8963 75.3539 74.2585 75.3539 75.4766C75.3539 76.5561 76.1245 77.103 77.165 77.103ZM77.5982 76.0589C77.133 76.0589 76.7992 75.8423 76.7992 75.4268C76.7992 75.0007 77.1507 74.7912 77.6834 74.7166C78.0137 74.6705 78.5534 74.5923 78.7346 74.4716V75.0504C78.7346 75.6222 78.2623 76.0589 77.5982 76.0589ZM84.3116 71.5455H83.2853V70.2386H81.7725V71.5455H81.0268V72.6818H81.7725V75.5227C81.7654 76.5916 82.4934 77.1207 83.5907 77.0746C83.9814 77.0604 84.2583 76.9822 84.411 76.9325L84.1731 75.8068C84.0985 75.821 83.9387 75.8565 83.7967 75.8565C83.4949 75.8565 83.2853 75.7429 83.2853 75.3239V72.6818H84.3116V71.5455ZM85.2971 77H86.8098V71.5455H85.2971V77ZM86.057 70.8423C86.508 70.8423 86.8773 70.4979 86.8773 70.0753C86.8773 69.6562 86.508 69.3118 86.057 69.3118C85.6096 69.3118 85.2402 69.6562 85.2402 70.0753C85.2402 70.4979 85.6096 70.8423 86.057 70.8423ZM93.1069 71.5455H91.5053L90.3761 75.4482H90.3192L89.1864 71.5455H87.5884L89.4954 77H91.1999L93.1069 71.5455ZM96.1813 77.1065C97.5307 77.1065 98.4398 76.4496 98.6529 75.4375L97.2537 75.3452C97.101 75.7607 96.7104 75.9773 96.2061 75.9773C95.4498 75.9773 94.9703 75.4766 94.9703 74.6634V74.6598H98.6848V74.2443C98.6848 72.3906 97.5627 71.4744 96.1209 71.4744C94.5158 71.4744 93.4753 72.6143 93.4753 74.2976C93.4753 76.027 94.5016 77.1065 96.1813 77.1065ZM94.9703 73.7223C95.0023 73.1009 95.4746 72.6037 96.1458 72.6037C96.8027 72.6037 97.2573 73.0724 97.2608 73.7223H94.9703ZM104.888 71.5455H103.862V70.2386H102.349V71.5455H101.603V72.6818H102.349V75.5227C102.342 76.5916 103.07 77.1207 104.167 77.0746C104.558 77.0604 104.835 76.9822 104.987 76.9325L104.749 75.8068C104.675 75.821 104.515 75.8565 104.373 75.8565C104.071 75.8565 103.862 75.7429 103.862 75.3239V72.6818H104.888V71.5455ZM107.429 77.103C108.235 77.103 108.757 76.7514 109.023 76.2436H109.066V77H110.5V73.321C110.5 72.0213 109.4 71.4744 108.185 71.4744C106.878 71.4744 106.019 72.0994 105.809 73.0938L107.208 73.2074C107.311 72.8452 107.635 72.5788 108.178 72.5788C108.693 72.5788 108.988 72.8381 108.988 73.2855V73.3068C108.988 73.6584 108.615 73.7045 107.667 73.7969C106.587 73.8963 105.618 74.2585 105.618 75.4766C105.618 76.5561 106.388 77.103 107.429 77.103ZM107.862 76.0589C107.397 76.0589 107.063 75.8423 107.063 75.4268C107.063 75.0007 107.414 74.7912 107.947 74.7166C108.277 74.6705 108.817 74.5923 108.998 74.4716V75.0504C108.998 75.6222 108.526 76.0589 107.862 76.0589ZM116.212 73.1009C116.077 72.0959 115.268 71.4744 113.89 71.4744C112.494 71.4744 111.575 72.1207 111.578 73.1719C111.575 73.9886 112.089 74.5178 113.155 74.7308L114.099 74.919C114.575 75.0149 114.792 75.1889 114.799 75.4624C114.792 75.7855 114.44 76.0163 113.911 76.0163C113.371 76.0163 113.013 75.7855 112.92 75.3416L111.433 75.4197C111.575 76.4638 112.462 77.1065 113.908 77.1065C115.321 77.1065 116.333 76.3857 116.337 75.3097C116.333 74.5213 115.818 74.049 114.76 73.8324L113.773 73.6335C113.265 73.5234 113.077 73.3494 113.08 73.0866C113.077 72.7599 113.446 72.5469 113.915 72.5469C114.44 72.5469 114.753 72.8345 114.827 73.1861L116.212 73.1009ZM117.289 77H118.802V75.267L119.21 74.8018L120.698 77H122.47L120.343 73.907L122.367 71.5455H120.631L118.884 73.6158H118.802V69.7273H117.289V77ZM127.648 73.1009C127.513 72.0959 126.703 71.4744 125.325 71.4744C123.93 71.4744 123.01 72.1207 123.014 73.1719C123.01 73.9886 123.525 74.5178 124.59 74.7308L125.535 74.919C126.011 75.0149 126.227 75.1889 126.235 75.4624C126.227 75.7855 125.876 76.0163 125.347 76.0163C124.807 76.0163 124.448 75.7855 124.356 75.3416L122.868 75.4197C123.01 76.4638 123.898 77.1065 125.343 77.1065C126.757 77.1065 127.769 76.3857 127.772 75.3097C127.769 74.5213 127.254 74.049 126.195 73.8324L125.208 73.6335C124.7 73.5234 124.512 73.3494 124.516 73.0866C124.512 72.7599 124.882 72.5469 125.35 72.5469C125.876 72.5469 126.188 72.8345 126.263 73.1861L127.648 73.1009ZM129.609 77.0923C130.064 77.0923 130.458 76.7124 130.461 76.2401C130.458 75.7749 130.064 75.3949 129.609 75.3949C129.14 75.3949 128.753 75.7749 128.757 76.2401C128.753 76.7124 129.14 77.0923 129.609 77.0923Z" fill="#0D0D0D"/>
<g clip-path="url(#clip0_436_552)">
<path d="M108.764 103.677H45.2322C44.6404 103.678 44.073 103.913 43.6545 104.332C43.236 104.75 43.0007 105.318 43 105.909V191.764C43.0007 192.355 43.2361 192.923 43.6545 193.341C44.073 193.76 44.6404 193.995 45.2322 193.996H108.764C109.356 193.995 109.923 193.76 110.342 193.341C110.76 192.923 110.996 192.355 110.996 191.764V105.909C110.996 105.318 110.76 104.75 110.342 104.332C109.923 103.913 109.356 103.678 108.764 103.677Z" fill="#F2F2F2"/>
<path d="M47.1948 106.425C46.7819 106.432 46.3886 106.602 46.1012 106.899C45.8138 107.195 45.6557 107.593 45.6615 108.006V189.667C45.6557 190.08 45.8138 190.478 46.1012 190.774C46.3886 191.071 46.7819 191.241 47.1948 191.248H106.802C107.215 191.241 107.608 191.071 107.895 190.774C108.183 190.478 108.341 190.08 108.335 189.667V108.006C108.341 107.593 108.183 107.195 107.895 106.899C107.608 106.602 107.215 106.432 106.802 106.425H47.1948Z" fill="white"/>
<path d="M50.2976 110.202C49.7295 110.202 49.2673 110.724 49.2673 111.365V122.604C49.2673 123.246 49.7295 123.767 50.2976 123.767H103.699C104.267 123.767 104.729 123.246 104.729 122.604V111.365C104.729 110.724 104.267 110.202 103.699 110.202H50.2976Z" fill="#E6E6E6"/>
<path d="M50.2977 129.219C50.0206 129.223 49.7566 129.337 49.5634 129.536C49.3703 129.734 49.2639 130.002 49.2674 130.279V154.302C49.2639 154.579 49.3703 154.846 49.5634 155.044C49.7566 155.243 50.0206 155.357 50.2977 155.361H103.699C103.976 155.357 104.24 155.243 104.433 155.044C104.626 154.846 104.733 154.579 104.729 154.302V130.279C104.733 130.002 104.626 129.734 104.433 129.536C104.24 129.337 103.976 129.223 103.699 129.219H50.2977Z" fill="#E6E6E6"/>
<path d="M98.1184 111.79H55.8782V114.194H98.1184V111.79Z" fill="white"/>
<path d="M98.2042 116.856H55.964V117.972H98.2042V116.856Z" fill="white"/>
<path d="M98.2042 118.83H55.964V119.947H98.2042V118.83Z" fill="white"/>
<path d="M98.2042 120.805H55.964V121.921H98.2042V120.805Z" fill="white"/>
<path d="M80.9754 155.404H100.415C100.538 155.404 100.659 155.368 100.762 155.299C100.865 155.23 100.945 155.132 100.993 155.018C101.04 154.904 101.052 154.778 101.028 154.657C101.004 154.535 100.945 154.424 100.857 154.336L88.4157 141.895C88.2983 141.778 88.1392 141.712 87.9733 141.712C87.8074 141.712 87.6482 141.778 87.5308 141.895L84.4369 144.989C84.3151 145.11 84.1704 145.207 84.0112 145.273C83.8519 145.339 83.6812 145.373 83.5089 145.373C83.3365 145.373 83.1658 145.339 83.0066 145.273C82.8473 145.207 82.7026 145.11 82.5808 144.989L72.8904 135.298C72.773 135.181 72.6138 135.115 72.4479 135.115C72.282 135.115 72.1228 135.181 72.0054 135.298L53.0533 154.25C52.9658 154.338 52.9063 154.449 52.8821 154.571C52.858 154.692 52.8704 154.818 52.9178 154.932C52.9651 155.047 53.0453 155.144 53.1482 155.213C53.2511 155.282 53.3721 155.318 53.4959 155.318H81.0003L80.9754 155.404Z" fill="white"/>
<path d="M57.8528 137.289C59.1804 137.289 60.2567 136.213 60.2567 134.885C60.2567 133.557 59.1804 132.481 57.8528 132.481C56.5251 132.481 55.4489 133.557 55.4489 134.885C55.4489 136.213 56.5251 137.289 57.8528 137.289Z" fill="white"/>
<path d="M50.2977 160.985C50.0206 160.989 49.7566 161.103 49.5634 161.302C49.3703 161.5 49.2639 161.768 49.2674 162.045V186.067C49.2639 186.345 49.3703 186.612 49.5634 186.81C49.7566 187.009 50.0206 187.123 50.2977 187.127H103.699C103.976 187.123 104.24 187.009 104.433 186.81C104.626 186.612 104.733 186.345 104.729 186.067V162.045C104.733 161.768 104.626 161.5 104.433 161.302C104.24 161.103 103.976 160.989 103.699 160.985H50.2977Z" fill="#E6E6E6"/>
<path d="M80.9754 187.17H100.415C100.538 187.17 100.659 187.134 100.762 187.065C100.865 186.996 100.945 186.898 100.993 186.784C101.04 186.67 101.052 186.544 101.028 186.422C101.004 186.301 100.945 186.19 100.857 186.102L88.4157 173.661C88.2983 173.544 88.1391 173.478 87.9733 173.478C87.8074 173.478 87.6483 173.544 87.5308 173.661L84.4369 176.754C84.3151 176.876 84.1704 176.973 84.0112 177.039C83.8519 177.105 83.6812 177.139 83.5088 177.139C83.3364 177.139 83.1657 177.105 83.0065 177.039C82.8472 176.973 82.7025 176.876 82.5807 176.754L72.8904 167.064C72.7729 166.947 72.6138 166.881 72.4479 166.881C72.282 166.881 72.1229 166.947 72.0054 167.064L53.0533 186.016C52.9658 186.104 52.9063 186.215 52.8821 186.337C52.858 186.458 52.8704 186.584 52.9178 186.698C52.9651 186.812 53.0453 186.91 53.1482 186.979C53.2511 187.048 53.3721 187.084 53.4959 187.084H81.0003L80.9754 187.17Z" fill="white"/>
<path d="M57.8528 169.055C59.1804 169.055 60.2567 167.979 60.2567 166.651C60.2567 165.324 59.1804 164.247 57.8528 164.247C56.5251 164.247 55.4489 165.324 55.4489 166.651C55.4489 167.979 56.5251 169.055 57.8528 169.055Z" fill="white"/>
<path d="M67.5542 123.424C67.1445 123.424 66.7517 123.587 66.4619 123.877C66.1722 124.167 66.0093 124.559 66.0088 124.969V210.823C66.0093 211.233 66.1722 211.626 66.4619 211.915C66.7516 212.205 67.1444 212.368 67.5542 212.369H131.086C131.496 212.368 131.889 212.205 132.178 211.915C132.468 211.626 132.631 211.233 132.632 210.823V124.969C132.631 124.559 132.468 124.167 132.178 123.877C131.889 123.587 131.496 123.424 131.086 123.424H67.5542Z" fill="#E6E6E6"/>
<path d="M69.431 125.828C69.0181 125.835 68.6249 126.005 68.3374 126.301C68.05 126.598 67.8919 126.996 67.8977 127.409V209.07C67.8919 209.482 68.05 209.881 68.3374 210.177C68.6249 210.474 69.0181 210.644 69.431 210.651H129.038C129.451 210.644 129.844 210.474 130.132 210.177C130.419 209.881 130.577 209.482 130.571 209.07V127.409C130.577 126.996 130.419 126.598 130.132 126.301C129.844 126.005 129.451 125.835 129.038 125.828H69.431Z" fill="white"/>
<path d="M78.7582 137.707C78.5761 137.707 78.4016 137.779 78.2728 137.908C78.144 138.037 78.0716 138.212 78.0714 138.394V141.546C78.0716 141.728 78.144 141.903 78.2728 142.031C78.4016 142.16 78.5761 142.233 78.7582 142.233H119.281C119.463 142.233 119.638 142.16 119.767 142.031C119.896 141.903 119.968 141.728 119.968 141.546V138.394C119.968 138.212 119.896 138.037 119.767 137.908C119.638 137.779 119.463 137.707 119.281 137.707H78.7582Z" fill="black"/>
<path d="M78.5007 148.139C78.4552 148.139 78.4115 148.157 78.3793 148.19C78.3471 148.222 78.329 148.265 78.329 148.311V149.542C78.329 149.587 78.3471 149.631 78.3793 149.663C78.4115 149.695 78.4552 149.713 78.5007 149.713H119.711C119.756 149.713 119.8 149.695 119.832 149.663C119.864 149.631 119.882 149.587 119.882 149.542V148.311C119.882 148.265 119.864 148.222 119.832 148.19C119.8 148.157 119.756 148.139 119.711 148.139H78.5007Z" fill="#CCCCCC"/>
<path d="M78.5007 152.139C78.4552 152.139 78.4115 152.157 78.3793 152.19C78.3471 152.222 78.329 152.265 78.329 152.311V153.542C78.329 153.587 78.3471 153.631 78.3793 153.663C78.4115 153.695 78.4552 153.713 78.5007 153.713H119.711C119.756 153.713 119.8 153.695 119.832 153.663C119.864 153.631 119.882 153.587 119.882 153.542V152.311C119.882 152.265 119.864 152.222 119.832 152.19C119.8 152.157 119.756 152.139 119.711 152.139H78.5007Z" fill="#CCCCCC"/>
<path d="M78.5007 156.139C78.4552 156.139 78.4115 156.157 78.3793 156.189C78.3471 156.222 78.329 156.265 78.329 156.311V157.541C78.329 157.587 78.3471 157.63 78.3793 157.663C78.4115 157.695 78.4552 157.713 78.5007 157.713H119.711C119.756 157.713 119.8 157.695 119.832 157.663C119.864 157.63 119.882 157.587 119.882 157.541V156.311C119.882 156.265 119.864 156.222 119.832 156.189C119.8 156.157 119.756 156.139 119.711 156.139H78.5007Z" fill="#CCCCCC"/>
<path d="M78.4149 164.129C78.3694 164.129 78.3257 164.147 78.2935 164.179C78.2613 164.212 78.2432 164.255 78.2432 164.301V165.531C78.2432 165.577 78.2613 165.62 78.2935 165.653C78.3257 165.685 78.3694 165.703 78.4149 165.703H119.625C119.67 165.703 119.714 165.685 119.746 165.653C119.778 165.62 119.797 165.577 119.797 165.531V164.301C119.797 164.255 119.778 164.212 119.746 164.179C119.714 164.147 119.67 164.129 119.625 164.129H78.4149Z" fill="#CCCCCC"/>
<path d="M78.4149 168.129C78.3694 168.129 78.3257 168.147 78.2935 168.179C78.2613 168.211 78.2432 168.255 78.2432 168.301V169.531C78.2432 169.577 78.2613 169.62 78.2935 169.653C78.3257 169.685 78.3694 169.703 78.4149 169.703H119.625C119.67 169.703 119.714 169.685 119.746 169.653C119.778 169.62 119.797 169.577 119.797 169.531V168.301C119.797 168.255 119.778 168.211 119.746 168.179C119.714 168.147 119.67 168.129 119.625 168.129H78.4149Z" fill="#CCCCCC"/>
<path d="M78.4149 172.129C78.3693 172.129 78.3257 172.147 78.2935 172.179C78.2613 172.211 78.2432 172.255 78.2432 172.3V173.531C78.2432 173.577 78.2613 173.62 78.2935 173.652C78.3257 173.685 78.3693 173.703 78.4149 173.703H119.625C119.67 173.703 119.714 173.685 119.746 173.652C119.778 173.62 119.797 173.577 119.797 173.531V172.3C119.797 172.255 119.778 172.211 119.746 172.179C119.714 172.147 119.67 172.129 119.625 172.129H78.4149Z" fill="#CCCCCC"/>
<path d="M78.4149 176.149C78.3693 176.149 78.3257 176.167 78.2935 176.199C78.2613 176.231 78.2432 176.275 78.2432 176.32V177.551C78.2432 177.596 78.2613 177.64 78.2935 177.672C78.3257 177.704 78.3693 177.723 78.4149 177.723H119.625C119.67 177.723 119.714 177.704 119.746 177.672C119.778 177.64 119.797 177.596 119.797 177.551V176.32C119.797 176.275 119.778 176.231 119.746 176.199C119.714 176.167 119.67 176.149 119.625 176.149H78.4149Z" fill="#CCCCCC"/>
<path d="M78.4149 180.148C78.3693 180.148 78.3257 180.167 78.2935 180.199C78.2613 180.231 78.2432 180.275 78.2432 180.32V181.551C78.2432 181.596 78.2613 181.64 78.2935 181.672C78.3257 181.704 78.3693 181.722 78.4149 181.722H119.625C119.67 181.722 119.714 181.704 119.746 181.672C119.778 181.64 119.797 181.596 119.797 181.551V180.32C119.797 180.275 119.778 180.231 119.746 180.199C119.714 180.167 119.67 180.148 119.625 180.148H78.4149Z" fill="#CCCCCC"/>
<path d="M78.4149 184.148C78.3693 184.148 78.3257 184.166 78.2935 184.199C78.2613 184.231 78.2432 184.274 78.2432 184.32V185.551C78.2432 185.596 78.2613 185.64 78.2935 185.672C78.3257 185.704 78.3693 185.722 78.4149 185.722H119.625C119.67 185.722 119.714 185.704 119.746 185.672C119.778 185.64 119.797 185.596 119.797 185.551V184.32C119.797 184.274 119.778 184.231 119.746 184.199C119.714 184.166 119.67 184.148 119.625 184.148H78.4149Z" fill="#CCCCCC"/>
<path d="M78.4149 188.168C78.3693 188.168 78.3257 188.186 78.2935 188.218C78.2613 188.251 78.2432 188.294 78.2432 188.34V189.57C78.2432 189.616 78.2613 189.659 78.2935 189.692C78.3257 189.724 78.3693 189.742 78.4149 189.742H119.625C119.67 189.742 119.714 189.724 119.746 189.692C119.778 189.66 119.797 189.616 119.797 189.57V188.34C119.797 188.294 119.778 188.25 119.746 188.218C119.714 188.186 119.67 188.168 119.625 188.168H78.4149Z" fill="#CCCCCC"/>
<path d="M78.4149 192.168C78.3693 192.168 78.3257 192.186 78.2935 192.218C78.2613 192.251 78.2432 192.294 78.2432 192.34V193.57C78.2432 193.616 78.2613 193.659 78.2935 193.692C78.3257 193.724 78.3693 193.742 78.4149 193.742H119.625C119.67 193.742 119.714 193.724 119.746 193.692C119.778 193.659 119.797 193.616 119.797 193.57V192.34C119.797 192.294 119.778 192.25 119.746 192.218C119.714 192.186 119.67 192.168 119.625 192.168H78.4149Z" fill="#CCCCCC"/>
<path d="M78.4149 196.168C78.3693 196.168 78.3257 196.186 78.2935 196.218C78.2613 196.25 78.2432 196.294 78.2432 196.34V197.57C78.2432 197.616 78.2613 197.659 78.2935 197.692C78.3257 197.724 78.3693 197.742 78.4149 197.742H119.625C119.67 197.742 119.714 197.724 119.746 197.692C119.778 197.659 119.797 197.616 119.797 197.57V196.34C119.797 196.294 119.778 196.25 119.746 196.218C119.714 196.186 119.67 196.168 119.625 196.168H78.4149Z" fill="#CCCCCC"/>
<path d="M129.713 219.58C136.635 219.58 142.247 213.968 142.247 207.045C142.247 200.123 136.635 194.511 129.713 194.511C122.79 194.511 117.178 200.123 117.178 207.045C117.178 213.968 122.79 219.58 129.713 219.58Z" fill="black"/>
<path d="M128.518 212.337L124.766 207.513L126.948 205.816L128.725 208.1L134.726 201.765L136.732 203.666L128.518 212.337Z" fill="white"/>
</g>
<defs>
<filter id="filter0_d_436_552" x="0" y="0" width="179" height="255.777" filterUnits="userSpaceOnUse" color-interpolation-filters="sRGB">
<feFlood flood-opacity="0" result="BackgroundImageFix"/>
<feColorMatrix in="SourceAlpha" type="matrix" values="0 0 0 0 0 0 0 0 0 0 0 0 0 0 0 0 0 0 127 0" result="hardAlpha"/>
<feOffset dy="-7"/>
<feGaussianBlur stdDeviation="7"/>
<feColorMatrix type="matrix" values="0 0 0 0 0 0 0 0 0 0 0 0 0 0 0 0 0 0 0.25 0"/>
<feBlend mode="normal" in2="BackgroundImageFix" result="effect1_dropShadow_436_552"/>
<feBlend mode="normal" in="SourceGraphic" in2="effect1_dropShadow_436_552" result="shape"/>
</filter>
<clipPath id="clip0_436_552">
<rect width="99.2473" height="115.903" fill="white" transform="translate(43 103.677)"/>
</clipPath>
</defs>
</svg>
