<svg width="18" height="18" viewBox="0 0 18 18" fill="none" xmlns="http://www.w3.org/2000/svg">
<path d="M15.9425 5.06762C16.5868 6.24604 16.9236 7.56785 16.9218 8.91089C16.9221 10.3128 16.5544 11.6902 15.8554 12.9054C15.1564 14.1206 14.1506 15.131 12.9386 15.8355L15.3855 8.76119C15.8427 7.61881 15.9951 6.70366 15.9951 5.89277C15.9954 5.61688 15.9778 5.34125 15.9425 5.06762ZM10.0158 5.14515C10.3214 5.13012 10.6264 5.10396 10.9301 5.06673C11.3623 5.01059 11.3115 4.37614 10.8802 4.39931C10.8802 4.39931 9.57654 4.49911 8.74158 4.49911C7.95119 4.49911 6.62525 4.38772 6.62525 4.38772C6.19129 4.36634 6.13515 5.02307 6.57089 5.04535C6.57089 5.04535 6.97099 5.09168 7.40673 5.11218L8.65337 8.53218L6.89347 13.7887L3.97604 5.12376C4.45812 5.10059 4.89208 5.0498 4.89208 5.0498C5.32604 4.99366 5.27525 4.35921 4.84307 4.38416C4.84307 4.38416 3.54653 4.48663 2.70891 4.48663C2.5601 4.48663 2.38366 4.4804 2.19653 4.47505C3.64723 2.33911 6.11465 0.901782 8.91089 0.901782C10.9969 0.901782 12.8949 1.69842 14.3207 3.00475C14.2868 3.00297 14.253 2.99762 14.2164 2.99762C13.4296 2.99762 12.8709 3.68376 12.8709 4.4198C12.8709 5.0801 13.2514 5.6397 13.6577 6.29822C13.9634 6.83376 14.3189 7.51901 14.3189 8.50901C14.3189 9.18891 14.056 9.99 13.7085 11.0923L12.9101 13.754L10.0141 5.13267L10.0158 5.14515ZM8.91089 16.9182C8.1448 16.919 7.38257 16.8097 6.64752 16.5939L9.05079 9.60951L11.5129 16.3568C11.5316 16.396 11.5503 16.4326 11.5708 16.4673C10.716 16.7671 9.8167 16.9201 8.91089 16.92V16.9182ZM0.9 8.91089C0.898701 7.78763 1.13496 6.6768 1.59327 5.65129L5.41337 16.1207C4.06021 15.4637 2.9193 14.4391 2.12114 13.164C1.32298 11.889 0.899799 10.4151 0.9 8.91089ZM8.91089 0C3.99832 0 0 3.99832 0 8.91089C0 13.8235 3.99832 17.8218 8.91089 17.8218C13.8235 17.8218 17.8218 13.8235 17.8218 8.91089C17.8218 3.99832 13.8235 0 8.91089 0Z" fill="black"/>
</svg>
