<svg width="31" height="30" viewBox="0 0 31 30" fill="none" xmlns="http://www.w3.org/2000/svg">
<path d="M15.125 0C6.84152 0 0.125 6.71652 0.125 15C0.125 23.2835 6.84152 30 15.125 30C23.4085 30 30.125 23.2835 30.125 15C30.125 6.71652 23.4085 0 15.125 0ZM22.3337 11.3069C22.3437 11.4643 22.3437 11.6283 22.3437 11.7891C22.3437 16.7042 18.6004 22.3661 11.76 22.3661C9.65067 22.3661 7.69531 21.7533 6.04799 20.6987C6.34933 20.7321 6.63728 20.7455 6.94531 20.7455C8.68638 20.7455 10.2868 20.1562 11.5625 19.1585C9.92857 19.125 8.5558 18.0536 8.08705 16.5804C8.6596 16.6641 9.17522 16.6641 9.76451 16.5134C8.92319 16.3425 8.16699 15.8855 7.62438 15.2203C7.08178 14.555 6.78623 13.7223 6.78795 12.8638V12.817C7.28013 13.0949 7.85938 13.2656 8.4654 13.2891C7.95595 12.9495 7.53814 12.4895 7.24903 11.9499C6.95993 11.4102 6.80845 10.8075 6.80804 10.1953C6.80804 9.50223 6.98884 8.86942 7.31362 8.32031C8.24744 9.46988 9.41271 10.4101 10.7337 11.0798C12.0547 11.7495 13.5018 12.1338 14.981 12.2076C14.4554 9.67969 16.3438 7.63393 18.6138 7.63393C19.6853 7.63393 20.6496 8.08259 21.3292 8.8058C22.1696 8.64844 22.9732 8.3337 23.6897 7.91183C23.4118 8.77232 22.8292 9.49888 22.0558 9.95759C22.8058 9.87723 23.529 9.66964 24.1987 9.37835C23.6931 10.1217 23.0603 10.7812 22.3337 11.3069Z" fill="#0D0D0D"/>
</svg>
