<svg width="167" height="230" viewBox="0 0 167 230" fill="none" xmlns="http://www.w3.org/2000/svg">
<g filter="url(#filter0_d_436_207)">
<rect x="2" y="9" width="151" height="214" fill="#E8E8E8"/>
<path d="M23.6321 51.7273V59H25.1236V54.2486H25.1839L27.0661 58.9645H28.0817L29.9638 54.2663H30.0241V59H31.5156V51.7273H29.6193L27.6165 56.6136H27.5312L25.5284 51.7273H23.6321ZM34.3095 59.103C35.1156 59.103 35.6376 58.7514 35.9039 58.2436H35.9466V59H37.3812V55.321C37.3812 54.0213 36.2804 53.4744 35.0659 53.4744C33.7591 53.4744 32.8997 54.0994 32.6902 55.0938L34.0893 55.2074C34.1923 54.8452 34.5154 54.5788 35.0588 54.5788C35.5737 54.5788 35.8684 54.8381 35.8684 55.2855V55.3068C35.8684 55.6584 35.4956 55.7045 34.5474 55.7969C33.4679 55.8963 32.4984 56.2585 32.4984 57.4766C32.4984 58.5561 33.269 59.103 34.3095 59.103ZM34.7427 58.0589C34.2775 58.0589 33.9437 57.8423 33.9437 57.4268C33.9437 57.0007 34.2953 56.7912 34.8279 56.7166C35.1582 56.6705 35.698 56.5923 35.8791 56.4716V57.0504C35.8791 57.6222 35.4068 58.0589 34.7427 58.0589ZM38.5549 59H40.0676V57.267L40.476 56.8018L41.964 59H43.736L41.6088 55.907L43.633 53.5455H41.8965L40.1493 55.6158H40.0676V51.7273H38.5549V59ZM46.6364 59.1065C47.9858 59.1065 48.8949 58.4496 49.108 57.4375L47.7088 57.3452C47.5561 57.7607 47.1655 57.9773 46.6612 57.9773C45.9048 57.9773 45.4254 57.4766 45.4254 56.6634V56.6598H49.1399V56.2443C49.1399 54.3906 48.0178 53.4744 46.576 53.4744C44.9709 53.4744 43.9304 54.6143 43.9304 56.2976C43.9304 58.027 44.9567 59.1065 46.6364 59.1065ZM45.4254 55.7223C45.4574 55.1009 45.9297 54.6037 46.6009 54.6037C47.2578 54.6037 47.7124 55.0724 47.7159 55.7223H45.4254ZM54.4515 59.0888C55.3322 59.0888 55.7903 58.581 55.9998 58.1264H56.0637V59H57.5552V51.7273H56.046V54.4616H55.9998C55.7974 54.0178 55.3606 53.4744 54.448 53.4744C53.2512 53.4744 52.2392 54.4048 52.2392 56.2798C52.2392 58.1051 53.2086 59.0888 54.4515 59.0888ZM54.9309 57.8849C54.1887 57.8849 53.7839 57.2244 53.7839 56.2727C53.7839 55.3281 54.1816 54.6783 54.9309 54.6783C55.666 54.6783 56.0779 55.2997 56.0779 56.2727C56.0779 57.2457 55.6589 57.8849 54.9309 57.8849ZM60.3544 59.103C61.1605 59.103 61.6825 58.7514 61.9489 58.2436H61.9915V59H63.4261V55.321C63.4261 54.0213 62.3253 53.4744 61.1108 53.4744C59.804 53.4744 58.9446 54.0994 58.7351 55.0938L60.1342 55.2074C60.2372 54.8452 60.5604 54.5788 61.1037 54.5788C61.6186 54.5788 61.9134 54.8381 61.9134 55.2855V55.3068C61.9134 55.6584 61.5405 55.7045 60.5923 55.7969C59.5128 55.8963 58.5433 56.2585 58.5433 57.4766C58.5433 58.5561 59.3139 59.103 60.3544 59.103ZM60.7876 58.0589C60.3224 58.0589 59.9886 57.8423 59.9886 57.4268C59.9886 57.0007 60.3402 56.7912 60.8729 56.7166C61.2031 56.6705 61.7429 56.5923 61.924 56.4716V57.0504C61.924 57.6222 61.4517 58.0589 60.7876 58.0589ZM67.5011 53.5455H66.4748V52.2386H64.962V53.5455H64.2163V54.6818H64.962V57.5227C64.9549 58.5916 65.6829 59.1207 66.7802 59.0746C67.1708 59.0604 67.4478 58.9822 67.6005 58.9325L67.3626 57.8068C67.288 57.821 67.1282 57.8565 66.9862 57.8565C66.6843 57.8565 66.4748 57.7429 66.4748 57.3239V54.6818H67.5011V53.5455ZM70.0419 59.103C70.848 59.103 71.37 58.7514 71.6364 58.2436H71.679V59H73.1136V55.321C73.1136 54.0213 72.0128 53.4744 70.7983 53.4744C69.4915 53.4744 68.6321 54.0994 68.4226 55.0938L69.8217 55.2074C69.9247 54.8452 70.2479 54.5788 70.7912 54.5788C71.3061 54.5788 71.6009 54.8381 71.6009 55.2855V55.3068C71.6009 55.6584 71.228 55.7045 70.2798 55.7969C69.2003 55.8963 68.2308 56.2585 68.2308 57.4766C68.2308 58.5561 69.0014 59.103 70.0419 59.103ZM70.4751 58.0589C70.0099 58.0589 69.6761 57.8423 69.6761 57.4268C69.6761 57.0007 70.0277 56.7912 70.5604 56.7166C70.8906 56.6705 71.4304 56.5923 71.6115 56.4716V57.0504C71.6115 57.6222 71.1392 58.0589 70.4751 58.0589ZM76.6301 59H78.1216V58.1264H78.1891C78.3986 58.581 78.8567 59.0888 79.7374 59.0888C80.9803 59.0888 81.9498 58.1051 81.9498 56.2798C81.9498 54.4048 80.9377 53.4744 79.7409 53.4744C78.8283 53.4744 78.3915 54.0178 78.1891 54.4616H78.1429V51.7273H76.6301V59ZM78.111 56.2727C78.111 55.2997 78.5229 54.6783 79.258 54.6783C80.0073 54.6783 80.405 55.3281 80.405 56.2727C80.405 57.2244 80.0002 57.8849 79.258 57.8849C78.53 57.8849 78.111 57.2457 78.111 56.2727ZM84.5146 59.103C85.3207 59.103 85.8427 58.7514 86.109 58.2436H86.1516V59H87.5863V55.321C87.5863 54.0213 86.4854 53.4744 85.271 53.4744C83.9641 53.4744 83.1048 54.0994 82.8952 55.0938L84.2944 55.2074C84.3974 54.8452 84.7205 54.5788 85.2638 54.5788C85.7788 54.5788 86.0735 54.8381 86.0735 55.2855V55.3068C86.0735 55.6584 85.7006 55.7045 84.7525 55.7969C83.6729 55.8963 82.7035 56.2585 82.7035 57.4766C82.7035 58.5561 83.4741 59.103 84.5146 59.103ZM84.9478 58.0589C84.4826 58.0589 84.1488 57.8423 84.1488 57.4268C84.1488 57.0007 84.5004 56.7912 85.033 56.7166C85.3633 56.6705 85.9031 56.5923 86.0842 56.4716V57.0504C86.0842 57.6222 85.6119 58.0589 84.9478 58.0589ZM93.2983 55.1009C93.1634 54.0959 92.3537 53.4744 90.9759 53.4744C89.5803 53.4744 88.6605 54.1207 88.6641 55.1719C88.6605 55.9886 89.1754 56.5178 90.2408 56.7308L91.1854 56.919C91.6612 57.0149 91.8778 57.1889 91.8849 57.4624C91.8778 57.7855 91.5263 58.0163 90.9972 58.0163C90.4574 58.0163 90.0987 57.7855 90.0064 57.3416L88.5185 57.4197C88.6605 58.4638 89.5483 59.1065 90.9936 59.1065C92.407 59.1065 93.419 58.3857 93.4226 57.3097C93.419 56.5213 92.9041 56.049 91.8459 55.8324L90.8587 55.6335C90.3509 55.5234 90.1626 55.3494 90.1662 55.0866C90.1626 54.7599 90.532 54.5469 91.0007 54.5469C91.5263 54.5469 91.8388 54.8345 91.9134 55.1861L93.2983 55.1009ZM96.861 59.1065C98.2104 59.1065 99.1195 58.4496 99.3326 57.4375L97.9334 57.3452C97.7807 57.7607 97.3901 57.9773 96.8858 57.9773C96.1294 57.9773 95.65 57.4766 95.65 56.6634V56.6598H99.3645V56.2443C99.3645 54.3906 98.2424 53.4744 96.8006 53.4744C95.1955 53.4744 94.155 54.6143 94.155 56.2976C94.155 58.027 95.1813 59.1065 96.861 59.1065ZM95.65 55.7223C95.682 55.1009 96.1543 54.6037 96.8255 54.6037C97.4824 54.6037 97.937 55.0724 97.9405 55.7223H95.65ZM102.362 59.0888C103.242 59.0888 103.7 58.581 103.91 58.1264H103.974V59H105.465V51.7273H103.956V54.4616H103.91C103.708 54.0178 103.271 53.4744 102.358 53.4744C101.161 53.4744 100.149 54.4048 100.149 56.2798C100.149 58.1051 101.119 59.0888 102.362 59.0888ZM102.841 57.8849C102.099 57.8849 101.694 57.2244 101.694 56.2727C101.694 55.3281 102.092 54.6783 102.841 54.6783C103.576 54.6783 103.988 55.2997 103.988 56.2727C103.988 57.2457 103.569 57.8849 102.841 57.8849ZM23.6037 74H25.1165V68.5455H23.6037V74ZM24.3636 67.8423C24.8146 67.8423 25.1839 67.4979 25.1839 67.0753C25.1839 66.6562 24.8146 66.3118 24.3636 66.3118C23.9162 66.3118 23.5469 66.6562 23.5469 67.0753C23.5469 67.4979 23.9162 67.8423 24.3636 67.8423ZM27.8411 70.8466C27.8446 70.1435 28.2637 69.7315 28.8745 69.7315C29.4817 69.7315 29.8475 70.1293 29.8439 70.7969V74H31.3567V70.527C31.3567 69.2557 30.611 68.4744 29.4746 68.4744C28.665 68.4744 28.079 68.8722 27.834 69.5078H27.7701V68.5455H26.3283V74H27.8411V70.8466ZM35.4822 68.5455H34.3991V68.1797C34.3991 67.8104 34.5483 67.5938 34.9922 67.5938C35.1733 67.5938 35.358 67.6328 35.4787 67.6719L35.745 66.5355C35.5568 66.4787 35.1413 66.3864 34.6761 66.3864C33.6499 66.3864 32.8864 66.9652 32.8864 68.1513V68.5455H32.1158V69.6818H32.8864V74H34.3991V69.6818H35.4822V68.5455ZM38.6756 74.1065C40.3304 74.1065 41.3603 72.9737 41.3603 71.294C41.3603 69.6037 40.3304 68.4744 38.6756 68.4744C37.0208 68.4744 35.9909 69.6037 35.9909 71.294C35.9909 72.9737 37.0208 74.1065 38.6756 74.1065ZM38.6827 72.9347C37.9192 72.9347 37.5286 72.2351 37.5286 71.2834C37.5286 70.3317 37.9192 69.6286 38.6827 69.6286C39.432 69.6286 39.8226 70.3317 39.8226 71.2834C39.8226 72.2351 39.432 72.9347 38.6827 72.9347ZM42.3439 74H43.8567V70.9141C43.8567 70.2429 44.3468 69.7812 45.0144 69.7812C45.2239 69.7812 45.5115 69.8168 45.6536 69.8629V68.5206C45.5186 68.4886 45.3304 68.4673 45.1777 68.4673C44.5669 68.4673 44.0662 68.8224 43.8674 69.4972H43.8105V68.5455H42.3439V74ZM46.4357 74H47.9485V70.7259C47.9485 70.1222 48.332 69.7209 48.8363 69.7209C49.3335 69.7209 49.6673 70.0618 49.6673 70.598V74H51.1339V70.669C51.1339 70.1044 51.457 69.7209 52.0075 69.7209C52.4904 69.7209 52.8526 70.0227 52.8526 70.63V74H54.3619V70.3317C54.3619 69.1491 53.6587 68.4744 52.6431 68.4744C51.8441 68.4744 51.2227 68.8828 50.9989 69.5078H50.9421C50.7681 68.8757 50.2106 68.4744 49.4613 68.4744C48.7262 68.4744 48.1687 68.8651 47.9414 69.5078H47.8775V68.5455H46.4357V74ZM57.1122 74.103C57.9183 74.103 58.4403 73.7514 58.7067 73.2436H58.7493V74H60.1839V70.321C60.1839 69.0213 59.0831 68.4744 57.8686 68.4744C56.5618 68.4744 55.7024 69.0994 55.4929 70.0938L56.892 70.2074C56.995 69.8452 57.3182 69.5788 57.8615 69.5788C58.3764 69.5788 58.6712 69.8381 58.6712 70.2855V70.3068C58.6712 70.6584 58.2983 70.7045 57.3501 70.7969C56.2706 70.8963 55.3011 71.2585 55.3011 72.4766C55.3011 73.5561 56.0717 74.103 57.1122 74.103ZM57.5455 73.0589C57.0803 73.0589 56.7464 72.8423 56.7464 72.4268C56.7464 72.0007 57.098 71.7912 57.6307 71.7166C57.9609 71.6705 58.5007 71.5923 58.6818 71.4716V72.0504C58.6818 72.6222 58.2095 73.0589 57.5455 73.0589ZM64.2589 68.5455H63.2326V67.2386H61.7198V68.5455H60.9741V69.6818H61.7198V72.5227C61.7127 73.5916 62.4407 74.1207 63.538 74.0746C63.9286 74.0604 64.2056 73.9822 64.3583 73.9325L64.1204 72.8068C64.0458 72.821 63.886 72.8565 63.744 72.8565C63.4421 72.8565 63.2326 72.7429 63.2326 72.3239V69.6818H64.2589V68.5455ZM65.2443 74H66.7571V68.5455H65.2443V74ZM66.0043 67.8423C66.4553 67.8423 66.8246 67.4979 66.8246 67.0753C66.8246 66.6562 66.4553 66.3118 66.0043 66.3118C65.5568 66.3118 65.1875 66.6562 65.1875 67.0753C65.1875 67.4979 65.5568 67.8423 66.0043 67.8423ZM70.4334 74.1065C72.0882 74.1065 73.1181 72.9737 73.1181 71.294C73.1181 69.6037 72.0882 68.4744 70.4334 68.4744C68.7786 68.4744 67.7488 69.6037 67.7488 71.294C67.7488 72.9737 68.7786 74.1065 70.4334 74.1065ZM70.4405 72.9347C69.677 72.9347 69.2864 72.2351 69.2864 71.2834C69.2864 70.3317 69.677 69.6286 70.4405 69.6286C71.1898 69.6286 71.5804 70.3317 71.5804 71.2834C71.5804 72.2351 71.1898 72.9347 70.4405 72.9347ZM75.6145 70.8466C75.6181 70.1435 76.0371 69.7315 76.6479 69.7315C77.2551 69.7315 77.6209 70.1293 77.6174 70.7969V74H79.1301V70.527C79.1301 69.2557 78.3844 68.4744 77.248 68.4744C76.4384 68.4744 75.8525 68.8722 75.6074 69.5078H75.5435V68.5455H74.1017V74H75.6145V70.8466ZM84.6468 74.0888C85.5275 74.0888 85.9856 73.581 86.1951 73.1264H86.2591V74H87.7505V66.7273H86.2413V69.4616H86.1951C85.9927 69.0178 85.5559 68.4744 84.6433 68.4744C83.4466 68.4744 82.4345 69.4048 82.4345 71.2798C82.4345 73.1051 83.4039 74.0888 84.6468 74.0888ZM85.1262 72.8849C84.3841 72.8849 83.9792 72.2244 83.9792 71.2727C83.9792 70.3281 84.377 69.6783 85.1262 69.6783C85.8613 69.6783 86.2733 70.2997 86.2733 71.2727C86.2733 72.2457 85.8542 72.8849 85.1262 72.8849ZM91.4801 74.1065C92.8295 74.1065 93.7386 73.4496 93.9517 72.4375L92.5526 72.3452C92.3999 72.7607 92.0092 72.9773 91.505 72.9773C90.7486 72.9773 90.2692 72.4766 90.2692 71.6634V71.6598H93.9837V71.2443C93.9837 69.3906 92.8615 68.4744 91.4197 68.4744C89.8146 68.4744 88.7741 69.6143 88.7741 71.2976C88.7741 73.027 89.8004 74.1065 91.4801 74.1065ZM90.2692 70.7223C90.3011 70.1009 90.7734 69.6037 91.4446 69.6037C92.1016 69.6037 92.5561 70.0724 92.5597 70.7223H90.2692ZM97.4354 74.1065C98.8878 74.1065 99.8004 73.2543 99.8714 72.0007H98.4439C98.3551 72.5831 97.9716 72.9098 97.4531 72.9098C96.7464 72.9098 96.2884 72.3168 96.2884 71.2727C96.2884 70.2429 96.75 69.6534 97.4531 69.6534C98.0071 69.6534 98.3622 70.0192 98.4439 70.5625H99.8714C99.8075 69.3018 98.8523 68.4744 97.4283 68.4744C95.7734 68.4744 94.7507 69.6214 94.7507 71.294C94.7507 72.9524 95.7557 74.1065 97.4354 74.1065ZM100.84 74H102.353V68.5455H100.84V74ZM101.6 67.8423C102.051 67.8423 102.42 67.4979 102.42 67.0753C102.42 66.6562 102.051 66.3118 101.6 66.3118C101.153 66.3118 100.783 66.6562 100.783 67.0753C100.783 67.4979 101.153 67.8423 101.6 67.8423ZM108.103 70.1009C107.968 69.0959 107.158 68.4744 105.781 68.4744C104.385 68.4744 103.465 69.1207 103.469 70.1719C103.465 70.9886 103.98 71.5178 105.045 71.7308L105.99 71.919C106.466 72.0149 106.683 72.1889 106.69 72.4624C106.683 72.7855 106.331 73.0163 105.802 73.0163C105.262 73.0163 104.903 72.7855 104.811 72.3416L103.323 72.4197C103.465 73.4638 104.353 74.1065 105.798 74.1065C107.212 74.1065 108.224 73.3857 108.227 72.3097C108.224 71.5213 107.709 71.049 106.651 70.8324L105.663 70.6335C105.156 70.5234 104.967 70.3494 104.971 70.0866C104.967 69.7599 105.337 69.5469 105.805 69.5469C106.331 69.5469 106.643 69.8345 106.718 70.1861L108.103 70.1009ZM109.18 74H110.693V68.5455H109.18V74ZM109.94 67.8423C110.391 67.8423 110.76 67.4979 110.76 67.0753C110.76 66.6562 110.391 66.3118 109.94 66.3118C109.492 66.3118 109.123 66.6562 109.123 67.0753C109.123 67.4979 109.492 67.8423 109.94 67.8423ZM114.369 74.1065C116.024 74.1065 117.054 72.9737 117.054 71.294C117.054 69.6037 116.024 68.4744 114.369 68.4744C112.714 68.4744 111.684 69.6037 111.684 71.294C111.684 72.9737 112.714 74.1065 114.369 74.1065ZM114.376 72.9347C113.613 72.9347 113.222 72.2351 113.222 71.2834C113.222 70.3317 113.613 69.6286 114.376 69.6286C115.125 69.6286 115.516 70.3317 115.516 71.2834C115.516 72.2351 115.125 72.9347 114.376 72.9347ZM119.55 70.8466C119.554 70.1435 119.973 69.7315 120.583 69.7315C121.191 69.7315 121.556 70.1293 121.553 70.7969V74H123.066V70.527C123.066 69.2557 122.32 68.4744 121.184 68.4744C120.374 68.4744 119.788 68.8722 119.543 69.5078H119.479V68.5455H118.037V74H119.55V70.8466ZM128.796 70.1009C128.661 69.0959 127.852 68.4744 126.474 68.4744C125.078 68.4744 124.159 69.1207 124.162 70.1719C124.159 70.9886 124.673 71.5178 125.739 71.7308L126.683 71.919C127.159 72.0149 127.376 72.1889 127.383 72.4624C127.376 72.7855 127.024 73.0163 126.495 73.0163C125.955 73.0163 125.597 72.7855 125.504 72.3416L124.017 72.4197C124.159 73.4638 125.046 74.1065 126.492 74.1065C127.905 74.1065 128.917 73.3857 128.921 72.3097C128.917 71.5213 128.402 71.049 127.344 70.8324L126.357 70.6335C125.849 70.5234 125.661 70.3494 125.664 70.0866C125.661 69.7599 126.03 69.5469 126.499 69.5469C127.024 69.5469 127.337 69.8345 127.411 70.1861L128.796 70.1009Z" fill="#0D0D0D"/>
<g clip-path="url(#clip0_436_207)">
<path d="M114.733 152.134H38.4552C37.9345 152.133 37.4353 151.926 37.0671 151.559C36.6989 151.191 36.4918 150.692 36.4912 150.172V103.189C36.4916 102.808 36.6434 102.443 36.9131 102.173C37.1828 101.904 37.5485 101.752 37.93 101.752H115.233C115.621 101.752 115.993 101.906 116.268 102.18C116.542 102.455 116.696 102.826 116.697 103.214V150.172C116.696 150.692 116.489 151.191 116.121 151.559C115.753 151.926 115.254 152.133 114.733 152.134Z" fill="#F2F2F2"/>
<path d="M111.95 149.356H40.8616C39.8195 149.356 38.9717 148.563 38.9717 147.588V106.675C38.9717 105.952 39.5999 105.364 40.3721 105.364H112.417C113.202 105.364 113.84 105.961 113.84 106.696V147.588C113.84 148.563 112.992 149.356 111.95 149.356Z" fill="white"/>
<path d="M116.669 103.077H36.4636V102.078C36.4644 101.556 36.6723 101.056 37.0419 100.687C37.4114 100.318 37.9123 100.111 38.4347 100.11H114.698C115.221 100.111 115.722 100.318 116.091 100.687C116.461 101.056 116.669 101.556 116.669 102.078V103.077Z" fill="#CCCCCC"/>
<path d="M40.0457 102.106C40.3273 102.106 40.5556 101.878 40.5556 101.596C40.5556 101.315 40.3273 101.087 40.0457 101.087C39.7642 101.087 39.5359 101.315 39.5359 101.596C39.5359 101.878 39.7642 102.106 40.0457 102.106Z" fill="white"/>
<path d="M41.981 102.106C42.2626 102.106 42.4909 101.878 42.4909 101.596C42.4909 101.315 42.2626 101.087 41.981 101.087C41.6995 101.087 41.4712 101.315 41.4712 101.596C41.4712 101.878 41.6995 102.106 41.981 102.106Z" fill="white"/>
<path d="M43.9163 102.106C44.1979 102.106 44.4262 101.878 44.4262 101.596C44.4262 101.315 44.1979 101.087 43.9163 101.087C43.6348 101.087 43.4065 101.315 43.4065 101.596C43.4065 101.878 43.6348 102.106 43.9163 102.106Z" fill="white"/>
<path d="M104.126 142.494H49.0349C48.4826 142.493 47.9532 142.274 47.5627 141.884C47.1722 141.493 46.9525 140.965 46.9519 140.413V113.88C46.9524 113.468 47.1166 113.072 47.4087 112.781C47.7007 112.489 48.0967 112.325 48.5097 112.324H104.626C105.045 112.325 105.448 112.491 105.744 112.788C106.041 113.084 106.208 113.486 106.209 113.905V140.413C106.208 140.965 105.988 141.493 105.598 141.884C105.207 142.274 104.678 142.493 104.126 142.494ZM48.5097 112.562C48.1598 112.562 47.8244 112.701 47.5769 112.949C47.3295 113.196 47.1903 113.531 47.19 113.88V140.413C47.1905 140.902 47.3851 141.37 47.7309 141.715C48.0768 142.061 48.5458 142.255 49.0349 142.256H104.126C104.615 142.255 105.084 142.061 105.43 141.715C105.775 141.37 105.97 140.902 105.971 140.413V113.905C105.97 113.549 105.828 113.208 105.576 112.956C105.324 112.704 104.982 112.562 104.626 112.562H48.5097Z" fill="#CCCCCC"/>
<path d="M50.9394 140.413H102.221C102.726 140.413 103.211 140.213 103.568 139.856C103.925 139.499 104.126 139.015 104.126 138.511V116.331C104.126 115.826 103.925 115.342 103.568 114.985C103.211 114.629 102.726 114.428 102.221 114.428H50.9394C50.4343 114.428 49.9499 114.629 49.5927 114.985C49.2356 115.342 49.0349 115.826 49.0349 116.331V138.511C49.0349 139.015 49.2356 139.499 49.5927 139.856C49.9499 140.213 50.4343 140.413 50.9394 140.413Z" fill="#F2F2F2"/>
<path d="M56.7622 120.881C57.3538 120.881 57.8334 120.402 57.8334 119.811C57.8334 119.22 57.3538 118.741 56.7622 118.741C56.1705 118.741 55.6909 119.22 55.6909 119.811C55.6909 120.402 56.1705 120.881 56.7622 120.881Z" fill="#CCCCCC"/>
<path d="M56.7622 124.924C57.3538 124.924 57.8334 124.445 57.8334 123.854C57.8334 123.263 57.3538 122.784 56.7622 122.784C56.1705 122.784 55.6909 123.263 55.6909 123.854C55.6909 124.445 56.1705 124.924 56.7622 124.924Z" fill="#CCCCCC"/>
<path d="M56.7622 128.966C57.3538 128.966 57.8334 128.487 57.8334 127.896C57.8334 127.305 57.3538 126.826 56.7622 126.826C56.1705 126.826 55.6909 127.305 55.6909 127.896C55.6909 128.487 56.1705 128.966 56.7622 128.966Z" fill="#CCCCCC"/>
<path d="M56.7622 133.009C57.3538 133.009 57.8334 132.53 57.8334 131.939C57.8334 131.348 57.3538 130.869 56.7622 130.869C56.1705 130.869 55.6909 131.348 55.6909 131.939C55.6909 132.53 56.1705 133.009 56.7622 133.009Z" fill="#CCCCCC"/>
<path d="M97.3507 119.93H62.1184C62.0868 119.93 62.0566 119.918 62.0343 119.895C62.0119 119.873 61.9994 119.843 61.9994 119.811C61.9994 119.78 62.0119 119.75 62.0343 119.727C62.0566 119.705 62.0868 119.692 62.1184 119.692H97.3507C97.3822 119.692 97.4125 119.705 97.4348 119.727C97.4571 119.75 97.4697 119.78 97.4697 119.811C97.4697 119.843 97.4571 119.873 97.4348 119.895C97.4125 119.918 97.3822 119.93 97.3507 119.93Z" fill="#CCCCCC"/>
<path d="M97.3507 123.973H62.1184C62.0868 123.973 62.0566 123.96 62.0343 123.938C62.0119 123.916 61.9994 123.885 61.9994 123.854C61.9994 123.822 62.0119 123.792 62.0343 123.77C62.0566 123.747 62.0868 123.735 62.1184 123.735H97.3507C97.3822 123.735 97.4125 123.747 97.4348 123.77C97.4571 123.792 97.4697 123.822 97.4697 123.854C97.4697 123.885 97.4571 123.916 97.4348 123.938C97.4125 123.96 97.3822 123.973 97.3507 123.973Z" fill="#CCCCCC"/>
<path d="M97.3507 128.015H62.1184C62.0868 128.015 62.0566 128.003 62.0343 127.98C62.0119 127.958 61.9994 127.928 61.9994 127.896C61.9994 127.865 62.0119 127.834 62.0343 127.812C62.0566 127.79 62.0868 127.777 62.1184 127.777H97.3507C97.3822 127.777 97.4125 127.79 97.4348 127.812C97.4571 127.834 97.4697 127.865 97.4697 127.896C97.4697 127.928 97.4571 127.958 97.4348 127.98C97.4125 128.003 97.3822 128.015 97.3507 128.015Z" fill="#CCCCCC"/>
<path d="M97.3507 132.058H62.1184C62.0868 132.058 62.0566 132.045 62.0343 132.023C62.0119 132 61.9994 131.97 61.9994 131.939C61.9994 131.907 62.0119 131.877 62.0343 131.855C62.0566 131.832 62.0868 131.82 62.1184 131.82H97.3507C97.3822 131.82 97.4125 131.832 97.4348 131.855C97.4571 131.877 97.4697 131.907 97.4697 131.939C97.4697 131.97 97.4571 132 97.4348 132.023C97.4125 132.045 97.3822 132.058 97.3507 132.058Z" fill="#CCCCCC"/>
<path d="M68.784 136.1H65.3322C65.1744 136.1 65.0231 136.038 64.9116 135.926C64.8 135.815 64.7372 135.664 64.7371 135.506V132.296C64.7372 132.138 64.8 131.987 64.9116 131.875C65.0231 131.764 65.1744 131.701 65.3322 131.701H68.784C68.9418 131.701 69.0931 131.764 69.2046 131.875C69.3162 131.987 69.379 132.138 69.3792 132.296V135.506C69.379 135.664 69.3162 135.815 69.2046 135.926C69.0931 136.038 68.9418 136.1 68.784 136.1Z" fill="black"/>
<path d="M76.3902 136.09H73.046C72.8931 136.09 72.7465 136.001 72.6384 135.842C72.5303 135.684 72.4695 135.469 72.4694 135.245V124.941C72.4695 124.717 72.5303 124.503 72.6384 124.344C72.7465 124.186 72.8931 124.097 73.046 124.097H76.3902C76.5431 124.097 76.6896 124.186 76.7977 124.344C76.9058 124.503 76.9666 124.717 76.9668 124.941V135.245C76.9666 135.469 76.9058 135.684 76.7977 135.842C76.6896 136.001 76.5431 136.09 76.3902 136.09Z" fill="black"/>
<path d="M84.3857 136.09H81.0414C80.8886 136.09 80.742 136.007 80.6339 135.86C80.5258 135.713 80.465 135.513 80.4648 135.305V120.385C80.465 120.176 80.5258 119.977 80.6339 119.83C80.742 119.682 80.8886 119.6 81.0414 119.599H84.3857C84.5386 119.6 84.6851 119.682 84.7932 119.83C84.9013 119.977 84.9621 120.176 84.9623 120.385V135.305C84.9621 135.513 84.9013 135.713 84.7932 135.86C84.6851 136.007 84.5386 136.09 84.3857 136.09Z" fill="black"/>
<path d="M92.381 136.09H89.0368C88.8839 136.09 88.7374 136.042 88.6293 135.957C88.5212 135.872 88.4604 135.757 88.4602 135.637V124.05C88.4604 123.93 88.5212 123.815 88.6293 123.73C88.7374 123.645 88.8839 123.597 89.0368 123.597H92.381C92.5339 123.597 92.6805 123.645 92.7886 123.73C92.8967 123.815 92.9575 123.93 92.9576 124.05V135.637C92.9575 135.757 92.8967 135.872 92.7886 135.957C92.6805 136.042 92.5339 136.09 92.381 136.09Z" fill="black"/>
<path d="M97.3507 136.1H62.1184C62.0868 136.1 62.0566 136.088 62.0343 136.065C62.0119 136.043 61.9994 136.013 61.9994 135.981C61.9994 135.95 62.0119 135.919 62.0343 135.897C62.0566 135.875 62.0868 135.862 62.1184 135.862H97.3507C97.3822 135.862 97.4125 135.875 97.4348 135.897C97.4571 135.919 97.4697 135.95 97.4697 135.981C97.4697 136.013 97.4571 136.043 97.4348 136.065C97.4125 136.088 97.3822 136.1 97.3507 136.1Z" fill="#3F3D56"/>
<path d="M112.83 158.28C112.926 158.135 113.054 158.012 113.203 157.92C113.352 157.829 113.519 157.771 113.693 157.751C113.867 157.732 114.043 157.75 114.209 157.806C114.375 157.861 114.527 157.953 114.654 158.073L118.433 156.125L118.198 158.32L114.645 159.834C114.428 160.033 114.146 160.146 113.851 160.151C113.557 160.157 113.27 160.054 113.047 159.862C112.823 159.671 112.677 159.404 112.637 159.112C112.598 158.821 112.666 158.525 112.83 158.28Z" fill="#FFB8B8"/>
<path d="M116.082 159.099C115.996 159.032 115.933 158.94 115.901 158.836L115.6 157.866C115.568 157.761 115.569 157.649 115.602 157.544C115.636 157.439 115.701 157.348 115.789 157.281L118.852 154.97L122.17 148.821C122.309 148.642 122.482 148.493 122.679 148.381C122.876 148.269 123.093 148.196 123.318 148.168C123.543 148.14 123.771 148.156 123.989 148.216C124.208 148.276 124.413 148.378 124.592 148.517C124.771 148.656 124.92 148.828 125.033 149.025C125.145 149.222 125.217 149.438 125.245 149.663C125.274 149.888 125.257 150.116 125.197 150.334C125.137 150.552 125.035 150.757 124.896 150.935L123.009 154.915C122.436 156.123 121.443 157.082 120.216 157.613L116.626 159.169C116.556 159.199 116.482 159.214 116.407 159.213C116.331 159.212 116.257 159.196 116.189 159.164C116.151 159.147 116.115 159.125 116.082 159.099Z" fill="#0D0D0D"/>
<path d="M127.803 143.335C127.803 144.892 126.539 146.155 124.98 146.155C123.42 146.155 122.156 144.892 122.156 143.335C122.156 141.777 123.42 140.514 124.98 140.514C126.539 140.514 127.803 141.777 127.803 143.335Z" fill="white" stroke="black" stroke-width="0.2"/>
<path d="M123.694 176.121L123.694 181.543L122.423 181.543L121.753 176.121L123.694 176.121Z" fill="white" stroke="black" stroke-width="0.2"/>
<path d="M121.292 181.227H124.106V182.997H119.52C119.52 182.764 119.566 182.534 119.655 182.319C119.744 182.104 119.875 181.909 120.039 181.745C120.204 181.581 120.399 181.45 120.614 181.361C120.829 181.272 121.06 181.227 121.292 181.227Z" fill="#0D0D0D"/>
<path d="M128.455 176.121L128.455 181.543L127.184 181.543L126.515 176.121L128.455 176.121Z" fill="white" stroke="black" stroke-width="0.2"/>
<path d="M126.053 181.227H128.867V182.997H124.281C124.281 182.764 124.327 182.534 124.416 182.319C124.505 182.104 124.636 181.909 124.8 181.745C124.965 181.581 125.16 181.45 125.375 181.361C125.59 181.272 125.82 181.227 126.053 181.227Z" fill="#0D0D0D"/>
<path d="M128.661 180.217L126.951 180.217C126.834 180.216 126.719 180.178 126.626 180.106C126.532 180.035 126.465 179.934 126.434 179.821L123.973 170.701C123.969 170.687 123.96 170.675 123.948 170.667C123.935 170.659 123.92 170.656 123.906 170.658C123.891 170.66 123.878 170.668 123.869 170.679C123.86 170.691 123.855 170.705 123.856 170.72L124.353 179.369C124.357 179.446 124.345 179.522 124.318 179.593C124.29 179.665 124.247 179.73 124.192 179.783C124.137 179.836 124.071 179.877 123.999 179.903C123.927 179.929 123.85 179.939 123.774 179.933L121.852 179.773C121.729 179.762 121.613 179.71 121.524 179.624C121.435 179.538 121.379 179.424 121.364 179.301L119.613 161.14L120.291 161.546L126.638 160.47L129.192 179.611C129.202 179.687 129.196 179.763 129.174 179.836C129.152 179.909 129.115 179.977 129.064 180.034C129.014 180.091 128.952 180.137 128.883 180.169C128.813 180.2 128.738 180.217 128.661 180.217H128.661Z" fill="#2A2A2A"/>
<path d="M121.736 163.057C121.036 163.052 120.35 162.859 119.749 162.499C119.657 162.444 119.583 162.362 119.538 162.265C119.492 162.168 119.478 162.059 119.495 161.953C119.718 160.587 120.886 153.582 121.948 149.762C122.381 148.207 123.337 147.369 124.791 147.272C126.918 147.133 128.808 148.795 129.005 150.982C129.353 154.84 127.942 160.321 127.319 162.499C127.295 162.583 127.251 162.66 127.19 162.723C127.129 162.786 127.054 162.833 126.971 162.86C126.887 162.887 126.799 162.893 126.712 162.878C126.626 162.863 126.545 162.827 126.476 162.773L125.207 161.787C125.129 161.728 125.032 161.697 124.934 161.701C124.836 161.705 124.742 161.744 124.669 161.81C123.6 162.763 122.584 163.057 121.736 163.057Z" fill="#0D0D0D"/>
<path opacity="0.2" d="M125.933 152.87L127.004 157.388L125.457 161.193L126.528 157.507L125.933 152.87Z" fill="black"/>
<path d="M126.648 145.736C126.908 145.741 127.166 145.694 127.408 145.599C127.514 145.558 127.625 145.524 127.731 145.483C128.669 145.121 129.287 144.123 129.31 143.119C129.332 142.114 128.811 141.14 128.038 140.497C127.265 139.855 126.263 139.525 125.26 139.448C124.18 139.366 122.964 139.64 122.36 140.538C122.2 140.778 122.087 141.068 122.182 141.357C122.211 141.444 122.262 141.522 122.33 141.583C122.6 141.823 122.868 141.643 123.143 141.627C123.521 141.605 123.86 141.91 123.982 142.268C124.104 142.626 124.05 143.02 123.952 143.385C123.877 143.604 123.829 143.832 123.811 144.064C123.803 144.179 123.825 144.296 123.874 144.401C123.924 144.506 123.999 144.597 124.094 144.665C124.33 144.807 124.64 144.725 124.876 144.582C125.112 144.44 125.316 144.242 125.571 144.138C125.827 144.033 126.169 144.056 126.318 144.288C126.365 144.373 126.397 144.465 126.412 144.56C126.545 145.166 126.515 145.13 126.648 145.736Z" fill="#0D0D0D"/>
<path d="M122.116 177.564L103.81 171.196C103.496 171.086 103.239 170.857 103.094 170.557C102.949 170.258 102.929 169.914 103.038 169.6L107.795 155.955C107.875 155.725 108.044 155.537 108.263 155.431C108.483 155.325 108.735 155.31 108.966 155.39L127.891 161.973C128.125 162.055 128.317 162.226 128.425 162.449C128.533 162.672 128.548 162.929 128.466 163.163L123.714 176.792C123.605 177.106 123.375 177.364 123.075 177.508C122.776 177.653 122.431 177.673 122.116 177.564Z" fill="#E6E6E6"/>
<path d="M105.373 170.412L121.38 175.981C121.685 176.087 122.019 176.067 122.31 175.927C122.6 175.787 122.823 175.537 122.929 175.232L126.771 164.214C126.877 163.91 126.858 163.576 126.717 163.286C126.577 162.995 126.326 162.773 126.022 162.667L110.014 157.098C109.71 156.992 109.375 157.011 109.084 157.151C108.794 157.292 108.571 157.542 108.465 157.846L104.623 168.864C104.571 169.015 104.549 169.174 104.558 169.334C104.567 169.493 104.608 169.649 104.677 169.793C104.747 169.937 104.844 170.065 104.963 170.172C105.083 170.278 105.222 170.359 105.373 170.412Z" fill="white"/>
<path d="M109.392 162.671L108.6 162.395C108.557 162.38 108.521 162.349 108.502 162.308C108.482 162.267 108.479 162.22 108.494 162.177L108.77 161.385C108.785 161.342 108.816 161.307 108.857 161.287C108.898 161.267 108.946 161.264 108.989 161.279L109.781 161.555C109.824 161.57 109.86 161.601 109.879 161.642C109.899 161.683 109.902 161.73 109.887 161.773L109.611 162.565C109.596 162.608 109.564 162.644 109.523 162.663C109.483 162.683 109.435 162.686 109.392 162.671Z" fill="black"/>
<path d="M108.677 164.723L107.884 164.447C107.841 164.432 107.806 164.4 107.786 164.36C107.766 164.319 107.763 164.271 107.778 164.228L108.055 163.437C108.07 163.394 108.101 163.358 108.142 163.339C108.183 163.319 108.23 163.316 108.273 163.331L109.066 163.607C109.109 163.622 109.144 163.653 109.164 163.694C109.184 163.735 109.186 163.782 109.172 163.825L108.895 164.617C108.88 164.66 108.849 164.695 108.808 164.715C108.767 164.735 108.72 164.738 108.677 164.723Z" fill="#3F3D56"/>
<path d="M107.962 166.774L107.169 166.498C107.126 166.483 107.091 166.452 107.071 166.411C107.051 166.37 107.048 166.323 107.063 166.28L107.339 165.488C107.354 165.445 107.386 165.41 107.427 165.39C107.468 165.37 107.515 165.368 107.558 165.383L108.351 165.658C108.394 165.673 108.429 165.705 108.449 165.746C108.469 165.787 108.471 165.834 108.456 165.877L108.18 166.669C108.165 166.712 108.134 166.747 108.093 166.767C108.052 166.786 108.005 166.789 107.962 166.774Z" fill="#CCCCCC"/>
<path d="M114.719 164.08L110.899 162.751C110.878 162.744 110.858 162.732 110.842 162.717C110.825 162.702 110.811 162.684 110.801 162.664C110.791 162.644 110.785 162.622 110.784 162.599C110.783 162.576 110.786 162.554 110.793 162.533C110.801 162.511 110.812 162.492 110.827 162.475C110.842 162.458 110.861 162.444 110.881 162.434C110.901 162.425 110.923 162.419 110.946 162.418C110.969 162.416 110.991 162.42 111.012 162.427L114.832 163.756C114.853 163.763 114.873 163.775 114.89 163.79C114.907 163.805 114.921 163.823 114.931 163.843C114.94 163.864 114.946 163.886 114.947 163.908C114.949 163.931 114.946 163.953 114.938 163.974C114.931 163.996 114.919 164.015 114.904 164.032C114.889 164.049 114.871 164.063 114.851 164.073C114.83 164.082 114.808 164.088 114.786 164.089C114.763 164.091 114.74 164.087 114.719 164.08Z" fill="#CCCCCC"/>
<path d="M114.004 166.132L110.184 164.803C110.141 164.788 110.106 164.757 110.086 164.716C110.066 164.675 110.064 164.628 110.079 164.585C110.094 164.542 110.125 164.506 110.166 164.487C110.207 164.467 110.254 164.464 110.297 164.479L114.117 165.808C114.138 165.815 114.158 165.827 114.175 165.842C114.192 165.857 114.205 165.875 114.215 165.895C114.225 165.915 114.231 165.937 114.232 165.96C114.234 165.982 114.23 166.005 114.223 166.026C114.216 166.048 114.204 166.067 114.189 166.084C114.174 166.101 114.156 166.115 114.135 166.124C114.115 166.134 114.093 166.14 114.07 166.141C114.048 166.142 114.025 166.139 114.004 166.132Z" fill="#CCCCCC"/>
<path d="M113.289 168.183L109.469 166.854C109.426 166.84 109.391 166.808 109.371 166.767C109.351 166.726 109.348 166.679 109.363 166.636C109.378 166.593 109.41 166.558 109.451 166.538C109.492 166.518 109.539 166.516 109.582 166.531L113.401 167.859C113.444 167.874 113.48 167.906 113.5 167.947C113.519 167.988 113.522 168.035 113.507 168.078C113.492 168.121 113.461 168.156 113.42 168.176C113.379 168.196 113.332 168.198 113.289 168.183Z" fill="#CCCCCC"/>
<path d="M123.453 169.295C123.481 169.228 123.507 169.161 123.532 169.091C123.845 168.191 123.788 167.203 123.373 166.344C122.958 165.486 122.218 164.827 121.316 164.514L120.061 168.115L123.453 169.295Z" fill="black"/>
<path d="M119.696 168.334L120.951 164.733C120.288 164.502 119.571 164.47 118.89 164.641C118.208 164.813 117.592 165.179 117.117 165.696C116.641 166.213 116.328 166.857 116.215 167.55C116.102 168.243 116.194 168.953 116.481 169.594C116.767 170.235 117.235 170.778 117.827 171.156C118.419 171.535 119.108 171.732 119.811 171.723C120.513 171.715 121.198 171.501 121.78 171.109C122.363 170.716 122.817 170.162 123.088 169.514L119.696 168.334Z" fill="#3F3D56"/>
<path d="M124.29 163.161L124.29 163.16C124.277 163 124.299 162.84 124.355 162.69C124.411 162.54 124.499 162.403 124.613 162.291C124.727 162.178 124.865 162.092 125.016 162.039C125.167 161.985 125.328 161.965 125.488 161.98L125.558 161.987L125.588 161.923L127.281 158.228L128.323 159.893L126.491 163.223L126.482 163.238L126.479 163.255C126.436 163.522 126.296 163.763 126.087 163.933C125.877 164.103 125.612 164.191 125.343 164.179C125.073 164.168 124.816 164.057 124.622 163.87C124.429 163.682 124.31 163.43 124.29 163.161Z" fill="white" stroke="black" stroke-width="0.2"/>
<path d="M127.255 161.808C127.146 161.808 127.04 161.775 126.95 161.713L126.114 161.135C126.024 161.072 125.955 160.983 125.917 160.88C125.879 160.777 125.873 160.664 125.901 160.558L126.884 156.851L125.696 149.967C125.695 149.741 125.738 149.516 125.824 149.306C125.909 149.097 126.035 148.906 126.195 148.745C126.354 148.584 126.544 148.456 126.753 148.368C126.962 148.28 127.187 148.234 127.413 148.233C127.64 148.232 127.865 148.276 128.075 148.361C128.285 148.447 128.476 148.573 128.637 148.733C128.798 148.892 128.926 149.082 129.013 149.291C129.101 149.5 129.146 149.724 129.147 149.95L130.12 154.245C130.416 155.549 130.228 156.915 129.59 158.09L127.726 161.528C127.69 161.594 127.641 161.651 127.581 161.697C127.521 161.743 127.453 161.776 127.379 161.793C127.339 161.803 127.297 161.808 127.255 161.808Z" fill="#0D0D0D"/>
<path d="M136.314 183.063H113.699C113.667 183.063 113.637 183.051 113.614 183.028C113.592 183.006 113.58 182.976 113.58 182.944C113.58 182.913 113.592 182.883 113.614 182.86C113.637 182.838 113.667 182.825 113.699 182.825H136.314C136.345 182.825 136.376 182.838 136.398 182.86C136.42 182.883 136.433 182.913 136.433 182.944C136.433 182.976 136.42 183.006 136.398 183.028C136.376 183.051 136.345 183.063 136.314 183.063Z" fill="#CCCCCC"/>
<path d="M78.4287 176.061L77.7592 181.484L76.4883 181.484L76.4881 176.061H78.4287Z" fill="white" stroke="black" stroke-width="0.2"/>
<path d="M76.0161 181.108L78.8899 181.108H78.89C79.1305 181.108 79.3687 181.155 79.5909 181.247C79.8131 181.339 80.015 181.474 80.185 181.644C80.3551 181.814 80.49 182.015 80.582 182.237C80.6741 182.459 80.7214 182.697 80.7214 182.937V182.997L76.0162 182.997L76.0161 181.108Z" fill="#2F2E41"/>
<path d="M72.5964 176.061L71.9269 181.484L70.656 181.484L70.6558 176.061H72.5964Z" fill="white" stroke="black" stroke-width="0.2"/>
<path d="M70.1837 181.108L73.0575 181.108H73.0576C73.2981 181.108 73.5363 181.155 73.7585 181.247C73.9807 181.339 74.1826 181.474 74.3526 181.644C74.5227 181.814 74.6576 182.015 74.7496 182.237C74.8417 182.459 74.889 182.697 74.889 182.937V182.997L70.1838 182.997L70.1837 181.108Z" fill="#2F2E41"/>
<path d="M79.503 139.739C79.503 141.296 78.239 142.559 76.6796 142.559C75.1201 142.559 73.8561 141.296 73.8561 139.739C73.8561 138.181 75.1201 136.918 76.6796 136.918C78.239 136.918 79.503 138.181 79.503 139.739Z" fill="white" stroke="black" stroke-width="0.2"/>
<path d="M78.6456 180.371H75.9376C75.8667 180.371 75.7965 180.357 75.7311 180.329C75.6657 180.302 75.6064 180.262 75.5566 180.212C75.5068 180.161 75.4675 180.101 75.4409 180.036C75.4144 179.97 75.4012 179.9 75.402 179.829L75.5594 166.984C75.56 166.939 75.543 166.895 75.512 166.861C75.481 166.828 75.4384 166.807 75.3928 166.804C75.3472 166.801 75.3022 166.816 75.267 166.845C75.2318 166.874 75.2091 166.915 75.2036 166.961L73.6276 179.9C73.6117 180.03 73.5488 180.149 73.4509 180.236C73.353 180.323 73.2267 180.37 73.0959 180.371H70.3619C70.2881 180.371 70.215 180.355 70.1473 180.326C70.0797 180.296 70.0188 180.253 69.9687 180.199C69.9185 180.145 69.8801 180.081 69.8559 180.011C69.8317 179.941 69.8222 179.867 69.8279 179.794L71.6333 156.719L71.6824 156.713L80.3272 155.781L79.1806 179.861C79.1742 179.998 79.115 180.128 79.0154 180.223C78.9157 180.318 78.7833 180.371 78.6456 180.371Z" fill="#0D0D0D"/>
<path d="M71.7384 158.135C71.5995 158.135 71.4662 158.08 71.3666 157.984C71.267 157.887 71.2089 157.755 71.2047 157.617C71.1575 156.158 71.0766 151.109 72.0167 147.403C72.2732 146.39 72.8491 145.487 73.6592 144.827C74.4693 144.166 75.4706 143.784 76.5151 143.736C77.5431 143.68 78.5628 143.949 79.4293 144.504C80.2958 145.059 80.9653 145.873 81.3427 146.83C82.9228 150.837 84.4157 155.777 82.5545 156.551C80.115 157.567 73.6841 158.019 71.7713 158.134C71.7602 158.135 71.7493 158.135 71.7384 158.135Z" fill="#131313"/>
<path d="M83.2707 136.078L83.2734 136.026L83.2317 135.994C83.1791 135.953 83.1296 135.909 83.0838 135.861C82.9083 135.673 82.7924 135.435 82.7518 135.178C82.7111 134.92 82.7479 134.657 82.857 134.421C82.966 134.186 83.1421 133.991 83.3614 133.862C83.5807 133.732 83.833 133.674 84.0847 133.696C84.3364 133.717 84.5762 133.816 84.772 133.981C84.9679 134.146 85.1105 134.368 85.1806 134.619C85.2507 134.869 85.2447 135.136 85.1635 135.383C85.0823 135.63 84.9299 135.845 84.7269 136L84.6831 136.034L84.6881 136.089L85.358 143.481C85.3766 143.687 85.3296 143.893 85.2243 144.069C85.119 144.245 84.9613 144.38 84.7752 144.456L82.3158 145.452L81.587 143.361L82.8866 142.678L82.9371 142.652L82.94 142.595L83.2707 136.078Z" fill="white" stroke="black" stroke-width="0.2"/>
<path d="M82.7772 143.025L83.6752 145.574C83.7008 145.647 83.7104 145.724 83.7034 145.8C83.6964 145.877 83.6729 145.951 83.6346 146.018C83.5964 146.085 83.5441 146.142 83.4815 146.187C83.4189 146.232 83.3474 146.262 83.2718 146.277L80.624 146.789C80.2518 146.918 79.8437 146.894 79.4893 146.722C79.1349 146.55 78.8631 146.245 78.7334 145.874C78.6038 145.503 78.6269 145.095 78.7977 144.74C78.9686 144.386 79.2731 144.114 79.6447 143.983L82.0221 142.73C82.0902 142.694 82.1652 142.673 82.2421 142.669C82.3189 142.664 82.3958 142.677 82.4674 142.705C82.5391 142.733 82.6039 142.776 82.6573 142.831C82.7108 142.886 82.7517 142.953 82.7772 143.025V143.025Z" fill="#131313"/>
<path d="M70.1774 136.717L70.1771 136.717C70.1349 136.761 70.0892 136.801 70.0407 136.837L69.9978 136.869L70.0006 136.922L70.3075 142.811L70.3105 142.868L70.3618 142.895L71.5601 143.507L70.89 145.381L68.6139 144.482C68.4423 144.415 68.2974 144.293 68.2009 144.136C68.1044 143.979 68.0614 143.795 68.0785 143.612L68.7 136.932L68.7052 136.876L68.6602 136.843C68.4731 136.703 68.3329 136.51 68.2584 136.289C68.1838 136.069 68.1783 135.83 68.2427 135.606C68.307 135.382 68.4381 135.183 68.6186 135.035C68.7991 134.887 69.0204 134.798 69.253 134.778C69.4857 134.759 69.7187 134.811 69.921 134.928C70.1233 135.044 70.2853 135.219 70.3856 135.43C70.4858 135.64 70.5196 135.876 70.4822 136.106C70.445 136.336 70.3387 136.549 70.1774 136.717Z" fill="white" stroke="black" stroke-width="0.2"/>
<path d="M70.693 142.704C70.7647 142.676 70.8415 142.664 70.9184 142.668C70.9952 142.673 71.0702 142.693 71.1383 142.729L73.5157 143.983C73.8873 144.113 74.1918 144.386 74.3627 144.74C74.5335 145.095 74.5566 145.502 74.427 145.874C74.2973 146.245 74.0255 146.55 73.6711 146.722C73.3167 146.893 72.9086 146.918 72.5364 146.789L69.8886 146.277C69.813 146.262 69.7415 146.232 69.6789 146.187C69.6163 146.142 69.5641 146.084 69.5258 146.018C69.4875 145.951 69.4641 145.877 69.4571 145.8C69.4501 145.724 69.4597 145.647 69.4852 145.574L70.3832 143.025C70.4087 142.952 70.4496 142.886 70.503 142.831C70.5565 142.776 70.6213 142.732 70.693 142.704Z" fill="#131313"/>
<path d="M77.815 140.236C77.7997 139.864 77.8933 139.495 78.0843 139.175C78.2754 138.854 78.5558 138.597 78.8911 138.433C79.7797 137.975 80.338 136.997 80.0934 136.105C79.7803 134.962 78.2236 134.221 76.9623 134.614C76.621 134.735 76.2918 134.888 75.9791 135.071L75.155 135.512C74.803 135.688 74.4636 135.888 74.1392 136.111C73.6534 136.469 73.2726 136.95 73.0366 137.505C72.8006 138.06 72.7182 138.668 72.7978 139.265C72.96 140.427 73.7215 141.492 74.7638 142.221C75.1624 142.519 75.6228 142.723 76.1111 142.82C76.6107 142.902 77.1669 142.808 77.5322 142.498C78.1031 142.013 78.0441 141.201 77.8595 140.522C77.8351 140.429 77.8202 140.333 77.815 140.236Z" fill="#2F2E41"/>
<path d="M87.7506 183.063H65.1353C65.1037 183.063 65.0734 183.051 65.0511 183.028C65.0288 183.006 65.0162 182.976 65.0162 182.944C65.0162 182.913 65.0288 182.883 65.0511 182.86C65.0734 182.838 65.1037 182.825 65.1353 182.825H87.7506C87.7821 182.825 87.8124 182.838 87.8347 182.86C87.857 182.883 87.8696 182.913 87.8696 182.944C87.8696 182.976 87.857 183.006 87.8347 183.028C87.8124 183.051 87.7821 183.063 87.7506 183.063Z" fill="#CCCCCC"/>
<path d="M53.6433 151.789L34.9824 159.436C34.6619 159.567 34.3026 159.566 33.9831 159.432C33.6637 159.299 33.4103 159.044 33.2785 158.724L27.5661 144.815C27.4701 144.581 27.4712 144.318 27.569 144.084C27.6669 143.85 27.8536 143.665 28.0881 143.568L47.3798 135.663C47.6187 135.565 47.8865 135.566 48.1246 135.666C48.3627 135.765 48.5515 135.955 48.6497 136.193L54.3558 150.087C54.4869 150.407 54.4855 150.766 54.3519 151.085C54.2183 151.404 53.9635 151.657 53.6433 151.789Z" fill="#E6E6E6"/>
<path d="M35.6583 157.749L51.9759 151.062C52.2867 150.935 52.534 150.689 52.6636 150.38C52.7932 150.07 52.7944 149.722 52.6669 149.412L48.0542 138.18C47.9911 138.026 47.8983 137.887 47.7811 137.769C47.6639 137.651 47.5246 137.557 47.3712 137.493C47.2177 137.429 47.0532 137.396 46.8869 137.395C46.7206 137.395 46.5558 137.427 46.4019 137.49L30.0843 144.177C29.9305 144.24 29.7905 144.333 29.6725 144.45C29.5545 144.567 29.4608 144.706 29.3966 144.859C29.3325 145.012 29.2992 145.177 29.2986 145.343C29.298 145.509 29.3302 145.674 29.3933 145.827L34.006 157.059C34.0692 157.212 34.162 157.352 34.2792 157.47C34.3964 157.588 34.5357 157.682 34.6891 157.746C34.8425 157.81 35.0071 157.843 35.1734 157.844C35.3397 157.844 35.5045 157.812 35.6583 157.749Z" fill="white"/>
<path d="M45.162 150.827L44.9221 150.926L44.9385 150.965L45.1784 150.867L45.162 150.827Z" fill="#E6E6E6"/>
<path d="M44.4538 151.164L43.9692 151.363L43.9528 151.323L44.4374 151.124L44.4538 151.164ZM43.4845 151.561L42.9999 151.76L42.9835 151.72L43.4681 151.521L43.4845 151.561ZM42.5152 151.958L42.0306 152.157L42.0142 152.117L42.4988 151.918L42.5152 151.958ZM41.5459 152.356L41.0613 152.554L41.0449 152.514L41.5295 152.316L41.5459 152.356ZM40.5766 152.753L40.092 152.951L40.0756 152.912L40.5602 152.713L40.5766 152.753ZM39.6073 153.15L39.1227 153.349L39.1063 153.309L39.5909 153.11L39.6073 153.15ZM38.638 153.547L38.1534 153.746L38.137 153.706L38.6216 153.507L38.638 153.547ZM37.6687 153.945L37.1841 154.143L37.1677 154.103L37.6523 153.905L37.6687 153.945ZM36.6994 154.342L36.2148 154.54L36.1984 154.5L36.683 154.302L36.6994 154.342ZM35.7301 154.739L35.2455 154.938L35.229 154.898L35.7137 154.699L35.7301 154.739ZM34.7608 155.136L34.2761 155.335L34.2597 155.295L34.7444 155.096L34.7608 155.136ZM33.7915 155.533L33.3068 155.732L33.2904 155.692L33.7751 155.493L33.7915 155.533ZM32.8222 155.931L32.3375 156.129L32.3211 156.089L32.8058 155.891L32.8222 155.931ZM31.8529 156.328L31.3682 156.526L31.3518 156.486L31.8365 156.288L31.8529 156.328ZM30.8836 156.725L30.3989 156.924L30.3825 156.884L30.8672 156.685L30.8836 156.725ZM29.9143 157.122L29.4296 157.321L29.4132 157.281L29.8979 157.082L29.9143 157.122Z" fill="#E6E6E6"/>
<path d="M28.9285 157.48L28.6886 157.578L28.705 157.618L28.9449 157.52L28.9285 157.48Z" fill="#E6E6E6"/>
<path d="M38.8107 157.77L38.5708 157.868L38.5872 157.908L38.8271 157.81L38.8107 157.77Z" fill="#E6E6E6"/>
<path d="M38.1097 158.103L37.6323 158.299L37.6159 158.259L38.0933 158.063L38.1097 158.103ZM37.1548 158.495L36.6774 158.69L36.661 158.65L37.1384 158.455L37.1548 158.495ZM36.1999 158.886L35.7225 159.082L35.7061 159.042L36.1835 158.846L36.1999 158.886ZM35.245 159.277L34.7676 159.473L34.7512 159.433L35.2286 159.237L35.245 159.277ZM34.2901 159.669L33.8126 159.864L33.7962 159.824L34.2737 159.629L34.2901 159.669ZM33.3352 160.06L32.8577 160.256L32.8413 160.216L33.3188 160.02L33.3352 160.06ZM32.3803 160.451L31.9028 160.647L31.8864 160.607L32.3639 160.411L32.3803 160.451ZM31.4254 160.843L30.9479 161.038L30.9315 160.998L31.409 160.803L31.4254 160.843Z" fill="#E6E6E6"/>
<path d="M30.454 161.194L30.2141 161.292L30.2305 161.332L30.4704 161.234L30.454 161.194Z" fill="#E6E6E6"/>
<path d="M34.8544 161.444L34.6145 161.542L34.6309 161.582L34.8708 161.484L34.8544 161.444Z" fill="#E6E6E6"/>
<path d="M34.1395 161.784L33.6483 161.985L33.6319 161.945L34.1231 161.744L34.1395 161.784ZM33.1571 162.186L32.6659 162.388L32.6494 162.348L33.1407 162.146L33.1571 162.186ZM32.1746 162.589L31.6834 162.79L31.667 162.75L32.1582 162.549L32.1746 162.589Z" fill="#E6E6E6"/>
<path d="M31.1758 162.951L30.9359 163.05L30.9523 163.09L31.1922 162.991L31.1758 162.951Z" fill="#E6E6E6"/>
<path d="M36.086 164.443L35.8461 164.541L35.8625 164.581L36.1024 164.483L36.086 164.443Z" fill="#E6E6E6"/>
<path d="M35.3712 164.783L34.88 164.984L34.8636 164.944L35.3548 164.743L35.3712 164.783ZM34.3888 165.185L33.8975 165.387L33.8811 165.347L34.3724 165.145L34.3888 165.185ZM33.4063 165.588L32.9151 165.789L32.8987 165.749L33.3899 165.548L33.4063 165.588Z" fill="#E6E6E6"/>
<path d="M32.4075 165.951L32.1676 166.049L32.184 166.089L32.4239 165.99L32.4075 165.951Z" fill="#E6E6E6"/>
<path d="M36.3512 155.981L50.1793 150.315C50.5139 150.177 50.7803 149.912 50.9199 149.579C51.0595 149.245 51.061 148.87 50.924 148.536L48.1301 141.733L48.1031 141.745L44.7097 149.85L42.1929 148.799C42.1465 148.779 42.0962 148.77 42.0459 148.774C41.9956 148.777 41.9467 148.791 41.903 148.817C41.8375 148.856 41.7868 148.916 41.7588 148.987L39.9803 153.234L38.1402 152.466C38.1005 152.449 38.0579 152.441 38.0148 152.44C37.9718 152.44 37.9292 152.449 37.8893 152.465C37.8495 152.481 37.8133 152.505 37.7828 152.536C37.7522 152.566 37.728 152.602 37.7114 152.642C37.6996 152.67 36.565 155.451 36.3512 155.981Z" fill="black"/>
<path d="M36.3085 156.045L36.2687 156.029L37.6916 152.63C37.7293 152.54 37.801 152.469 37.8911 152.432C37.9812 152.395 38.0823 152.395 38.1722 152.433L39.976 153.186L41.7443 148.962C41.782 148.873 41.8538 148.802 41.9439 148.765C42.034 148.728 42.1351 148.728 42.225 148.765L44.7054 149.802L48.1163 141.654L48.1561 141.671L44.7286 149.858L42.2083 148.805C42.169 148.789 42.1269 148.78 42.0843 148.78C42.0418 148.78 41.9996 148.788 41.9602 148.804C41.9208 148.821 41.885 148.844 41.8548 148.874C41.8246 148.904 41.8006 148.94 41.7842 148.979L39.9992 153.243L38.1556 152.473C38.0762 152.44 37.987 152.439 37.9075 152.472C37.828 152.504 37.7647 152.567 37.7315 152.646L36.3085 156.045Z" fill="#3F3D56"/>
<path d="M34.8626 161.767C35.0297 161.767 35.1651 161.631 35.1651 161.464C35.1651 161.297 35.0297 161.162 34.8626 161.162C34.6955 161.162 34.5601 161.297 34.5601 161.464C34.5601 161.631 34.6955 161.767 34.8626 161.767Z" fill="#3F3D56"/>
<path d="M41.621 148.507C41.7881 148.507 41.9235 148.372 41.9235 148.205C41.9235 148.038 41.7881 147.903 41.621 147.903C41.4539 147.903 41.3185 148.038 41.3185 148.205C41.3185 148.372 41.4539 148.507 41.621 148.507Z" fill="#3F3D56"/>
<path d="M47.7814 141.555C47.9485 141.555 48.0839 141.419 48.0839 141.252C48.0839 141.085 47.9485 140.95 47.7814 140.95C47.6143 140.95 47.4789 141.085 47.4789 141.252C47.4789 141.419 47.6143 141.555 47.7814 141.555Z" fill="#3F3D56"/>
<path d="M28.0019 161.031L28.0013 161.032C27.7592 161.154 27.4806 161.183 27.2183 161.114C26.956 161.045 26.7282 160.882 26.5782 160.657C26.4281 160.431 26.3661 160.158 26.4039 159.89C26.4418 159.621 26.5768 159.376 26.7835 159.201L26.815 159.174L26.8184 159.133L27.5248 150.656H29.2638L28.3766 159.321L28.3726 159.36L28.3958 159.391C28.4917 159.52 28.5582 159.669 28.5904 159.826C28.6226 159.984 28.6198 160.147 28.5823 160.303C28.5447 160.459 28.4733 160.606 28.373 160.732C28.2728 160.857 28.1461 160.96 28.0019 161.031Z" fill="white" stroke="black" stroke-width="0.2"/>
<path d="M32.4763 142.969C32.4763 144.43 31.2912 145.613 29.8291 145.613C28.367 145.613 27.1819 144.43 27.1819 142.969C27.1819 141.509 28.367 140.325 29.8291 140.325C31.2912 140.325 32.4763 141.509 32.4763 142.969Z" fill="white" stroke="black" stroke-width="0.2"/>
<path d="M30.3463 155.667C30.2364 155.667 30.1295 155.631 30.042 155.564C29.9545 155.497 29.8913 155.404 29.8621 155.298C29.642 154.499 29.0694 153.149 28.1602 151.284C27.955 150.862 27.8414 150.402 27.8268 149.934C27.8122 149.465 27.8969 148.999 28.0754 148.565C28.2539 148.132 28.5222 147.741 28.8626 147.418C29.203 147.095 29.6078 146.848 30.0506 146.693C30.4701 146.545 30.9151 146.482 31.3593 146.509C31.8034 146.536 32.2376 146.652 32.6363 146.849C33.0349 147.046 33.3899 147.322 33.6802 147.659C33.9704 147.995 34.1901 148.387 34.3263 148.81C35.031 151.017 34.997 153.381 34.9496 154.295C34.9437 154.405 34.9019 154.511 34.8305 154.595C34.7591 154.679 34.6621 154.737 34.5544 154.761L30.4543 155.655C30.4188 155.663 30.3826 155.667 30.3463 155.667Z" fill="#0D0D0D"/>
<path d="M36.2273 176.541L35.5996 181.625H34.4168L34.4165 176.542L36.2273 176.541Z" fill="white" stroke="black" stroke-width="0.2"/>
<path d="M38.3328 182.997L34.0231 182.997L34.023 181.333L36.6676 181.333C36.8862 181.333 37.1028 181.376 37.3048 181.46C37.5068 181.544 37.6904 181.666 37.845 181.82C37.9996 181.975 38.1223 182.158 38.206 182.36C38.2897 182.562 38.3328 182.778 38.3328 182.997Z" fill="#2F2E41"/>
<path d="M24.7792 176.327L21.7773 180.479L20.7407 179.91L23.1926 175.455L24.7792 176.327Z" fill="white" stroke="black" stroke-width="0.2"/>
<path d="M23.5105 182.997L19.7339 180.923L20.5361 179.465L22.8536 180.738C23.2405 180.95 23.5272 181.308 23.6504 181.731C23.7736 182.155 23.7233 182.61 23.5105 182.997Z" fill="#2F2E41"/>
<path d="M34.2528 178.792C34.1306 178.792 34.0126 178.748 33.9208 178.667C33.8291 178.586 33.7698 178.475 33.7541 178.354L32.0392 165.154C32.0316 165.095 32.0057 165.041 31.9653 164.998C31.9249 164.955 31.8719 164.926 31.814 164.915C31.7561 164.904 31.6962 164.912 31.6428 164.937C31.5895 164.962 31.5455 165.003 31.517 165.055L24.3699 178.007C24.3109 178.113 24.2159 178.194 24.1021 178.236C23.9884 178.278 23.8634 178.277 23.7499 178.235L22.1921 177.642C22.1294 177.618 22.0721 177.582 22.0236 177.536C21.9751 177.489 21.9364 177.434 21.9097 177.372C21.8829 177.311 21.8687 177.245 21.868 177.178C21.8672 177.111 21.8798 177.044 21.9051 176.982L26.856 164.833C26.8686 164.802 26.8771 164.77 26.8813 164.737C27.5519 159.553 29.2581 156.916 29.765 156.231C29.8021 156.181 29.8264 156.123 29.8361 156.061C29.8457 155.999 29.8404 155.936 29.8205 155.877L29.7508 155.668C29.723 155.585 29.7173 155.496 29.7343 155.411C29.7513 155.325 29.7903 155.245 29.8477 155.179C31.6744 153.101 34.8582 154.235 34.8901 154.246L34.9061 154.252L34.9161 154.266C38.4861 159.157 37.1661 175.041 36.8653 178.176C36.854 178.294 36.8015 178.404 36.7168 178.487C36.6322 178.569 36.521 178.62 36.4029 178.628L34.2918 178.791C34.2787 178.792 34.2657 178.792 34.2528 178.792Z" fill="#2F2E41"/>
<path d="M40.1846 146.06L40.2262 146.026L40.2213 145.973C40.2161 145.917 40.2153 145.861 40.219 145.804C40.2348 145.587 40.3164 145.38 40.453 145.21C40.5896 145.04 40.7748 144.916 40.9839 144.853C41.1929 144.791 41.416 144.794 41.6234 144.862C41.8307 144.929 42.0126 145.058 42.1447 145.231C42.2769 145.405 42.3531 145.614 42.3632 145.832C42.3733 146.049 42.3168 146.265 42.2013 146.45C42.0858 146.634 41.9167 146.78 41.7165 146.866C41.5162 146.953 41.2944 146.976 41.0805 146.934L41.0255 146.923L40.9875 146.964L36.7098 151.6C36.5932 151.727 36.4387 151.812 36.2696 151.843C36.1004 151.874 35.9257 151.85 35.7717 151.774L33.718 150.755L34.6003 149.119L35.7774 149.567L35.8312 149.588L35.8759 149.551L40.1846 146.06Z" fill="white" stroke="black" stroke-width="0.2"/>
<path d="M35.5169 149.24L33.964 151.251C33.9198 151.308 33.8638 151.355 33.7998 151.388C33.7358 151.422 33.6653 151.441 33.5931 151.445C33.5208 151.449 33.4486 151.438 33.3813 151.411C33.314 151.385 33.2532 151.344 33.203 151.292L31.445 149.469C31.1533 149.241 30.9638 148.907 30.9181 148.541C30.8723 148.174 30.9741 147.804 31.201 147.512C31.4279 147.22 31.7615 147.03 32.1286 146.983C32.4957 146.936 32.8664 147.037 33.1593 147.263L35.3642 148.494C35.4273 148.529 35.4821 148.578 35.5248 148.636C35.5675 148.695 35.5971 148.761 35.6116 148.832C35.626 148.903 35.6251 148.976 35.6088 149.046C35.5924 149.117 35.5611 149.183 35.5169 149.24Z" fill="#0D0D0D"/>
<path d="M29.498 152.733L26.9964 152.282C26.9252 152.269 26.8577 152.241 26.7983 152.2C26.7389 152.158 26.6892 152.105 26.6524 152.043C26.6156 151.98 26.5927 151.911 26.5852 151.839C26.5777 151.767 26.5858 151.695 26.609 151.626L27.42 149.228C27.4878 148.864 27.6971 148.543 28.002 148.333C28.3069 148.124 28.6826 148.043 29.0466 148.11C29.4106 148.177 29.7332 148.385 29.9437 148.689C30.1543 148.993 30.2355 149.368 30.1697 149.732L30.0906 152.254C30.0883 152.326 30.0704 152.397 30.0382 152.462C30.0061 152.527 29.9603 152.584 29.9041 152.629C29.8478 152.675 29.7825 152.707 29.7124 152.725C29.6423 152.743 29.5692 152.746 29.498 152.733H29.498Z" fill="#0D0D0D"/>
<path d="M30.264 142.338C30.9701 142.821 31.8972 143.317 32.6183 142.803C32.8439 142.631 33.0078 142.391 33.0854 142.119C33.1631 141.847 33.1503 141.556 33.049 141.292C32.7037 140.305 31.755 139.871 30.8478 139.538C29.6684 139.106 28.3842 138.761 27.1666 139.071C25.9491 139.381 24.873 140.559 25.0928 141.794C25.2696 142.788 26.208 143.615 26.0748 144.616C25.9407 145.622 24.8071 146.152 23.8063 146.332C22.8055 146.512 21.6855 146.57 20.9663 147.288C20.0488 148.204 20.2779 149.842 21.1412 150.809C22.0046 151.776 23.3074 152.214 24.5699 152.512C26.2426 152.907 28.0517 153.115 29.6403 152.459C31.229 151.804 32.4652 150.04 32.005 148.386C31.8106 147.687 31.3527 147.097 30.9101 146.522C30.4676 145.947 30.0195 145.346 29.8506 144.64C29.71 144.053 29.8141 143.37 30.2043 142.929C30.2753 142.852 30.3199 142.754 30.3319 142.65C30.3438 142.546 30.3224 142.441 30.2708 142.35L30.264 142.338Z" fill="#2A2A2A"/>
<path d="M40.7346 183.063H18.1193C18.0877 183.063 18.0574 183.051 18.0351 183.028C18.0128 183.006 18.0002 182.976 18.0002 182.944C18.0002 182.913 18.0128 182.883 18.0351 182.86C18.0574 182.838 18.0877 182.825 18.1193 182.825H40.7346C40.7661 182.825 40.7964 182.838 40.8187 182.86C40.8411 182.883 40.8536 182.913 40.8536 182.944C40.8536 182.976 40.8411 183.006 40.8187 183.028C40.7964 183.051 40.7661 183.063 40.7346 183.063Z" fill="#CCCCCC"/>
</g>
</g>
<defs>
<filter id="filter0_d_436_207" x="0" y="0" width="167" height="230" filterUnits="userSpaceOnUse" color-interpolation-filters="sRGB">
<feFlood flood-opacity="0" result="BackgroundImageFix"/>
<feColorMatrix in="SourceAlpha" type="matrix" values="0 0 0 0 0 0 0 0 0 0 0 0 0 0 0 0 0 0 127 0" result="hardAlpha"/>
<feOffset dx="6" dy="-1"/>
<feGaussianBlur stdDeviation="4"/>
<feColorMatrix type="matrix" values="0 0 0 0 0 0 0 0 0 0 0 0 0 0 0 0 0 0 0.25 0"/>
<feBlend mode="normal" in2="BackgroundImageFix" result="effect1_dropShadow_436_207"/>
<feBlend mode="normal" in="SourceGraphic" in2="effect1_dropShadow_436_207" result="shape"/>
</filter>
<clipPath id="clip0_436_207">
<rect width="118.433" height="82.9529" fill="white" transform="translate(18.0002 100.11)"/>
</clipPath>
</defs>
</svg>
