<svg width="25" height="23" viewBox="0 0 25 23" fill="none" xmlns="http://www.w3.org/2000/svg">
<path d="M12.2466 10.7305C14.4658 10.7305 16.1918 8.9223 16.1918 6.70312C16.1918 4.48395 14.3836 2.75792 12.1644 2.75792C9.9452 2.75792 8.21918 4.56614 8.21918 6.70312C8.21918 8.9223 10.0274 10.7305 12.2466 10.7305ZM12.1644 4.40176C12.2466 4.40176 12.2466 4.40176 12.1644 4.40176C13.4795 4.40176 14.5479 5.47025 14.5479 6.78532C14.5479 8.10039 13.4795 9.08669 12.1644 9.08669C10.8493 9.08669 9.86301 8.01819 9.86301 6.78532C9.86301 5.47025 10.9315 4.40176 12.1644 4.40176Z" fill="black"/>
<path d="M24.4109 10.2376C22.8493 8.84036 20.7945 8.10063 18.6575 8.18282H18C17.8356 8.84036 17.589 9.4157 17.2603 9.90885C17.7534 9.82666 18.1644 9.82666 18.6575 9.82666C20.2192 9.74447 21.7808 10.2376 23.0137 11.1417V17.0595H24.6575V10.4842L24.4109 10.2376Z" fill="black"/>
<path d="M16.7671 2.92246C17.1781 1.93616 18.3288 1.44301 19.3973 1.85396C20.3836 2.26492 20.8767 3.41561 20.4658 4.4841C20.137 5.22383 19.3973 5.71698 18.6576 5.71698C18.4932 5.71698 18.2466 5.71698 18.0822 5.63479C18.1644 6.04575 18.1644 6.4567 18.1644 6.78547V7.27862C18.3288 7.27862 18.4932 7.36081 18.6576 7.36081C20.7123 7.36081 22.3562 5.71698 22.3562 3.74438C22.3562 1.68958 20.7123 0.0457458 18.7397 0.0457458C17.4247 0.0457458 16.274 0.70328 15.6165 1.85396C16.0274 2.10054 16.4384 2.42931 16.7671 2.92246Z" fill="black"/>
<path d="M7.39726 9.99074C7.06849 9.49759 6.82192 8.92224 6.65753 8.26471H6C3.86301 8.18252 1.80822 8.92224 0.246575 10.2373L0 10.4839V17.0592H1.64384V11.1414C2.9589 10.2373 4.43836 9.74416 6 9.82635C6.49315 9.82635 6.9863 9.90855 7.39726 9.99074Z" fill="black"/>
<path d="M5.99982 7.27892C6.16421 7.27892 6.32859 7.27892 6.49297 7.19673V6.70358C6.49297 6.29262 6.49297 5.88166 6.57516 5.55289C6.41078 5.63508 6.16421 5.63508 5.99982 5.63508C4.93133 5.63508 4.02722 4.73097 4.02722 3.66248C4.02722 2.59399 4.93133 1.68988 5.99982 1.68988C6.82174 1.68988 7.56147 2.18303 7.89023 2.92276C8.219 2.5118 8.71215 2.10084 9.12311 1.77207C8.05462 0.0460431 5.83544 -0.529299 4.10941 0.539194C2.38338 1.60769 1.80804 3.82686 2.87653 5.55289C3.53407 6.62139 4.68475 7.27892 5.99982 7.27892Z" fill="black"/>
<path d="M18.9863 15.1688L18.8219 14.9222C17.1781 13.114 14.8767 12.0455 12.411 12.1277C9.9452 12.0455 7.56164 13.114 5.9178 14.9222L5.75342 15.1688V21.4154C5.75342 22.1551 6.32876 22.8126 7.15068 22.8126H17.6712C18.411 22.8126 19.0685 22.1551 19.0685 21.4154V15.1688H18.9863ZM17.3425 21.1688H7.39725V15.7442C8.71232 14.4291 10.5205 13.7715 12.411 13.7715C14.2192 13.6894 16.0274 14.4291 17.3425 15.7442V21.1688Z" fill="black"/>
</svg>
