<svg width="179" height="253" viewBox="0 0 179 253" fill="none" xmlns="http://www.w3.org/2000/svg">
<g filter="url(#filter0_d_1458_1370)">
<rect x="14" y="21" width="151" height="224.312" fill="#E8E8E8"/>
</g>
<path d="M138.045 139.687L37.4744 139.822L37.5714 206.609L138.142 206.474L138.045 139.687Z" fill="url(#paint0_linear_1458_1370)"/>
<g opacity="0.7">
<path opacity="0.7" d="M144.365 136.005L33.6831 136.152C31.649 136.155 30.0023 137.742 30.0052 139.698L30.1034 206.61C30.1062 208.565 31.7576 210.148 33.7917 210.146L144.473 209.999C146.507 209.996 148.154 208.408 148.151 206.453L148.053 139.541C148.05 137.585 146.399 136.002 144.365 136.005Z" fill="url(#paint1_linear_1458_1370)"/>
</g>
<path d="M143.519 136.621L34.7397 136.767C32.7055 136.769 31.0588 138.357 31.0617 140.312L31.1569 205.861C31.1597 207.816 32.811 209.399 34.8451 209.397L143.625 209.251C145.659 209.248 147.306 207.66 147.303 205.705L147.208 140.156C147.205 138.201 145.553 136.618 143.519 136.621Z" fill="#0D0D0D"/>
<path d="M36.1308 175.967C37.6156 175.965 38.8177 174.806 38.8156 173.379C38.8135 171.951 37.6081 170.795 36.1233 170.797C34.6384 170.799 33.4364 171.958 33.4384 173.386C33.4405 174.813 34.6459 175.969 36.1308 175.967Z" fill="#0D0D0D"/>
<g opacity="0.1">
<path opacity="0.1" d="M36.131 175.967C37.6158 175.965 38.8179 174.806 38.8158 173.378C38.8138 171.951 37.6084 170.795 36.1235 170.797C34.6387 170.799 33.4366 171.958 33.4387 173.386C33.4407 174.813 34.6461 175.969 36.131 175.967Z" fill="black"/>
</g>
<path d="M142.579 163.072C143.074 163.071 143.474 162.685 143.473 162.209C143.473 161.734 143.071 161.349 142.576 161.349C142.082 161.35 141.681 161.736 141.682 162.212C141.683 162.687 142.084 163.072 142.579 163.072Z" fill="#0D0D0D"/>
<path d="M142.935 166.518L142.411 166.519C142.308 166.519 142.225 166.599 142.225 166.698L142.241 177.54C142.241 177.639 142.324 177.719 142.427 177.719L142.951 177.718C143.054 177.718 143.137 177.638 143.137 177.539L143.121 166.697C143.121 166.598 143.037 166.518 142.935 166.518Z" fill="#0D0D0D"/>
<g opacity="0.1">
<path opacity="0.1" d="M142.935 166.519L142.411 166.52C142.308 166.52 142.225 166.6 142.225 166.699L142.237 177.541C142.237 177.64 142.32 177.72 142.423 177.72L142.947 177.719C143.05 177.719 143.133 177.638 143.133 177.54L143.121 166.697C143.121 166.598 143.037 166.518 142.935 166.519Z" fill="black"/>
</g>
<g opacity="0.1">
<path opacity="0.1" d="M142.578 163.072C143.073 163.072 143.474 162.685 143.473 162.21C143.473 161.734 143.071 161.349 142.576 161.35C142.082 161.351 141.681 161.737 141.682 162.213C141.682 162.688 142.084 163.073 142.578 163.072Z" fill="black"/>
</g>
<path d="M124.261 204.45H40.9733V142.207H138.18V195.971L138.124 204.36L124.261 204.45Z" fill="white"/>
<g opacity="0.7">
<path opacity="0.7" d="M138.18 163.753H40.9733V164.611H138.18V163.753Z" fill="#E0E0E0"/>
</g>
<g opacity="0.7">
<path opacity="0.7" d="M138.18 159.129H40.9733V159.986H138.18V159.129Z" fill="#E0E0E0"/>
</g>
<g opacity="0.7">
<path opacity="0.7" d="M138.18 154.504H40.9733V155.362H138.18V154.504Z" fill="#E0E0E0"/>
</g>
<g opacity="0.7">
<path opacity="0.7" d="M138.18 149.879H40.9733V150.737H138.18V149.879Z" fill="#E0E0E0"/>
</g>
<g opacity="0.7">
<path opacity="0.7" d="M138.18 145.255H40.9733V146.113H138.18V145.255Z" fill="#E0E0E0"/>
</g>
<g opacity="0.7">
<path opacity="0.7" d="M138.18 168.379H40.9733V169.236H138.18V168.379Z" fill="#E0E0E0"/>
</g>
<g opacity="0.7">
<path opacity="0.7" d="M138.18 173.006H40.9733V173.864H138.18V173.006Z" fill="#E0E0E0"/>
</g>
<g opacity="0.7">
<path opacity="0.7" d="M138.18 177.633H40.9733V178.49H138.18V177.633Z" fill="#E0E0E0"/>
</g>
<g opacity="0.7">
<path opacity="0.7" d="M138.18 182.26H40.9733V183.117H138.18V182.26Z" fill="#E0E0E0"/>
</g>
<g opacity="0.7">
<path opacity="0.7" d="M138.18 186.886H40.9733V187.743H138.18V186.886Z" fill="#E0E0E0"/>
</g>
<g opacity="0.7">
<path opacity="0.7" d="M138.18 191.513H40.9733V192.37H138.18V191.513Z" fill="#E0E0E0"/>
</g>
<g opacity="0.7">
<path opacity="0.7" d="M138.163 196.14H40.9722V196.998H138.163V196.14Z" fill="#E0E0E0"/>
</g>
<g opacity="0.7">
<path opacity="0.7" d="M138.089 200.767H40.9733V201.624H138.089V200.767Z" fill="#E0E0E0"/>
</g>
<path d="M53.3204 146.109H52.647V204.45H53.3204V146.109Z" fill="#E0E0E0"/>
<path d="M68.1936 146.109H67.5201V204.45H68.1936V146.109Z" fill="#E0E0E0"/>
<path d="M83.0666 146.109H82.3932V204.45H83.0666V146.109Z" fill="#E0E0E0"/>
<path d="M97.9397 146.109H97.2662V204.45H97.9397V146.109Z" fill="#E0E0E0"/>
<path d="M112.813 146.109H112.139V204.45H112.813V146.109Z" fill="#E0E0E0"/>
<path d="M127.686 204.45H127.012V146.108L127.686 146.081V204.45Z" fill="#E0E0E0"/>
<path d="M82.445 178.453H68.144V182.202H82.445V178.453Z" fill="black"/>
<path d="M67.2342 196.951H52.9332V200.701H67.2342V196.951Z" fill="black"/>
<path d="M112.217 191.952H97.9163V195.701H112.217V191.952Z" fill="black"/>
<path d="M127.061 164.579H112.76V168.329H127.061V164.579Z" fill="black"/>
<path d="M127.168 183.078H112.867V186.827H127.168V183.078Z" fill="black"/>
<path d="M82.6896 150.706H68.3887V154.455H82.6896V150.706Z" fill="black"/>
<path d="M97.396 168.904H83.0951V172.654H97.396V168.904Z" fill="black"/>
<path d="M67.4938 164.916H53.1929V168.666H67.4938V164.916Z" fill="black"/>
<path d="M31.5774 61.8189H33.0511C33.0298 60.5227 31.9645 59.6278 30.3452 59.6278C28.7507 59.6278 27.5824 60.5085 27.5895 61.8295C27.5859 62.902 28.3423 63.5163 29.571 63.8111L30.3629 64.0099C31.1548 64.2017 31.5952 64.429 31.5987 64.919C31.5952 65.4517 31.0909 65.8139 30.3097 65.8139C29.5107 65.8139 28.9354 65.4446 28.8857 64.7166H27.3977C27.4368 66.2898 28.5625 67.103 30.3274 67.103C32.103 67.103 33.147 66.2543 33.1506 64.9226C33.147 63.7116 32.2344 63.0689 30.9702 62.7848L30.3168 62.6286C29.6847 62.483 29.1555 62.2486 29.1662 61.7266C29.1662 61.2578 29.5817 60.9134 30.3345 60.9134C31.0696 60.9134 31.5206 61.2472 31.5774 61.8189ZM37.0577 61.5455H36.0314V60.2386H34.5186V61.5455H33.7729V62.6818H34.5186V65.5227C34.5115 66.5916 35.2395 67.1207 36.3368 67.0746C36.7275 67.0604 37.0044 66.9822 37.1571 66.9325L36.9192 65.8068C36.8446 65.821 36.6848 65.8565 36.5428 65.8565C36.2409 65.8565 36.0314 65.7429 36.0314 65.3239V62.6818H37.0577V61.5455ZM40.449 67.1065C42.1039 67.1065 43.1337 65.9737 43.1337 64.294C43.1337 62.6037 42.1039 61.4744 40.449 61.4744C38.7942 61.4744 37.7644 62.6037 37.7644 64.294C37.7644 65.9737 38.7942 67.1065 40.449 67.1065ZM40.4561 65.9347C39.6926 65.9347 39.302 65.2351 39.302 64.2834C39.302 63.3317 39.6926 62.6286 40.4561 62.6286C41.2054 62.6286 41.5961 63.3317 41.5961 64.2834C41.5961 65.2351 41.2054 65.9347 40.4561 65.9347ZM44.1174 69.0455H45.6301V66.1264H45.6763C45.8858 66.581 46.3439 67.0888 47.2246 67.0888C48.4675 67.0888 49.437 66.1051 49.437 64.2798C49.437 62.4048 48.4249 61.4744 47.2282 61.4744C46.3155 61.4744 45.8787 62.0178 45.6763 62.4616H45.6088V61.5455H44.1174V69.0455ZM45.5982 64.2727C45.5982 63.2997 46.0101 62.6783 46.7452 62.6783C47.4945 62.6783 47.8922 63.3281 47.8922 64.2727C47.8922 65.2244 47.4874 65.8849 46.7452 65.8849C46.0172 65.8849 45.5982 65.2457 45.5982 64.2727ZM55.6612 61.5455H54.6349V60.2386H53.1222V61.5455H52.3764V62.6818H53.1222V65.5227C53.1151 66.5916 53.843 67.1207 54.9403 67.0746C55.331 67.0604 55.608 66.9822 55.7607 66.9325L55.5227 65.8068C55.4482 65.821 55.2884 65.8565 55.1463 65.8565C54.8445 65.8565 54.6349 65.7429 54.6349 65.3239V62.6818H55.6612V61.5455ZM58.2766 63.8466C58.2802 63.1435 58.7099 62.7315 59.3278 62.7315C59.9421 62.7315 60.3043 63.1257 60.3008 63.7969V67H61.8136V63.527C61.8171 62.2486 61.0643 61.4744 59.9279 61.4744C59.1005 61.4744 58.5465 61.8651 58.2979 62.5078H58.234V59.7273H56.7638V67H58.2766V63.8466ZM65.4899 67.1065C66.8393 67.1065 67.7484 66.4496 67.9615 65.4375L66.5623 65.3452C66.4096 65.7607 66.019 65.9773 65.5147 65.9773C64.7583 65.9773 64.2789 65.4766 64.2789 64.6634V64.6598H67.9934V64.2443C67.9934 62.3906 66.8713 61.4744 65.4295 61.4744C63.8244 61.4744 62.7839 62.6143 62.7839 64.2976C62.7839 66.027 63.8102 67.1065 65.4899 67.1065ZM64.2789 63.7223C64.3109 63.1009 64.7832 62.6037 65.4544 62.6037C66.1113 62.6037 66.5659 63.0724 66.5694 63.7223H64.2789ZM71.3235 67H72.815V66.1264H72.8825C73.092 66.581 73.5501 67.0888 74.4308 67.0888C75.6737 67.0888 76.6431 66.1051 76.6431 64.2798C76.6431 62.4048 75.631 61.4744 74.4343 61.4744C73.5217 61.4744 73.0849 62.0178 72.8825 62.4616H72.8363V59.7273H71.3235V67ZM72.8043 64.2727C72.8043 63.2997 73.2163 62.6783 73.9513 62.6783C74.7006 62.6783 75.0984 63.3281 75.0984 64.2727C75.0984 65.2244 74.6935 65.8849 73.9513 65.8849C73.2234 65.8849 72.8043 65.2457 72.8043 64.2727ZM79.2079 67.103C80.014 67.103 80.536 66.7514 80.8024 66.2436H80.845V67H82.2797V63.321C82.2797 62.0213 81.1788 61.4744 79.9643 61.4744C78.6575 61.4744 77.7981 62.0994 77.5886 63.0938L78.9877 63.2074C79.0907 62.8452 79.4139 62.5788 79.9572 62.5788C80.4721 62.5788 80.7669 62.8381 80.7669 63.2855V63.3068C80.7669 63.6584 80.394 63.7045 79.4458 63.7969C78.3663 63.8963 77.3968 64.2585 77.3968 65.4766C77.3968 66.5561 78.1674 67.103 79.2079 67.103ZM79.6412 66.0589C79.176 66.0589 78.8422 65.8423 78.8422 65.4268C78.8422 65.0007 79.1937 64.7912 79.7264 64.7166C80.0566 64.6705 80.5964 64.5923 80.7775 64.4716V65.0504C80.7775 65.6222 80.3052 66.0589 79.6412 66.0589ZM83.4533 67H84.9661V63.9141C84.9661 63.2429 85.4561 62.7812 86.1238 62.7812C86.3333 62.7812 86.6209 62.8168 86.763 62.8629V61.5206C86.628 61.4886 86.4398 61.4673 86.2871 61.4673C85.6763 61.4673 85.1756 61.8224 84.9767 62.4972H84.9199V61.5455H83.4533V67ZM87.5451 67H89.0579V63.9141C89.0579 63.2429 89.5479 62.7812 90.2156 62.7812C90.4251 62.7812 90.7127 62.8168 90.8548 62.8629V61.5206C90.7198 61.4886 90.5316 61.4673 90.3789 61.4673C89.7681 61.4673 89.2674 61.8224 89.0685 62.4972H89.0117V61.5455H87.5451V67ZM93.036 67.103C93.8422 67.103 94.3642 66.7514 94.6305 66.2436H94.6731V67H96.1078V63.321C96.1078 62.0213 95.0069 61.4744 93.7924 61.4744C92.4856 61.4744 91.6262 62.0994 91.4167 63.0938L92.8159 63.2074C92.9189 62.8452 93.242 62.5788 93.7853 62.5788C94.3002 62.5788 94.595 62.8381 94.595 63.2855V63.3068C94.595 63.6584 94.2221 63.7045 93.274 63.7969C92.1944 63.8963 91.225 64.2585 91.225 65.4766C91.225 66.5561 91.9956 67.103 93.036 67.103ZM93.4693 66.0589C93.0041 66.0589 92.6703 65.8423 92.6703 65.4268C92.6703 65.0007 93.0218 64.7912 93.5545 64.7166C93.8848 64.6705 94.4245 64.5923 94.6056 64.4716V65.0504C94.6056 65.6222 94.1333 66.0589 93.4693 66.0589ZM99.7388 69.1591C101.298 69.1591 102.406 68.4489 102.406 67.0533V61.5455H100.904V62.4616H100.847C100.644 62.0178 100.2 61.4744 99.2878 61.4744C98.0911 61.4744 97.079 62.4048 97.079 64.2621C97.079 66.0767 98.0627 66.9219 99.2914 66.9219C100.161 66.9219 100.648 66.4851 100.847 66.0341H100.911V67.032C100.911 67.7812 100.431 68.0724 99.7743 68.0724C99.1067 68.0724 98.7694 67.7812 98.6451 67.451L97.2459 67.6392C97.427 68.4986 98.2686 69.1591 99.7388 69.1591ZM99.7708 65.7855C99.0286 65.7855 98.6238 65.196 98.6238 64.255C98.6238 63.3281 99.0215 62.6783 99.7708 62.6783C100.506 62.6783 100.918 63.2997 100.918 64.255C100.918 65.2173 100.499 65.7855 99.7708 65.7855ZM106.095 67.1065C107.445 67.1065 108.354 66.4496 108.567 65.4375L107.168 65.3452C107.015 65.7607 106.624 65.9773 106.12 65.9773C105.364 65.9773 104.884 65.4766 104.884 64.6634V64.6598H108.599V64.2443C108.599 62.3906 107.477 61.4744 106.035 61.4744C104.43 61.4744 103.389 62.6143 103.389 64.2976C103.389 66.027 104.416 67.1065 106.095 67.1065ZM104.884 63.7223C104.916 63.1009 105.389 62.6037 106.06 62.6037C106.717 62.6037 107.171 63.0724 107.175 63.7223H104.884ZM114.365 67.1065C116.02 67.1065 117.05 65.9737 117.05 64.294C117.05 62.6037 116.02 61.4744 114.365 61.4744C112.71 61.4744 111.68 62.6037 111.68 64.294C111.68 65.9737 112.71 67.1065 114.365 67.1065ZM114.372 65.9347C113.609 65.9347 113.218 65.2351 113.218 64.2834C113.218 63.3317 113.609 62.6286 114.372 62.6286C115.121 62.6286 115.512 63.3317 115.512 64.2834C115.512 65.2351 115.121 65.9347 114.372 65.9347ZM120.967 61.5455H119.884V61.1797C119.884 60.8104 120.033 60.5938 120.477 60.5938C120.658 60.5938 120.842 60.6328 120.963 60.6719L121.229 59.5355C121.041 59.4787 120.626 59.3864 120.161 59.3864C119.134 59.3864 118.371 59.9652 118.371 61.1513V61.5455H117.6V62.6818H118.371V67H119.884V62.6818H120.967V61.5455ZM124.234 67H129.148V65.7322H125.771V63.9957H128.882V62.728H125.771V60.995H129.134V59.7273H124.234V67ZM131.593 61.5455H130.03L131.593 64.2727L129.973 67H131.536L132.594 65.1143L133.67 67H135.215L133.592 64.2727L135.172 61.5455H133.62L132.594 63.4524L131.593 61.5455ZM138.33 67.1065C139.782 67.1065 140.695 66.2543 140.766 65.0007H139.338C139.25 65.5831 138.866 65.9098 138.348 65.9098C137.641 65.9098 137.183 65.3168 137.183 64.2727C137.183 63.2429 137.645 62.6534 138.348 62.6534C138.902 62.6534 139.257 63.0192 139.338 63.5625H140.766C140.702 62.3018 139.747 61.4744 138.323 61.4744C136.668 61.4744 135.645 62.6214 135.645 64.294C135.645 65.9524 136.65 67.1065 138.33 67.1065ZM144.22 67.1065C145.57 67.1065 146.479 66.4496 146.692 65.4375L145.293 65.3452C145.14 65.7607 144.749 65.9773 144.245 65.9773C143.489 65.9773 143.009 65.4766 143.009 64.6634V64.6598H146.724V64.2443C146.724 62.3906 145.602 61.4744 144.16 61.4744C142.555 61.4744 141.514 62.6143 141.514 64.2976C141.514 66.027 142.541 67.1065 144.22 67.1065ZM143.009 63.7223C143.041 63.1009 143.514 62.6037 144.185 62.6037C144.842 62.6037 145.296 63.0724 145.3 63.7223H143.009ZM149.224 59.7273H147.711V67H149.224V59.7273ZM31.5774 76.8189H33.0511C33.0298 75.5227 31.9645 74.6278 30.3452 74.6278C28.7507 74.6278 27.5824 75.5085 27.5895 76.8295C27.5859 77.902 28.3423 78.5163 29.571 78.8111L30.3629 79.0099C31.1548 79.2017 31.5952 79.429 31.5987 79.919C31.5952 80.4517 31.0909 80.8139 30.3097 80.8139C29.5107 80.8139 28.9354 80.4446 28.8857 79.7166H27.3977C27.4368 81.2898 28.5625 82.103 30.3274 82.103C32.103 82.103 33.147 81.2543 33.1506 79.9226C33.147 78.7116 32.2344 78.0689 30.9702 77.7848L30.3168 77.6286C29.6847 77.483 29.1555 77.2486 29.1662 76.7266C29.1662 76.2578 29.5817 75.9134 30.3345 75.9134C31.0696 75.9134 31.5206 76.2472 31.5774 76.8189ZM35.6692 78.8466C35.6728 78.1435 36.1025 77.7315 36.7203 77.7315C37.3347 77.7315 37.6969 78.1257 37.6934 78.7969V82H39.2061V78.527C39.2097 77.2486 38.4569 76.4744 37.3205 76.4744C36.4931 76.4744 35.9391 76.8651 35.6905 77.5078H35.6266V74.7273H34.1564V82H35.6692V78.8466ZM42.8825 82.1065C44.2319 82.1065 45.141 81.4496 45.354 80.4375L43.9549 80.3452C43.8022 80.7607 43.4116 80.9773 42.9073 80.9773C42.1509 80.9773 41.6715 80.4766 41.6715 79.6634V79.6598H45.386V79.2443C45.386 77.3906 44.2638 76.4744 42.8221 76.4744C41.217 76.4744 40.1765 77.6143 40.1765 79.2976C40.1765 81.027 41.2028 82.1065 42.8825 82.1065ZM41.6715 78.7223C41.7035 78.1009 42.1758 77.6037 42.8469 77.6037C43.5039 77.6037 43.9585 78.0724 43.962 78.7223H41.6715ZM48.859 82.1065C50.2085 82.1065 51.1175 81.4496 51.3306 80.4375L49.9315 80.3452C49.7788 80.7607 49.3881 80.9773 48.8839 80.9773C48.1275 80.9773 47.6481 80.4766 47.6481 79.6634V79.6598H51.3626V79.2443C51.3626 77.3906 50.2404 76.4744 48.7987 76.4744C47.1935 76.4744 46.1531 77.6143 46.1531 79.2976C46.1531 81.027 47.1793 82.1065 48.859 82.1065ZM47.6481 78.7223C47.68 78.1009 48.1523 77.6037 48.8235 77.6037C49.4805 77.6037 49.935 78.0724 49.9386 78.7223H47.6481ZM55.2511 76.5455H54.2248V75.2386H52.712V76.5455H51.9663V77.6818H52.712V80.5227C52.7049 81.5916 53.4329 82.1207 54.5302 82.0746C54.9208 82.0604 55.1978 81.9822 55.3505 81.9325L55.1126 80.8068C55.038 80.821 54.8782 80.8565 54.7362 80.8565C54.4343 80.8565 54.2248 80.7429 54.2248 80.3239V77.6818H55.2511V76.5455ZM60.1064 82.103C60.9125 82.103 61.4345 81.7514 61.7008 81.2436H61.7434V82H63.1781V78.321C63.1781 77.0213 62.0772 76.4744 60.8627 76.4744C59.5559 76.4744 58.6966 77.0994 58.487 78.0938L59.8862 78.2074C59.9892 77.8452 60.3123 77.5788 60.8556 77.5788C61.3706 77.5788 61.6653 77.8381 61.6653 78.2855V78.3068C61.6653 78.6584 61.2924 78.7045 60.3443 78.7969C59.2647 78.8963 58.2953 79.2585 58.2953 80.4766C58.2953 81.5561 59.0659 82.103 60.1064 82.103ZM60.5396 81.0589C60.0744 81.0589 59.7406 80.8423 59.7406 80.4268C59.7406 80.0007 60.0922 79.7912 60.6248 79.7166C60.9551 79.6705 61.4949 79.5923 61.676 79.4716V80.0504C61.676 80.6222 61.2037 81.0589 60.5396 81.0589ZM67.253 76.5455H66.2267V75.2386H64.714V76.5455H63.9682V77.6818H64.714V80.5227C64.7069 81.5916 65.4348 82.1207 66.5321 82.0746C66.9228 82.0604 67.1998 81.9822 67.3525 81.9325L67.1145 80.8068C67.04 80.821 66.8801 80.8565 66.7381 80.8565C66.4363 80.8565 66.2267 80.7429 66.2267 80.3239V77.6818H67.253V76.5455ZM71.1397 76.5455H70.1135V75.2386H68.6007V76.5455H67.8549V77.6818H68.6007V80.5227C68.5936 81.5916 69.3216 82.1207 70.4189 82.0746C70.8095 82.0604 71.0865 81.9822 71.2392 81.9325L71.0012 80.8068C70.9267 80.821 70.7669 80.8565 70.6248 80.8565C70.323 80.8565 70.1135 80.7429 70.1135 80.3239V77.6818H71.1397V76.5455ZM73.6806 82.103C74.4867 82.103 75.0087 81.7514 75.275 81.2436H75.3176V82H76.7523V78.321C76.7523 77.0213 75.6515 76.4744 74.437 76.4744C73.1301 76.4744 72.2708 77.0994 72.0613 78.0938L73.4604 78.2074C73.5634 77.8452 73.8865 77.5788 74.4299 77.5788C74.9448 77.5788 75.2395 77.8381 75.2395 78.2855V78.3068C75.2395 78.6584 74.8667 78.7045 73.9185 78.7969C72.839 78.8963 71.8695 79.2585 71.8695 80.4766C71.8695 81.5561 72.6401 82.103 73.6806 82.103ZM74.1138 81.0589C73.6486 81.0589 73.3148 80.8423 73.3148 80.4268C73.3148 80.0007 73.6664 79.7912 74.199 79.7166C74.5293 79.6705 75.0691 79.5923 75.2502 79.4716V80.0504C75.2502 80.6222 74.7779 81.0589 74.1138 81.0589ZM80.3904 82.1065C81.8429 82.1065 82.7555 81.2543 82.8265 80.0007H81.399C81.3102 80.5831 80.9267 80.9098 80.4082 80.9098C79.7015 80.9098 79.2434 80.3168 79.2434 79.2727C79.2434 78.2429 79.7051 77.6534 80.4082 77.6534C80.9622 77.6534 81.3173 78.0192 81.399 78.5625H82.8265C82.7626 77.3018 81.8074 76.4744 80.3833 76.4744C78.7285 76.4744 77.7058 77.6214 77.7058 79.294C77.7058 80.9524 78.7108 82.1065 80.3904 82.1065ZM85.3079 78.8466C85.3114 78.1435 85.7411 77.7315 86.359 77.7315C86.9734 77.7315 87.3356 78.1257 87.332 78.7969V82H88.8448V78.527C88.8484 77.2486 88.0955 76.4744 86.9592 76.4744C86.1317 76.4744 85.5778 76.8651 85.3292 77.5078H85.2653V74.7273H83.7951V82H85.3079V78.8466ZM90.0353 82H91.5481V78.7259C91.5481 78.1222 91.9316 77.7209 92.4359 77.7209C92.9331 77.7209 93.2669 78.0618 93.2669 78.598V82H94.7335V78.669C94.7335 78.1044 95.0566 77.7209 95.6071 77.7209C96.09 77.7209 96.4522 78.0227 96.4522 78.63V82H97.9615V78.3317C97.9615 77.1491 97.2583 76.4744 96.2427 76.4744C95.4437 76.4744 94.8223 76.8828 94.5985 77.5078H94.5417C94.3677 76.8757 93.8102 76.4744 93.0609 76.4744C92.3258 76.4744 91.7683 76.8651 91.541 77.5078H91.4771V76.5455H90.0353V82ZM101.642 82.1065C102.992 82.1065 103.901 81.4496 104.114 80.4375L102.715 80.3452C102.562 80.7607 102.171 80.9773 101.667 80.9773C100.911 80.9773 100.431 80.4766 100.431 79.6634V79.6598H104.146V79.2443C104.146 77.3906 103.024 76.4744 101.582 76.4744C99.9767 76.4744 98.9363 77.6143 98.9363 79.2976C98.9363 81.027 99.9625 82.1065 101.642 82.1065ZM100.431 78.7223C100.463 78.1009 100.936 77.6037 101.607 77.6037C102.264 77.6037 102.718 78.0724 102.722 78.7223H100.431ZM106.646 78.8466C106.649 78.1435 107.068 77.7315 107.679 77.7315C108.286 77.7315 108.652 78.1293 108.649 78.7969V82H110.161V78.527C110.161 77.2557 109.416 76.4744 108.279 76.4744C107.47 76.4744 106.884 76.8722 106.639 77.5078H106.575V76.5455H105.133V82H106.646V78.8466ZM114.255 76.5455H113.229V75.2386H111.716V76.5455H110.97V77.6818H111.716V80.5227C111.709 81.5916 112.437 82.1207 113.534 82.0746C113.925 82.0604 114.202 81.9822 114.354 81.9325L114.116 80.8068C114.042 80.821 113.882 80.8565 113.74 80.8565C113.438 80.8565 113.229 80.7429 113.229 80.3239V77.6818H114.255V76.5455ZM119.701 78.1009C119.566 77.0959 118.756 76.4744 117.378 76.4744C115.983 76.4744 115.063 77.1207 115.066 78.1719C115.063 78.9886 115.578 79.5178 116.643 79.7308L117.588 79.919C118.064 80.0149 118.28 80.1889 118.287 80.4624C118.28 80.7855 117.929 81.0163 117.4 81.0163C116.86 81.0163 116.501 80.7855 116.409 80.3416L114.921 80.4197C115.063 81.4638 115.951 82.1065 117.396 82.1065C118.809 82.1065 119.821 81.3857 119.825 80.3097C119.821 79.5213 119.306 79.049 118.248 78.8324L117.261 78.6335C116.753 78.5234 116.565 78.3494 116.569 78.0866C116.565 77.7599 116.934 77.5469 117.403 77.5469C117.929 77.5469 118.241 77.8345 118.316 78.1861L119.701 78.1009ZM123.092 82H124.605V76.5455H123.092V82ZM123.852 75.8423C124.303 75.8423 124.672 75.4979 124.672 75.0753C124.672 74.6562 124.303 74.3118 123.852 74.3118C123.404 74.3118 123.035 74.6562 123.035 75.0753C123.035 75.4979 123.404 75.8423 123.852 75.8423ZM127.329 78.8466C127.333 78.1435 127.752 77.7315 128.363 77.7315C128.97 77.7315 129.336 78.1293 129.332 78.7969V82H130.845V78.527C130.845 77.2557 130.099 76.4744 128.963 76.4744C128.153 76.4744 127.567 76.8722 127.322 77.5078H127.258V76.5455H125.817V82H127.329V78.8466ZM28.5376 99.0455C29.6634 99.0455 30.2599 98.4702 30.5689 97.5895L32.6889 91.5526L31.0874 91.5455L29.9474 95.5511H29.8906L28.7614 91.5455H27.1705L29.1271 97.1562L29.0384 97.3871C28.8395 97.8984 28.4595 97.9233 27.9268 97.7599L27.5859 98.8892C27.8026 98.9815 28.1541 99.0455 28.5376 99.0455ZM35.742 97.1065C37.3968 97.1065 38.4267 95.9737 38.4267 94.294C38.4267 92.6037 37.3968 91.4744 35.742 91.4744C34.0872 91.4744 33.0574 92.6037 33.0574 94.294C33.0574 95.9737 34.0872 97.1065 35.742 97.1065ZM35.7491 95.9347C34.9856 95.9347 34.595 95.2351 34.595 94.2834C34.595 93.3317 34.9856 92.6286 35.7491 92.6286C36.4984 92.6286 36.889 93.3317 36.889 94.2834C36.889 95.2351 36.4984 95.9347 35.7491 95.9347ZM42.9082 94.6776C42.9118 95.4091 42.411 95.7926 41.8677 95.7926C41.296 95.7926 40.9267 95.3913 40.9231 94.7486V91.5455H39.4103V95.0185C39.4139 96.2933 40.1596 97.071 41.2569 97.071C42.0772 97.071 42.6667 96.6484 42.9118 96.0092H42.9686V97H44.421V91.5455H42.9082V94.6776ZM45.631 97H47.1438V93.9141C47.1438 93.2429 47.6339 92.7812 48.3015 92.7812C48.511 92.7812 48.7987 92.8168 48.9407 92.8629V91.5206C48.8058 91.4886 48.6175 91.4673 48.4648 91.4673C47.854 91.4673 47.3533 91.8224 47.1545 92.4972H47.0977V91.5455H45.631V97ZM54.5231 97.1065C55.8725 97.1065 56.7816 96.4496 56.9947 95.4375L55.5955 95.3452C55.4428 95.7607 55.0522 95.9773 54.5479 95.9773C53.7915 95.9773 53.3121 95.4766 53.3121 94.6634V94.6598H57.0266V94.2443C57.0266 92.3906 55.9045 91.4744 54.4627 91.4744C52.8576 91.4744 51.8171 92.6143 51.8171 94.2976C51.8171 96.027 52.8434 97.1065 54.5231 97.1065ZM53.3121 93.7223C53.3441 93.1009 53.8164 92.6037 54.4876 92.6037C55.1445 92.6037 55.5991 93.0724 55.6026 93.7223H53.3121ZM58.0138 97H59.5266V93.7259C59.5266 93.1222 59.9102 92.7209 60.4144 92.7209C60.9116 92.7209 61.2454 93.0618 61.2454 93.598V97H62.712V93.669C62.712 93.1044 63.0352 92.7209 63.5856 92.7209C64.0685 92.7209 64.4308 93.0227 64.4308 93.63V97H65.94V93.3317C65.94 92.1491 65.2369 91.4744 64.2212 91.4744C63.4222 91.4744 62.8008 91.8828 62.5771 92.5078H62.5202C62.3462 91.8757 61.7887 91.4744 61.0394 91.4744C60.3043 91.4744 59.7468 91.8651 59.5195 92.5078H59.4556V91.5455H58.0138V97ZM68.6903 97.103C69.4964 97.103 70.0185 96.7514 70.2848 96.2436H70.3274V97H71.7621V93.321C71.7621 92.0213 70.6612 91.4744 69.4467 91.4744C68.1399 91.4744 67.2805 92.0994 67.071 93.0938L68.4702 93.2074C68.5732 92.8452 68.8963 92.5788 69.4396 92.5788C69.9545 92.5788 70.2493 92.8381 70.2493 93.2855V93.3068C70.2493 93.6584 69.8764 93.7045 68.9283 93.7969C67.8487 93.8963 66.8793 94.2585 66.8793 95.4766C66.8793 96.5561 67.6499 97.103 68.6903 97.103ZM69.1236 96.0589C68.6584 96.0589 68.3246 95.8423 68.3246 95.4268C68.3246 95.0007 68.6761 94.7912 69.2088 94.7166C69.5391 94.6705 70.0788 94.5923 70.2599 94.4716V95.0504C70.2599 95.6222 69.7876 96.0589 69.1236 96.0589ZM72.9357 97H74.4485V91.5455H72.9357V97ZM73.6957 90.8423C74.1467 90.8423 74.516 90.4979 74.516 90.0753C74.516 89.6562 74.1467 89.3118 73.6957 89.3118C73.2482 89.3118 72.8789 89.6562 72.8789 90.0753C72.8789 90.4979 73.2482 90.8423 73.6957 90.8423ZM77.1731 89.7273H75.6603V97H77.1731V89.7273ZM82.9233 93.1009C82.7884 92.0959 81.9787 91.4744 80.6009 91.4744C79.2053 91.4744 78.2855 92.1207 78.2891 93.1719C78.2855 93.9886 78.8004 94.5178 79.8658 94.7308L80.8104 94.919C81.2862 95.0149 81.5028 95.1889 81.5099 95.4624C81.5028 95.7855 81.1513 96.0163 80.6222 96.0163C80.0824 96.0163 79.7237 95.7855 79.6314 95.3416L78.1435 95.4197C78.2855 96.4638 79.1733 97.1065 80.6186 97.1065C82.032 97.1065 83.044 96.3857 83.0476 95.3097C83.044 94.5213 82.5291 94.049 81.4709 93.8324L80.4837 93.6335C79.9759 93.5234 79.7876 93.3494 79.7912 93.0866C79.7876 92.7599 80.157 92.5469 80.6257 92.5469C81.1513 92.5469 81.4638 92.8345 81.5384 93.1861L82.9233 93.1009ZM84.8844 97.0923C85.339 97.0923 85.7331 96.7124 85.7367 96.2401C85.7331 95.7749 85.339 95.3949 84.8844 95.3949C84.4157 95.3949 84.0286 95.7749 84.0321 96.2401C84.0286 96.7124 84.4157 97.0923 84.8844 97.0923Z" fill="#0D0D0D"/>
<defs>
<filter id="filter0_d_1458_1370" x="0" y="0" width="179" height="252.312" filterUnits="userSpaceOnUse" color-interpolation-filters="sRGB">
<feFlood flood-opacity="0" result="BackgroundImageFix"/>
<feColorMatrix in="SourceAlpha" type="matrix" values="0 0 0 0 0 0 0 0 0 0 0 0 0 0 0 0 0 0 127 0" result="hardAlpha"/>
<feOffset dy="-7"/>
<feGaussianBlur stdDeviation="7"/>
<feColorMatrix type="matrix" values="0 0 0 0 0 0 0 0 0 0 0 0 0 0 0 0 0 0 0.25 0"/>
<feBlend mode="normal" in2="BackgroundImageFix" result="effect1_dropShadow_1458_1370"/>
<feBlend mode="normal" in="SourceGraphic" in2="effect1_dropShadow_1458_1370" result="shape"/>
</filter>
<linearGradient id="paint0_linear_1458_1370" x1="37.5229" y1="173.215" x2="138.094" y2="173.069" gradientUnits="userSpaceOnUse">
<stop stop-opacity="0.12"/>
<stop offset="0.55" stop-opacity="0.09"/>
<stop offset="1" stop-opacity="0.02"/>
</linearGradient>
<linearGradient id="paint1_linear_1458_1370" x1="89.0763" y1="210.148" x2="89.0773" y2="136.011" gradientUnits="userSpaceOnUse">
<stop stop-color="#808080" stop-opacity="0.25"/>
<stop offset="0.54" stop-color="#808080" stop-opacity="0.12"/>
<stop offset="1" stop-color="#808080" stop-opacity="0.1"/>
</linearGradient>
</defs>
</svg>
