<svg width="173" height="247" viewBox="0 0 173 247" fill="none" xmlns="http://www.w3.org/2000/svg">
<g filter="url(#filter0_d_436_305)">
<rect x="11" y="18" width="151" height="224.312" fill="#E8E8E8"/>
</g>
<g clip-path="url(#clip0_436_305)">
<g opacity="0.7">
<path opacity="0.7" d="M53.6482 143.349L85.7679 135.609V196.186L53.6482 187.774V143.349Z" fill="url(#paint0_linear_436_305)"/>
<g opacity="0.1">
<path opacity="0.1" d="M53.6482 143.349L85.7679 135.609V196.186L53.6482 187.774V143.349Z" fill="url(#paint1_linear_436_305)"/>
</g>
<path opacity="0.7" d="M117.889 143.349L85.768 135.609V196.186L117.889 187.941V143.349Z" fill="url(#paint2_linear_436_305)"/>
<g opacity="0.17">
<path opacity="0.17" d="M117.889 143.349L85.768 135.609V196.186L117.889 187.941V143.349Z" fill="url(#paint3_linear_436_305)"/>
</g>
<path opacity="0.7" d="M85.7679 135.609L69.1197 121.811L37 130.057L53.6482 143.349L85.7679 135.609Z" fill="url(#paint4_linear_436_305)"/>
<path opacity="0.7" d="M134.369 130.224L117.889 143.349L85.768 135.609L102.081 121.811L134.369 130.224Z" fill="url(#paint5_linear_436_305)"/>
<g opacity="0.05">
<path opacity="0.05" d="M134.369 130.224L117.889 143.349L85.768 135.609L102.081 121.811L134.369 130.224Z" fill="url(#paint6_linear_436_305)"/>
</g>
<g opacity="0.5">
<path opacity="0.5" d="M86.3476 128.607H108.994C109.324 128.607 109.591 128.875 109.591 129.205V150.02C109.591 150.35 109.324 150.618 108.994 150.618H86.3476C86.0179 150.618 85.7507 150.35 85.7507 150.02V129.205C85.7507 128.875 86.0179 128.607 86.3476 128.607Z" fill="url(#paint7_linear_436_305)"/>
</g>
<path opacity="0.7" d="M86.6064 128.777H108.704C109.034 128.777 109.301 129.045 109.301 129.375V149.657C109.301 149.987 109.034 150.254 108.704 150.254H86.6064C86.2767 150.254 86.0095 149.987 86.0095 149.657V129.375C86.0095 129.045 86.2767 128.777 86.6064 128.777Z" fill="url(#paint8_linear_436_305)"/>
<path opacity="0.7" d="M104.175 132.315H106.909C107.239 132.315 107.506 132.582 107.506 132.912V135.255C107.506 135.585 107.239 135.852 106.909 135.852H104.175C103.845 135.852 103.578 135.585 103.578 135.255V132.912C103.578 132.582 103.845 132.315 104.175 132.315Z" fill="url(#paint9_linear_436_305)"/>
<path opacity="0.7" d="M86.8916 132.315H102.294C102.353 132.315 102.4 132.362 102.4 132.421V132.601C102.4 132.66 102.353 132.708 102.294 132.708H86.8916C86.833 132.708 86.7855 132.66 86.7855 132.601V132.421C86.7855 132.362 86.833 132.315 86.8916 132.315Z" fill="url(#paint10_linear_436_305)"/>
<path opacity="0.7" d="M86.8916 133.493H102.294C102.353 133.493 102.4 133.541 102.4 133.6V133.78C102.4 133.839 102.353 133.886 102.294 133.886H86.8916C86.833 133.886 86.7855 133.839 86.7855 133.78V133.6C86.7855 133.541 86.833 133.493 86.8916 133.493Z" fill="url(#paint11_linear_436_305)"/>
<path opacity="0.7" d="M86.8916 137.774H107.793C107.851 137.774 107.899 137.822 107.899 137.88V138.061C107.899 138.12 107.851 138.167 107.793 138.167H86.8916C86.833 138.167 86.7854 138.12 86.7854 138.061V137.88C86.7854 137.822 86.833 137.774 86.8916 137.774Z" fill="url(#paint12_linear_436_305)"/>
<path opacity="0.7" d="M86.8916 138.953H107.793C107.851 138.953 107.899 139 107.899 139.059V139.24C107.899 139.298 107.851 139.346 107.793 139.346H86.8916C86.833 139.346 86.7854 139.298 86.7854 139.24V139.059C86.7854 139 86.833 138.953 86.8916 138.953Z" fill="url(#paint13_linear_436_305)"/>
<path opacity="0.7" d="M86.8916 140.525H107.793C107.851 140.525 107.899 140.572 107.899 140.631V140.811C107.899 140.87 107.851 140.918 107.793 140.918H86.8916C86.833 140.918 86.7854 140.87 86.7854 140.811V140.631C86.7854 140.572 86.833 140.525 86.8916 140.525Z" fill="url(#paint14_linear_436_305)"/>
<path opacity="0.7" d="M95.8285 141.705H107.793C107.851 141.705 107.899 141.752 107.899 141.811V141.991C107.899 142.05 107.851 142.097 107.793 142.097H95.8285C95.7699 142.097 95.7224 142.05 95.7224 141.991V141.811C95.7224 141.752 95.7699 141.705 95.8285 141.705Z" fill="url(#paint15_linear_436_305)"/>
<path opacity="0.7" d="M86.8916 143.272H107.793C107.851 143.272 107.899 143.32 107.899 143.378V143.559C107.899 143.618 107.851 143.665 107.793 143.665H86.8916C86.833 143.665 86.7854 143.618 86.7854 143.559V143.378C86.7854 143.32 86.833 143.272 86.8916 143.272Z" fill="url(#paint16_linear_436_305)"/>
<path opacity="0.7" d="M86.8916 144.451H107.793C107.851 144.451 107.899 144.498 107.899 144.557V144.737C107.899 144.796 107.851 144.844 107.793 144.844H86.8916C86.833 144.844 86.7854 144.796 86.7854 144.737V144.557C86.7854 144.498 86.833 144.451 86.8916 144.451Z" fill="url(#paint17_linear_436_305)"/>
<path opacity="0.7" d="M86.8916 146.024H107.793C107.851 146.024 107.899 146.071 107.899 146.13V146.31C107.899 146.369 107.851 146.417 107.793 146.417H86.8916C86.833 146.417 86.7854 146.369 86.7854 146.31V146.13C86.7854 146.071 86.833 146.024 86.8916 146.024Z" fill="url(#paint18_linear_436_305)"/>
<path opacity="0.7" d="M95.8285 147.202H107.793C107.851 147.202 107.899 147.25 107.899 147.309V147.489C107.899 147.548 107.851 147.595 107.793 147.595H95.8285C95.7699 147.595 95.7224 147.548 95.7224 147.489V147.309C95.7224 147.25 95.7699 147.202 95.8285 147.202Z" fill="url(#paint19_linear_436_305)"/>
<g opacity="0.5">
<path opacity="0.5" d="M82.7501 133.693H105.397C105.727 133.693 105.994 133.96 105.994 134.29V155.106C105.994 155.436 105.727 155.703 105.397 155.703H82.7501C82.4204 155.703 82.1532 155.436 82.1532 155.106V134.29C82.1532 133.96 82.4204 133.693 82.7501 133.693Z" fill="url(#paint20_linear_436_305)"/>
</g>
<path opacity="0.7" d="M83.0086 133.864H105.106C105.436 133.864 105.703 134.131 105.703 134.461V154.743C105.703 155.073 105.436 155.341 105.106 155.341H83.0086C82.679 155.341 82.4117 155.073 82.4117 154.743V134.461C82.4117 134.131 82.679 133.864 83.0086 133.864Z" fill="url(#paint21_linear_436_305)"/>
<path opacity="0.7" d="M100.578 137.401H103.312C103.641 137.401 103.909 137.669 103.909 137.999V140.341C103.909 140.671 103.641 140.939 103.312 140.939H100.578C100.248 140.939 99.9807 140.671 99.9807 140.341V137.999C99.9807 137.669 100.248 137.401 100.578 137.401Z" fill="url(#paint22_linear_436_305)"/>
<path opacity="0.7" d="M83.2927 137.401H98.6953C98.7539 137.401 98.8014 137.449 98.8014 137.508V137.688C98.8014 137.747 98.7539 137.794 98.6953 137.794H83.2927C83.2341 137.794 83.1866 137.747 83.1866 137.688V137.508C83.1866 137.449 83.2341 137.401 83.2927 137.401Z" fill="url(#paint23_linear_436_305)"/>
<path opacity="0.7" d="M83.2927 138.58H98.6953C98.7539 138.58 98.8014 138.627 98.8014 138.686V138.867C98.8014 138.925 98.7539 138.973 98.6953 138.973H83.2927C83.2341 138.973 83.1866 138.925 83.1866 138.867V138.686C83.1866 138.627 83.2341 138.58 83.2927 138.58Z" fill="url(#paint24_linear_436_305)"/>
<path opacity="0.7" d="M83.2941 142.859H104.195C104.254 142.859 104.301 142.907 104.301 142.965V143.146C104.301 143.204 104.254 143.252 104.195 143.252H83.2941C83.2354 143.252 83.1879 143.204 83.1879 143.146V142.965C83.1879 142.907 83.2354 142.859 83.2941 142.859Z" fill="url(#paint25_linear_436_305)"/>
<path opacity="0.7" d="M83.2941 144.039H104.195C104.254 144.039 104.301 144.087 104.301 144.145V144.326C104.301 144.385 104.254 144.432 104.195 144.432H83.2941C83.2354 144.432 83.1879 144.385 83.1879 144.326V144.145C83.1879 144.087 83.2354 144.039 83.2941 144.039Z" fill="url(#paint26_linear_436_305)"/>
<path opacity="0.7" d="M83.2941 145.611H104.195C104.254 145.611 104.301 145.659 104.301 145.717V145.898C104.301 145.956 104.254 146.004 104.195 146.004H83.2941C83.2354 146.004 83.1879 145.956 83.1879 145.898V145.717C83.1879 145.659 83.2354 145.611 83.2941 145.611Z" fill="url(#paint27_linear_436_305)"/>
<path opacity="0.7" d="M92.231 146.79H104.195C104.254 146.79 104.301 146.837 104.301 146.896V147.076C104.301 147.135 104.254 147.182 104.195 147.182H92.231C92.1724 147.182 92.1249 147.135 92.1249 147.076V146.896C92.1249 146.837 92.1724 146.79 92.231 146.79Z" fill="url(#paint28_linear_436_305)"/>
<path opacity="0.7" d="M83.2941 148.359H104.195C104.254 148.359 104.301 148.406 104.301 148.465V148.645C104.301 148.704 104.254 148.752 104.195 148.752H83.2941C83.2354 148.752 83.1879 148.704 83.1879 148.645V148.465C83.1879 148.406 83.2354 148.359 83.2941 148.359Z" fill="url(#paint29_linear_436_305)"/>
<path opacity="0.7" d="M83.2941 149.537H104.195C104.254 149.537 104.301 149.585 104.301 149.644V149.824C104.301 149.883 104.254 149.93 104.195 149.93H83.2941C83.2354 149.93 83.1879 149.883 83.1879 149.824V149.644C83.1879 149.585 83.2354 149.537 83.2941 149.537Z" fill="url(#paint30_linear_436_305)"/>
<path opacity="0.7" d="M83.2941 151.11H104.195C104.254 151.11 104.301 151.158 104.301 151.217V151.397C104.301 151.456 104.254 151.503 104.195 151.503H83.2941C83.2354 151.503 83.1879 151.456 83.1879 151.397V151.217C83.1879 151.158 83.2354 151.11 83.2941 151.11Z" fill="url(#paint31_linear_436_305)"/>
<path opacity="0.7" d="M92.231 152.289H104.195C104.254 152.289 104.301 152.336 104.301 152.395V152.576C104.301 152.634 104.254 152.682 104.195 152.682H92.231C92.1724 152.682 92.1249 152.634 92.1249 152.576V152.395C92.1249 152.336 92.1724 152.289 92.231 152.289Z" fill="url(#paint32_linear_436_305)"/>
<g opacity="0.5">
<path opacity="0.5" d="M71.4731 136.541H92.1301V160.826H71.4731V136.541Z" fill="url(#paint33_linear_436_305)"/>
</g>
<path opacity="0.7" d="M71.9122 136.933H91.4948V160.29H71.9122V136.933Z" fill="url(#paint34_linear_436_305)"/>
<g opacity="0.5">
<path opacity="0.5" d="M80.6369 140.647V140.06H82.766V140.647H84.2637V143.528H79.1432V140.647H80.6369ZM82.5007 140.271H80.9088V140.644H82.5007V140.271Z" fill="url(#paint35_linear_436_305)"/>
</g>
<path opacity="0.7" d="M79.3593 140.743H84.0474V143.382H79.3593V140.743Z" fill="url(#paint36_linear_436_305)"/>
<path opacity="0.7" d="M82.6798 140.206V140.891H82.4357V140.403H80.9712V140.891H80.7271V140.206H82.6798Z" fill="url(#paint37_linear_436_305)"/>
<path opacity="0.7" d="M74.7935 147.18H88.5645V147.767H74.7935V147.18Z" fill="url(#paint38_linear_436_305)"/>
<path opacity="0.7" d="M74.7935 151.04H88.5645V151.626H74.7935V151.04Z" fill="url(#paint39_linear_436_305)"/>
<path opacity="0.7" d="M74.7935 152.066H88.5645V152.653H74.7935V152.066Z" fill="url(#paint40_linear_436_305)"/>
<path opacity="0.7" d="M82.7528 150.014H88.5645V150.601H82.7528V150.014Z" fill="url(#paint41_linear_436_305)"/>
<g opacity="0.6">
<path opacity="0.6" d="M74.7934 150.014H79.1392V150.601H74.7934V150.014Z" fill="url(#paint42_linear_436_305)"/>
</g>
<path opacity="0.7" d="M79.3847 154.46H83.7305V155.047H79.3847V154.46Z" fill="url(#paint43_linear_436_305)"/>
<path opacity="0.7" d="M117.889 143.349V187.941L85.768 196.186V151.932L117.889 143.349Z" fill="url(#paint44_linear_436_305)"/>
<path opacity="0.7" d="M53.6482 187.773L85.7679 196.186V151.932L53.6482 143.349V187.773Z" fill="url(#paint45_linear_436_305)"/>
<g opacity="0.07">
<path opacity="0.07" d="M53.6482 187.773L85.7679 196.186V151.932L53.6482 143.349V187.773Z" fill="url(#paint46_linear_436_305)"/>
</g>
<g opacity="0.07">
<path opacity="0.07" d="M66.4294 172.965V187.605L53.6482 184.071V169.432L66.4294 172.965Z" fill="url(#paint47_linear_436_305)"/>
</g>
<path opacity="0.7" d="M60.9854 139.63H70.4583V148.737H60.9854V139.63Z" fill="url(#paint48_linear_436_305)"/>
<path opacity="0.7" d="M61.134 139.853H70.3097V148.551H61.134V139.853Z" fill="url(#paint49_linear_436_305)"/>
<g opacity="0.5">
<path opacity="0.5" d="M64.9106 141.378V140.935H66.5329V141.381H67.6698V143.573H63.7737V141.378H64.9106ZM66.33 141.094H65.1122V141.378H66.33V141.094Z" fill="url(#paint50_linear_436_305)"/>
</g>
<g opacity="0.6">
<path opacity="0.6" d="M63.9396 141.452H67.5054V143.459H63.9396V141.452Z" fill="url(#paint51_linear_436_305)"/>
</g>
<g opacity="0.6">
<path opacity="0.6" d="M66.4655 141.042V141.564H66.2784V141.192H65.1641V141.564H64.9784V141.042H66.4655Z" fill="url(#paint52_linear_436_305)"/>
</g>
<g opacity="0.6">
<path opacity="0.6" d="M63.9953 145.02H67.301V145.466H63.9953V145.02Z" fill="url(#paint53_linear_436_305)"/>
</g>
<path opacity="0.7" d="M62.8983 145.838H68.5454V146.284H62.8983V145.838Z" fill="url(#paint54_linear_436_305)"/>
<g opacity="0.5">
<path opacity="0.5" d="M80.6423 111.791H92.9155V121.879H80.6423V111.791Z" fill="url(#paint55_linear_436_305)"/>
</g>
<path opacity="0.7" d="M80.808 111.982H92.7721V121.712H80.808V111.982Z" fill="url(#paint56_linear_436_305)"/>
<path opacity="0.7" d="M80.808 111.982H92.7721V114.152H80.808V111.982Z" fill="url(#paint57_linear_436_305)"/>
<g opacity="0.1">
<path opacity="0.1" d="M80.808 111.982H92.7721V114.152H80.808V111.982Z" fill="url(#paint58_linear_436_305)"/>
</g>
<path opacity="0.7" d="M81.7605 114.939H91.8184V116.203H81.7605V114.939Z" fill="url(#paint59_linear_436_305)"/>
<path opacity="0.7" d="M84.4772 117.157H91.8184V117.586H84.4772V117.157Z" fill="url(#paint60_linear_436_305)"/>
<path opacity="0.7" d="M87.0521 117.897H91.8184V118.326H87.0521V117.897Z" fill="url(#paint61_linear_436_305)"/>
<path opacity="0.7" d="M85.5265 118.636H91.8184V119.065H85.5265V118.636Z" fill="url(#paint62_linear_436_305)"/>
<path opacity="0.7" d="M84.4772 119.374H91.8184V119.803H84.4772V119.374Z" fill="url(#paint63_linear_436_305)"/>
<path opacity="0.7" d="M89.3642 120.114H91.8184V120.542H89.3642V120.114Z" fill="url(#paint64_linear_436_305)"/>
<g opacity="0.5">
<path opacity="0.5" d="M59.6575 119.366H74.8704V131.869H59.6575V119.366Z" fill="url(#paint65_linear_436_305)"/>
</g>
<path opacity="0.7" d="M59.8631 119.603H74.6926V131.662H59.8631V119.603Z" fill="url(#paint66_linear_436_305)"/>
<path opacity="0.7" d="M59.8631 119.603H74.6926V122.292H59.8631V119.603Z" fill="url(#paint67_linear_436_305)"/>
<path opacity="0.7" d="M61.0464 123.267H73.512V124.834H61.0464V123.267Z" fill="url(#paint68_linear_436_305)"/>
<path opacity="0.7" d="M64.4132 126.016H73.512V126.549H64.4132V126.016Z" fill="url(#paint69_linear_436_305)"/>
<path opacity="0.7" d="M67.6035 126.932H73.512V127.465H67.6035V126.932Z" fill="url(#paint70_linear_436_305)"/>
<path opacity="0.7" d="M65.7132 127.85H73.512V128.382H65.7132V127.85Z" fill="url(#paint71_linear_436_305)"/>
<path opacity="0.7" d="M64.4132 128.765H73.512V129.298H64.4132V128.765Z" fill="url(#paint72_linear_436_305)"/>
<path opacity="0.7" d="M70.4688 129.681H73.512V130.213H70.4688V129.681Z" fill="url(#paint73_linear_436_305)"/>
<path opacity="0.7" d="M69.3175 123.8H72.8621V124.272H69.3175V123.8Z" fill="url(#paint74_linear_436_305)"/>
<g opacity="0.1">
<path opacity="0.1" d="M118.308 166.486L100.315 171.03L85.8529 159.251V152.016L117.973 143.938L118.308 166.486Z" fill="url(#paint75_linear_436_305)"/>
</g>
<g opacity="0.1">
<path opacity="0.1" d="M53.3963 166.486L71.3909 171.03L85.8529 159.251V152.016L53.7332 143.938L53.3963 166.486Z" fill="url(#paint76_linear_436_305)"/>
</g>
<path opacity="0.7" d="M117.889 143.349L134.369 156.98L102.249 165.057L85.768 151.932L117.889 143.349Z" fill="url(#paint77_linear_436_305)"/>
<path opacity="0.7" d="M53.6482 143.349L37 156.98L68.9513 165.057L85.7679 151.932L53.6482 143.349Z" fill="url(#paint78_linear_436_305)"/>
<g opacity="0.07">
<path opacity="0.07" d="M53.6482 143.349L37 156.98L68.9513 165.057L85.7679 151.932L53.6482 143.349Z" fill="url(#paint79_linear_436_305)"/>
</g>
</g>
<path d="M53.5898 142.94L85.4349 135.266V195.325L53.5898 186.984V142.94Z" fill="#2A2A2A"/>
<path opacity="0.1" d="M53.5898 142.94L85.4349 135.266V195.325L53.5898 186.984V142.94Z" fill="#0D0D0D"/>
<path d="M117.279 142.94L85.4351 135.266V195.325L117.279 187.15V142.94Z" fill="#2A2A2A"/>
<path opacity="0.17" d="M117.279 142.675L85.4351 135V195.325L117.279 187.15V142.675Z" fill="#0D0D0D"/>
<path d="M85.7003 135.531L68.9288 121.586L37.0836 129.761L53.8552 143.206L85.7003 135.531Z" fill="#2A2A2A"/>
<path d="M133.353 130.192L117.014 143.206L85.1697 135.531L101.342 121.851L133.353 130.192Z" fill="#2A2A2A"/>
<path opacity="0.05" d="M133.618 129.927L116.881 143.206L85.0372 135.531L101.607 121.586L133.618 129.927Z" fill="#2A2A2A"/>
<g opacity="0.5">
<path opacity="0.5" d="M86.0147 128.323H108.457C108.787 128.323 109.054 128.59 109.054 128.92V149.548C109.054 149.877 108.787 150.145 108.457 150.145H86.0147C85.685 150.145 85.4177 149.877 85.4177 149.548V128.92C85.4177 128.59 85.685 128.323 86.0147 128.323Z" fill="url(#paint80_linear_436_305)"/>
</g>
<path d="M86.2707 128.493H108.168C108.498 128.493 108.765 128.761 108.765 129.091V149.188C108.765 149.518 108.498 149.786 108.168 149.786H86.2707C85.941 149.786 85.6738 149.518 85.6738 149.188V129.091C85.6738 128.761 85.941 128.493 86.2707 128.493Z" fill="#F5F5F5"/>
<path d="M103.688 132H106.389C106.719 132 106.986 132.267 106.986 132.597V134.909C106.986 135.239 106.719 135.507 106.389 135.507H103.688C103.359 135.507 103.091 135.239 103.091 134.909V132.597C103.091 132.267 103.359 132 103.688 132Z" fill="#0D0D0D"/>
<path d="M86.548 132H101.817C101.875 132 101.923 132.047 101.923 132.106V132.284C101.923 132.342 101.875 132.39 101.817 132.39H86.548C86.4894 132.39 86.4419 132.342 86.4419 132.284V132.106C86.4419 132.047 86.4894 132 86.548 132Z" fill="#E0E0E0"/>
<path d="M86.548 133.168H101.817C101.875 133.168 101.923 133.216 101.923 133.274V133.452C101.923 133.511 101.875 133.558 101.817 133.558H86.548C86.4894 133.558 86.4419 133.511 86.4419 133.452V133.274C86.4419 133.216 86.4894 133.168 86.548 133.168Z" fill="#E0E0E0"/>
<path d="M86.548 137.412H107.269C107.327 137.412 107.375 137.459 107.375 137.518V137.696C107.375 137.754 107.327 137.802 107.269 137.802H86.548C86.4894 137.802 86.4419 137.754 86.4419 137.696V137.518C86.4419 137.459 86.4894 137.412 86.548 137.412Z" fill="#E0E0E0"/>
<path d="M86.548 138.581H107.269C107.327 138.581 107.375 138.629 107.375 138.687V138.865C107.375 138.924 107.327 138.972 107.269 138.972H86.548C86.4894 138.972 86.4419 138.924 86.4419 138.865V138.687C86.4419 138.629 86.4894 138.581 86.548 138.581Z" fill="#E0E0E0"/>
<path d="M86.548 140.139H107.269C107.327 140.139 107.375 140.187 107.375 140.245V140.423C107.375 140.482 107.327 140.529 107.269 140.529H86.548C86.4894 140.529 86.4419 140.482 86.4419 140.423V140.245C86.4419 140.187 86.4894 140.139 86.548 140.139Z" fill="#E0E0E0"/>
<path d="M95.4081 141.309H107.269C107.327 141.309 107.375 141.356 107.375 141.415V141.593C107.375 141.652 107.327 141.699 107.269 141.699H95.4081C95.3495 141.699 95.3019 141.652 95.3019 141.593V141.415C95.3019 141.356 95.3495 141.309 95.4081 141.309Z" fill="#E0E0E0"/>
<path d="M86.548 142.863H107.269C107.327 142.863 107.375 142.911 107.375 142.969V143.147C107.375 143.206 107.327 143.253 107.269 143.253H86.548C86.4894 143.253 86.4419 143.206 86.4419 143.147V142.969C86.4419 142.911 86.4894 142.863 86.548 142.863Z" fill="#E0E0E0"/>
<path d="M86.548 144.033H107.269C107.327 144.033 107.375 144.08 107.375 144.139V144.317C107.375 144.375 107.327 144.423 107.269 144.423H86.548C86.4894 144.423 86.4419 144.375 86.4419 144.317V144.139C86.4419 144.08 86.4894 144.033 86.548 144.033Z" fill="#E0E0E0"/>
<path d="M86.548 145.591H107.269C107.327 145.591 107.375 145.638 107.375 145.697V145.875C107.375 145.933 107.327 145.981 107.269 145.981H86.548C86.4894 145.981 86.4419 145.933 86.4419 145.875V145.697C86.4419 145.638 86.4894 145.591 86.548 145.591Z" fill="#E0E0E0"/>
<path d="M95.4081 146.76H107.269C107.327 146.76 107.375 146.808 107.375 146.866V147.044C107.375 147.103 107.327 147.15 107.269 147.15H95.4081C95.3495 147.15 95.3019 147.103 95.3019 147.044V146.866C95.3019 146.808 95.3495 146.76 95.4081 146.76Z" fill="#E0E0E0"/>
<g opacity="0.5">
<path opacity="0.5" d="M82.4477 133.366H104.89C105.22 133.366 105.487 133.634 105.487 133.964V154.591C105.487 154.921 105.22 155.188 104.89 155.188H82.4477C82.118 155.188 81.8507 154.921 81.8507 154.591V133.964C81.8507 133.634 82.118 133.366 82.4477 133.366Z" fill="url(#paint81_linear_436_305)"/>
</g>
<path d="M82.7037 133.536H104.601C104.931 133.536 105.198 133.803 105.198 134.133V154.231C105.198 154.561 104.931 154.828 104.601 154.828H82.7037C82.374 154.828 82.1068 154.561 82.1068 154.231V134.133C82.1068 133.803 82.374 133.536 82.7037 133.536Z" fill="white"/>
<path d="M100.121 137.043H102.822C103.152 137.043 103.419 137.31 103.419 137.64V139.953C103.419 140.282 103.152 140.55 102.822 140.55H100.121C99.7916 140.55 99.5243 140.282 99.5243 139.953V137.64C99.5243 137.31 99.7916 137.043 100.121 137.043Z" fill="#0D0D0D"/>
<path d="M82.981 137.043H98.2496C98.3082 137.043 98.3557 137.091 98.3557 137.149V137.327C98.3557 137.386 98.3082 137.433 98.2496 137.433H82.981C82.9224 137.433 82.8749 137.386 82.8749 137.327V137.149C82.8749 137.091 82.9224 137.043 82.981 137.043Z" fill="#E0E0E0"/>
<path d="M82.981 138.211H98.2496C98.3082 138.211 98.3557 138.259 98.3557 138.317V138.495C98.3557 138.554 98.3082 138.601 98.2496 138.601H82.981C82.9224 138.601 82.8749 138.554 82.8749 138.495V138.317C82.8749 138.259 82.9224 138.211 82.981 138.211Z" fill="#E0E0E0"/>
<path d="M82.9809 142.454H103.702C103.76 142.454 103.808 142.502 103.808 142.56V142.738C103.808 142.797 103.76 142.844 103.702 142.844H82.9809C82.9223 142.844 82.8748 142.797 82.8748 142.738V142.56C82.8748 142.502 82.9223 142.454 82.9809 142.454Z" fill="#E0E0E0"/>
<path d="M82.9809 143.624H103.702C103.76 143.624 103.808 143.671 103.808 143.73V143.908C103.808 143.966 103.76 144.014 103.702 144.014H82.9809C82.9223 144.014 82.8748 143.966 82.8748 143.908V143.73C82.8748 143.671 82.9223 143.624 82.9809 143.624Z" fill="#E0E0E0"/>
<path d="M82.9809 145.182H103.702C103.76 145.182 103.808 145.229 103.808 145.288V145.466C103.808 145.524 103.76 145.572 103.702 145.572H82.9809C82.9223 145.572 82.8748 145.524 82.8748 145.466V145.288C82.8748 145.229 82.9223 145.182 82.9809 145.182Z" fill="#E0E0E0"/>
<path d="M91.8409 146.351H103.702C103.76 146.351 103.808 146.399 103.808 146.458V146.635C103.808 146.694 103.76 146.742 103.702 146.742H91.8409C91.7823 146.742 91.7348 146.694 91.7348 146.635V146.458C91.7348 146.399 91.7823 146.351 91.8409 146.351Z" fill="#E0E0E0"/>
<path d="M82.9809 147.906H103.702C103.76 147.906 103.808 147.953 103.808 148.012V148.19C103.808 148.248 103.76 148.296 103.702 148.296H82.9809C82.9223 148.296 82.8748 148.248 82.8748 148.19V148.012C82.8748 147.953 82.9223 147.906 82.9809 147.906Z" fill="#E0E0E0"/>
<path d="M82.9809 149.075H103.702C103.76 149.075 103.808 149.123 103.808 149.181V149.359C103.808 149.418 103.76 149.465 103.702 149.465H82.9809C82.9223 149.465 82.8748 149.418 82.8748 149.359V149.181C82.8748 149.123 82.9223 149.075 82.9809 149.075Z" fill="#E0E0E0"/>
<path d="M82.9809 150.634H103.702C103.76 150.634 103.808 150.681 103.808 150.74V150.918C103.808 150.976 103.76 151.024 103.702 151.024H82.9809C82.9223 151.024 82.8748 150.976 82.8748 150.918V150.74C82.8748 150.681 82.9223 150.634 82.9809 150.634Z" fill="#E0E0E0"/>
<path d="M91.8409 151.803H103.702C103.76 151.803 103.808 151.85 103.808 151.909V152.087C103.808 152.145 103.76 152.193 103.702 152.193H91.8409C91.7823 152.193 91.7348 152.145 91.7348 152.087V151.909C91.7348 151.85 91.7823 151.803 91.8409 151.803Z" fill="#E0E0E0"/>
<g opacity="0.5">
<path opacity="0.5" d="M71.2607 136.19H91.7413V160.267H71.2607V136.19Z" fill="url(#paint82_linear_436_305)"/>
</g>
<path d="M71.6959 136.578H91.1113V159.735H71.6959V136.578Z" fill="white"/>
<g opacity="0.5">
<path opacity="0.5" d="M80.3465 140.26V139.678H82.4623V140.26H83.9427V143.118H78.866V140.26H80.3465ZM82.2036 139.89H80.6118V140.26H82.2036V139.89Z" fill="url(#paint83_linear_436_305)"/>
</g>
<path d="M79.0796 140.357H83.7278V142.973H79.0796V140.357Z" fill="#0D0D0D"/>
<path d="M82.3721 139.823V140.502H82.1306V140.017H80.6781V140.502H80.4353V139.823H82.3721Z" fill="#0D0D0D"/>
<path d="M74.5534 146.738H88.2063V147.319H74.5534V146.738Z" fill="#E0E0E0"/>
<path d="M74.5534 150.564H88.2063V151.146H74.5534V150.564Z" fill="#E0E0E0"/>
<path d="M74.5534 151.583H88.2063V152.164H74.5534V151.583Z" fill="#E0E0E0"/>
<path d="M82.4451 149.548H88.2063V150.129H82.4451V149.548Z" fill="#E0E0E0"/>
<path opacity="0.6" d="M74.5534 149.548H78.8621V150.129H74.5534V149.548Z" fill="#3AD29F"/>
<path d="M79.1047 153.956H83.4133V154.537H79.1047V153.956Z" fill="#0D0D0D"/>
<path d="M117.279 142.94V187.149L85.4351 195.324L85.0053 151.448L117.279 142.94Z" fill="#2A2A2A"/>
<path d="M53.5898 186.983L85.4349 195.324V151.448L53.5898 142.94V186.983Z" fill="#2A2A2A"/>
<path opacity="0.07" d="M53.5898 186.983L85.4349 195.324V151.448L53.5898 142.94V186.983Z" fill="#2A2A2A"/>
<path opacity="0.07" d="M66.2611 172.303V186.816L53.5899 183.313V168.798L66.2611 172.303Z" fill="#0D0D0D"/>
<path d="M60.8634 139.253H70.2554V148.281H60.8634V139.253Z" fill="url(#paint84_linear_436_305)"/>
<path d="M61.0106 139.473H70.108V148.097H61.0106V139.473Z" fill="#F5F5F5"/>
<g opacity="0.5">
<path opacity="0.5" d="M64.7541 140.985V140.536H66.3633V140.98H67.4895V143.154H63.6279V140.985H64.7541ZM66.1616 140.704H64.9545V140.985H66.1616V140.704Z" fill="url(#paint85_linear_436_305)"/>
</g>
<path opacity="0.6" d="M63.7923 141.058H67.3275V143.048H63.7923V141.058Z" fill="#0D0D0D"/>
<path opacity="0.6" d="M66.2957 140.653V141.17H66.1113V140.801H65.0062V141.17H64.8232V140.653H66.2957Z" fill="#0D0D0D"/>
<g opacity="0.6">
<path opacity="0.6" d="M63.8469 144.597H67.1248V145.039H63.8469V144.597Z" fill="#0D0D0D"/>
</g>
<path d="M62.7603 145.408H68.3583V145.85H62.7603V145.408Z" fill="#BDBDBD"/>
<g opacity="0.5">
<path opacity="0.5" d="M80.3517 111.651H92.5201V121.653H80.3517V111.651Z" fill="url(#paint86_linear_436_305)"/>
</g>
<path d="M80.5162 111.841H92.3782V121.487H80.5162V111.841Z" fill="#F2F2F2"/>
<path d="M80.5162 111.841H92.3782V113.993H80.5162V111.841Z" fill="#0D0D0D"/>
<path opacity="0.1" d="M80.5162 111.841H92.3782V113.993H80.5162V111.841Z" fill="#0D0D0D"/>
<path d="M81.4606 114.774H91.4323V116.027H81.4606V114.774Z" fill="#E0E0E0"/>
<path d="M84.1548 116.972H91.4323V117.398H84.1548V116.972Z" fill="#E0E0E0"/>
<path d="M86.7071 117.705H91.4323V118.131H86.7071V117.705Z" fill="#E0E0E0"/>
<path d="M85.1948 118.437H91.4323V118.863H85.1948V118.437Z" fill="#E0E0E0"/>
<path d="M84.1548 119.171H91.4323V119.597H84.1548V119.171Z" fill="#E0E0E0"/>
<path d="M88.998 119.903H91.4323V120.329H88.998V119.903Z" fill="#E0E0E0"/>
<g opacity="0.5">
<path opacity="0.5" d="M59.5475 119.162H74.6304V131.558H59.5475V119.162Z" fill="url(#paint87_linear_436_305)"/>
</g>
<path d="M59.7517 119.396H74.4539V131.353H59.7517V119.396Z" fill="white"/>
<path d="M59.7517 119.396H74.4539V122.062H59.7517V119.396Z" fill="#0D0D0D"/>
<path d="M60.9231 123.03H73.2826V124.583H60.9231V123.03Z" fill="#F5F5F5"/>
<path d="M64.2621 125.755H73.2826V126.282H64.2621V125.755Z" fill="#E0E0E0"/>
<path d="M67.4245 126.664H73.2826V127.191H67.4245V126.664Z" fill="#E0E0E0"/>
<path d="M65.5514 127.572H73.2826V128.099H65.5514V127.572Z" fill="#E0E0E0"/>
<path d="M64.2621 128.481H73.2826V129.008H64.2621V128.481Z" fill="#E0E0E0"/>
<path d="M70.266 129.389H73.2826V129.916H70.266V129.389Z" fill="#E0E0E0"/>
<path d="M69.1238 123.557H72.6378V124.025H69.1238V123.557Z" fill="#69F0AE"/>
<path opacity="0.1" d="M117.695 165.88L99.8559 170.384L85.5172 158.705V151.532L117.362 143.524L117.695 165.88Z" fill="black"/>
<path opacity="0.1" d="M53.3391 165.88L71.1785 170.384L85.5172 158.705V151.532L53.6721 143.524L53.3391 165.88Z" fill="black"/>
<path d="M117.279 142.94L133.618 156.453L101.774 164.461L85.4351 151.448L117.279 142.94Z" fill="#2A2A2A"/>
<path d="M53.5898 142.94L37.0836 156.453L68.7615 164.461L85.4349 151.448L53.5898 142.94Z" fill="#2A2A2A"/>
<path opacity="0.07" d="M53.5898 142.94L37.0836 156.453L68.7615 164.461L85.4349 151.448L53.5898 142.94Z" fill="#2A2A2A"/>
</g>
<path d="M33.049 70.2734C32.8466 68.5938 31.5753 67.6278 29.892 67.6278C27.9709 67.6278 26.5043 68.9844 26.5043 71.3636C26.5043 73.7358 27.946 75.0994 29.892 75.0994C31.7564 75.0994 32.8821 73.8601 33.049 72.5213L31.4936 72.5142C31.348 73.2919 30.7372 73.7393 29.9169 73.7393C28.8125 73.7393 28.0632 72.919 28.0632 71.3636C28.0632 69.8509 28.8018 68.9879 29.9276 68.9879C30.7692 68.9879 31.3764 69.4744 31.4936 70.2734H33.049ZM36.5877 75.1065C38.2425 75.1065 39.2724 73.9737 39.2724 72.294C39.2724 70.6037 38.2425 69.4744 36.5877 69.4744C34.9329 69.4744 33.9031 70.6037 33.9031 72.294C33.9031 73.9737 34.9329 75.1065 36.5877 75.1065ZM36.5948 73.9347C35.8313 73.9347 35.4407 73.2351 35.4407 72.2834C35.4407 71.3317 35.8313 70.6286 36.5948 70.6286C37.3441 70.6286 37.7347 71.3317 37.7347 72.2834C37.7347 73.2351 37.3441 73.9347 36.5948 73.9347ZM41.7688 71.8466C41.7724 71.1435 42.1914 70.7315 42.8022 70.7315C43.4094 70.7315 43.7752 71.1293 43.7717 71.7969V75H45.2844V71.527C45.2844 70.2557 44.5387 69.4744 43.4023 69.4744C42.5927 69.4744 42.0067 69.8722 41.7617 70.5078H41.6978V69.5455H40.256V75H41.7688V71.8466ZM51.3667 69.5455H49.7651L48.6358 73.4482H48.579L47.4462 69.5455H45.8482L47.7551 75H49.4597L51.3667 69.5455ZM54.4411 75.1065C55.7905 75.1065 56.6996 74.4496 56.9126 73.4375L55.5135 73.3452C55.3608 73.7607 54.9702 73.9773 54.4659 73.9773C53.7095 73.9773 53.2301 73.4766 53.2301 72.6634V72.6598H56.9446V72.2443C56.9446 70.3906 55.8224 69.4744 54.3807 69.4744C52.7756 69.4744 51.7351 70.6143 51.7351 72.2976C51.7351 74.027 52.7614 75.1065 54.4411 75.1065ZM53.2301 71.7223C53.2621 71.1009 53.7344 70.6037 54.4055 70.6037C55.0625 70.6037 55.517 71.0724 55.5206 71.7223H53.2301ZM57.9318 75H59.4446V71.9141C59.4446 71.2429 59.9347 70.7812 60.6023 70.7812C60.8118 70.7812 61.0994 70.8168 61.2415 70.8629V69.5206C61.1065 69.4886 60.9183 69.4673 60.7656 69.4673C60.1548 69.4673 59.6541 69.8224 59.4553 70.4972H59.3984V69.5455H57.9318V75ZM65.1983 69.5455H64.1721V68.2386H62.6593V69.5455H61.9135V70.6818H62.6593V73.5227C62.6522 74.5916 63.3801 75.1207 64.4775 75.0746C64.8681 75.0604 65.1451 74.9822 65.2978 74.9325L65.0598 73.8068C64.9853 73.821 64.8255 73.8565 64.6834 73.8565C64.3816 73.8565 64.1721 73.7429 64.1721 73.3239V70.6818H65.1983V69.5455ZM68.4982 75H70.011V71.9141C70.011 71.2429 70.5011 70.7812 71.1687 70.7812C71.3782 70.7812 71.6658 70.8168 71.8079 70.8629V69.5206C71.6729 69.4886 71.4847 69.4673 71.332 69.4673C70.7212 69.4673 70.2205 69.8224 70.0217 70.4972H69.9648V69.5455H68.4982V75ZM73.9892 75.103C74.7953 75.103 75.3173 74.7514 75.5836 74.2436H75.6262V75H77.0609V71.321C77.0609 70.0213 75.96 69.4744 74.7456 69.4744C73.4387 69.4744 72.5794 70.0994 72.3699 71.0938L73.769 71.2074C73.872 70.8452 74.1951 70.5788 74.7385 70.5788C75.2534 70.5788 75.5481 70.8381 75.5481 71.2855V71.3068C75.5481 71.6584 75.1752 71.7045 74.2271 71.7969C73.1475 71.8963 72.1781 72.2585 72.1781 73.4766C72.1781 74.5561 72.9487 75.103 73.9892 75.103ZM74.4224 74.0589C73.9572 74.0589 73.6234 73.8423 73.6234 73.4268C73.6234 73.0007 73.975 72.7912 74.5076 72.7166C74.8379 72.6705 75.3777 72.5923 75.5588 72.4716V73.0504C75.5588 73.6222 75.0865 74.0589 74.4224 74.0589ZM79.3105 75H80.9086L81.8461 71.5696H81.9135L82.851 75H84.4526L85.9334 69.5455H84.4064L83.5755 73.1889H83.5293L82.6344 69.5455H81.1323L80.2516 73.2102H80.2019L79.3567 69.5455H77.8262L79.3105 75ZM91.0648 75.0888C91.9455 75.0888 92.4036 74.581 92.6131 74.1264H92.677V75H94.1685V67.7273H92.6593V70.4616H92.6131C92.4107 70.0178 91.9739 69.4744 91.0613 69.4744C89.8645 69.4744 88.8525 70.4048 88.8525 72.2798C88.8525 74.1051 89.8219 75.0888 91.0648 75.0888ZM91.5442 73.8849C90.802 73.8849 90.3972 73.2244 90.3972 72.2727C90.3972 71.3281 90.7949 70.6783 91.5442 70.6783C92.2793 70.6783 92.6912 71.2997 92.6912 72.2727C92.6912 73.2457 92.2722 73.8849 91.5442 73.8849ZM96.9677 75.103C97.7738 75.103 98.2958 74.7514 98.5621 74.2436H98.6048V75H100.039V71.321C100.039 70.0213 98.9386 69.4744 97.7241 69.4744C96.4173 69.4744 95.5579 70.0994 95.3484 71.0938L96.7475 71.2074C96.8505 70.8452 97.1737 70.5788 97.717 70.5788C98.2319 70.5788 98.5266 70.8381 98.5266 71.2855V71.3068C98.5266 71.6584 98.1538 71.7045 97.2056 71.7969C96.1261 71.8963 95.1566 72.2585 95.1566 73.4766C95.1566 74.5561 95.9272 75.103 96.9677 75.103ZM97.4009 74.0589C96.9357 74.0589 96.6019 73.8423 96.6019 73.4268C96.6019 73.0007 96.9535 72.7912 97.4862 72.7166C97.8164 72.6705 98.3562 72.5923 98.5373 72.4716V73.0504C98.5373 73.6222 98.065 74.0589 97.4009 74.0589ZM104.114 69.5455H103.088V68.2386H101.575V69.5455H100.83V70.6818H101.575V73.5227C101.568 74.5916 102.296 75.1207 103.393 75.0746C103.784 75.0604 104.061 74.9822 104.214 74.9325L103.976 73.8068C103.901 73.821 103.741 73.8565 103.599 73.8565C103.298 73.8565 103.088 73.7429 103.088 73.3239V70.6818H104.114V69.5455ZM106.655 75.103C107.461 75.103 107.983 74.7514 108.25 74.2436H108.292V75H109.727V71.321C109.727 70.0213 108.626 69.4744 107.412 69.4744C106.105 69.4744 105.245 70.0994 105.036 71.0938L106.435 71.2074C106.538 70.8452 106.861 70.5788 107.404 70.5788C107.919 70.5788 108.214 70.8381 108.214 71.2855V71.3068C108.214 71.6584 107.841 71.7045 106.893 71.7969C105.814 71.8963 104.844 72.2585 104.844 73.4766C104.844 74.5561 105.615 75.103 106.655 75.103ZM107.088 74.0589C106.623 74.0589 106.289 73.8423 106.289 73.4268C106.289 73.0007 106.641 72.7912 107.174 72.7166C107.504 72.6705 108.044 72.5923 108.225 72.4716V73.0504C108.225 73.6222 107.752 74.0589 107.088 74.0589ZM116.116 69.5455H115.09V68.2386H113.577V69.5455H112.831V70.6818H113.577V73.5227C113.57 74.5916 114.298 75.1207 115.395 75.0746C115.786 75.0604 116.063 74.9822 116.216 74.9325L115.978 73.8068C115.903 73.821 115.743 73.8565 115.601 73.8565C115.3 73.8565 115.09 73.7429 115.09 73.3239V70.6818H116.116V69.5455ZM119.508 75.1065C121.162 75.1065 122.192 73.9737 122.192 72.294C122.192 70.6037 121.162 69.4744 119.508 69.4744C117.853 69.4744 116.823 70.6037 116.823 72.294C116.823 73.9737 117.853 75.1065 119.508 75.1065ZM119.515 73.9347C118.751 73.9347 118.361 73.2351 118.361 72.2834C118.361 71.3317 118.751 70.6286 119.515 70.6286C120.264 70.6286 120.655 71.3317 120.655 72.2834C120.655 73.2351 120.264 73.9347 119.515 73.9347ZM30.1016 87.6776C30.1051 88.4091 29.6044 88.7926 29.0611 88.7926C28.4893 88.7926 28.12 88.3913 28.1165 87.7486V84.5455H26.6037V88.0185C26.6072 89.2933 27.353 90.071 28.4503 90.071C29.2706 90.071 29.8601 89.6484 30.1051 89.0092H30.1619V90H31.6143V84.5455H30.1016V87.6776ZM37.3627 86.1009C37.2278 85.0959 36.4181 84.4744 35.0403 84.4744C33.6447 84.4744 32.725 85.1207 32.7285 86.1719C32.725 86.9886 33.2399 87.5178 34.3052 87.7308L35.2498 87.919C35.7257 88.0149 35.9423 88.1889 35.9494 88.4624C35.9423 88.7855 35.5907 89.0163 35.0616 89.0163C34.5218 89.0163 34.1632 88.7855 34.0708 88.3416L32.5829 88.4197C32.725 89.4638 33.6127 90.1065 35.0581 90.1065C36.4714 90.1065 37.4835 89.3857 37.487 88.3097C37.4835 87.5213 36.9686 87.049 35.9103 86.8324L34.9231 86.6335C34.4153 86.5234 34.2271 86.3494 34.2306 86.0866C34.2271 85.7599 34.5964 85.5469 35.0652 85.5469C35.5907 85.5469 35.9032 85.8345 35.9778 86.1861L37.3627 86.1009ZM40.9254 90.1065C42.2749 90.1065 43.1839 89.4496 43.397 88.4375L41.9979 88.3452C41.8452 88.7607 41.4545 88.9773 40.9503 88.9773C40.1939 88.9773 39.7145 88.4766 39.7145 87.6634V87.6598H43.429V87.2443C43.429 85.3906 42.3068 84.4744 40.8651 84.4744C39.2599 84.4744 38.2195 85.6143 38.2195 87.2976C38.2195 89.027 39.2457 90.1065 40.9254 90.1065ZM39.7145 86.7223C39.7464 86.1009 40.2188 85.6037 40.8899 85.6037C41.5469 85.6037 42.0014 86.0724 42.005 86.7223H39.7145ZM47.3494 84.5455H46.2663V84.1797C46.2663 83.8104 46.4155 83.5938 46.8594 83.5938C47.0405 83.5938 47.2251 83.6328 47.3459 83.6719L47.6122 82.5355C47.424 82.4787 47.0085 82.3864 46.5433 82.3864C45.517 82.3864 44.7536 82.9652 44.7536 84.1513V84.5455H43.983V85.6818H44.7536V90H46.2663V85.6818H47.3494V84.5455ZM51.7715 87.6776C51.775 88.4091 51.2743 88.7926 50.731 88.7926C50.1593 88.7926 49.79 88.3913 49.7864 87.7486V84.5455H48.2736V88.0185C48.2772 89.2933 49.0229 90.071 50.1202 90.071C50.9405 90.071 51.53 89.6484 51.775 89.0092H51.8319V90H53.2843V84.5455H51.7715V87.6776ZM56.0071 82.7273H54.4943V90H56.0071V82.7273ZM58.7317 82.7273H57.2189V90H58.7317V82.7273ZM62.258 90H63.7708V84.5455H62.258V90ZM63.0179 83.8423C63.4689 83.8423 63.8382 83.4979 63.8382 83.0753C63.8382 82.6562 63.4689 82.3118 63.0179 82.3118C62.5705 82.3118 62.2012 82.6562 62.2012 83.0753C62.2012 83.4979 62.5705 83.8423 63.0179 83.8423ZM66.4954 86.8466C66.4989 86.1435 66.918 85.7315 67.5288 85.7315C68.136 85.7315 68.5018 86.1293 68.4982 86.7969V90H70.011V86.527C70.011 85.2557 69.2653 84.4744 68.1289 84.4744C67.3192 84.4744 66.7333 84.8722 66.4883 85.5078H66.4244V84.5455H64.9826V90H66.4954V86.8466ZM74.1365 84.5455H73.0534V84.1797C73.0534 83.8104 73.2026 83.5938 73.6465 83.5938C73.8276 83.5938 74.0123 83.6328 74.133 83.6719L74.3993 82.5355C74.2111 82.4787 73.7956 82.3864 73.3304 82.3864C72.3042 82.3864 71.5407 82.9652 71.5407 84.1513V84.5455H70.7701V85.6818H71.5407V90H73.0534V85.6818H74.1365V84.5455ZM77.3299 90.1065C78.9847 90.1065 80.0146 88.9737 80.0146 87.294C80.0146 85.6037 78.9847 84.4744 77.3299 84.4744C75.6751 84.4744 74.6452 85.6037 74.6452 87.294C74.6452 88.9737 75.6751 90.1065 77.3299 90.1065ZM77.337 88.9347C76.5735 88.9347 76.1829 88.2351 76.1829 87.2834C76.1829 86.3317 76.5735 85.6286 77.337 85.6286C78.0863 85.6286 78.4769 86.3317 78.4769 87.2834C78.4769 88.2351 78.0863 88.9347 77.337 88.9347ZM80.9982 90H82.511V86.9141C82.511 86.2429 83.0011 85.7812 83.6687 85.7812C83.8782 85.7812 84.1658 85.8168 84.3079 85.8629V84.5206C84.1729 84.4886 83.9847 84.4673 83.832 84.4673C83.2212 84.4673 82.7205 84.8224 82.5217 85.4972H82.4648V84.5455H80.9982V90ZM85.09 90H86.6028V86.7259C86.6028 86.1222 86.9863 85.7209 87.4906 85.7209C87.9877 85.7209 88.3216 86.0618 88.3216 86.598V90H89.7882V86.669C89.7882 86.1044 90.1113 85.7209 90.6618 85.7209C91.1447 85.7209 91.5069 86.0227 91.5069 86.63V90H93.0162V86.3317C93.0162 85.1491 92.313 84.4744 91.2974 84.4744C90.4984 84.4744 89.877 84.8828 89.6532 85.5078H89.5964C89.4224 84.8757 88.8649 84.4744 88.1156 84.4744C87.3805 84.4744 86.823 84.8651 86.5957 85.5078H86.5318V84.5455H85.09V90ZM95.7665 90.103C96.5726 90.103 97.0946 89.7514 97.361 89.2436H97.4036V90H98.8382V86.321C98.8382 85.0213 97.7374 84.4744 96.5229 84.4744C95.2161 84.4744 94.3567 85.0994 94.1472 86.0938L95.5463 86.2074C95.6493 85.8452 95.9725 85.5788 96.5158 85.5788C97.0307 85.5788 97.3255 85.8381 97.3255 86.2855V86.3068C97.3255 86.6584 96.9526 86.7045 96.0044 86.7969C94.9249 86.8963 93.9554 87.2585 93.9554 88.4766C93.9554 89.5561 94.726 90.103 95.7665 90.103ZM96.1998 89.0589C95.7346 89.0589 95.4007 88.8423 95.4007 88.4268C95.4007 88.0007 95.7523 87.7912 96.285 87.7166C96.6152 87.6705 97.155 87.5923 97.3361 87.4716V88.0504C97.3361 88.6222 96.8638 89.0589 96.1998 89.0589ZM102.913 84.5455H101.887V83.2386H100.374V84.5455H99.6284V85.6818H100.374V88.5227C100.367 89.5916 101.095 90.1207 102.192 90.0746C102.583 90.0604 102.86 89.9822 103.013 89.9325L102.775 88.8068C102.7 88.821 102.54 88.8565 102.398 88.8565C102.096 88.8565 101.887 88.7429 101.887 88.3239V85.6818H102.913V84.5455ZM103.899 90H105.411V84.5455H103.899V90ZM104.659 83.8423C105.11 83.8423 105.479 83.4979 105.479 83.0753C105.479 82.6562 105.11 82.3118 104.659 82.3118C104.211 82.3118 103.842 82.6562 103.842 83.0753C103.842 83.4979 104.211 83.8423 104.659 83.8423ZM109.088 90.1065C110.743 90.1065 111.772 88.9737 111.772 87.294C111.772 85.6037 110.743 84.4744 109.088 84.4744C107.433 84.4744 106.403 85.6037 106.403 87.294C106.403 88.9737 107.433 90.1065 109.088 90.1065ZM109.095 88.9347C108.331 88.9347 107.941 88.2351 107.941 87.2834C107.941 86.3317 108.331 85.6286 109.095 85.6286C109.844 85.6286 110.235 86.3317 110.235 87.2834C110.235 88.2351 109.844 88.9347 109.095 88.9347ZM114.269 86.8466C114.272 86.1435 114.691 85.7315 115.302 85.7315C115.909 85.7315 116.275 86.1293 116.272 86.7969V90H117.784V86.527C117.784 85.2557 117.039 84.4744 115.902 84.4744C115.093 84.4744 114.507 84.8722 114.262 85.5078H114.198V84.5455H112.756V90H114.269V86.8466ZM119.861 90.0923C120.316 90.0923 120.71 89.7124 120.713 89.2401C120.71 88.7749 120.316 88.3949 119.861 88.3949C119.392 88.3949 119.005 88.7749 119.009 89.2401C119.005 89.7124 119.392 90.0923 119.861 90.0923Z" fill="#0D0D0D"/>
<defs>
<filter id="filter0_d_436_305" x="0" y="0" width="173" height="246.312" filterUnits="userSpaceOnUse" color-interpolation-filters="sRGB">
<feFlood flood-opacity="0" result="BackgroundImageFix"/>
<feColorMatrix in="SourceAlpha" type="matrix" values="0 0 0 0 0 0 0 0 0 0 0 0 0 0 0 0 0 0 127 0" result="hardAlpha"/>
<feOffset dy="-7"/>
<feGaussianBlur stdDeviation="5.5"/>
<feColorMatrix type="matrix" values="0 0 0 0 0 0 0 0 0 0 0 0 0 0 0 0 0 0 0.25 0"/>
<feBlend mode="normal" in2="BackgroundImageFix" result="effect1_dropShadow_436_305"/>
<feBlend mode="normal" in="SourceGraphic" in2="effect1_dropShadow_436_305" result="shape"/>
</filter>
<linearGradient id="paint0_linear_436_305" x1="85.7679" y1="165.899" x2="53.6482" y2="165.899" gradientUnits="userSpaceOnUse">
<stop stop-color="#808080" stop-opacity="0.25"/>
<stop offset="0.54" stop-color="#808080" stop-opacity="0.12"/>
<stop offset="1" stop-color="#808080" stop-opacity="0.1"/>
</linearGradient>
<linearGradient id="paint1_linear_436_305" x1="85.7679" y1="165.899" x2="53.6482" y2="165.899" gradientUnits="userSpaceOnUse">
<stop stop-color="#808080" stop-opacity="0.25"/>
<stop offset="0.54" stop-color="#808080" stop-opacity="0.12"/>
<stop offset="1" stop-color="#808080" stop-opacity="0.1"/>
</linearGradient>
<linearGradient id="paint2_linear_436_305" x1="-3872.51" y1="32624.3" x2="-11650.3" y2="32624.3" gradientUnits="userSpaceOnUse">
<stop stop-color="#808080" stop-opacity="0.25"/>
<stop offset="0.54" stop-color="#808080" stop-opacity="0.12"/>
<stop offset="1" stop-color="#808080" stop-opacity="0.1"/>
</linearGradient>
<linearGradient id="paint3_linear_436_305" x1="-3872.51" y1="32624.3" x2="-11650.3" y2="32624.3" gradientUnits="userSpaceOnUse">
<stop stop-color="#808080" stop-opacity="0.25"/>
<stop offset="0.54" stop-color="#808080" stop-opacity="0.12"/>
<stop offset="1" stop-color="#808080" stop-opacity="0.1"/>
</linearGradient>
<linearGradient id="paint4_linear_436_305" x1="-17781.3" y1="6266.77" x2="-35709.9" y2="6266.77" gradientUnits="userSpaceOnUse">
<stop stop-color="#808080" stop-opacity="0.25"/>
<stop offset="0.54" stop-color="#808080" stop-opacity="0.12"/>
<stop offset="1" stop-color="#808080" stop-opacity="0.1"/>
</linearGradient>
<linearGradient id="paint5_linear_436_305" x1="134.369" y1="6266.77" x2="-17671.5" y2="6266.77" gradientUnits="userSpaceOnUse">
<stop stop-color="#808080" stop-opacity="0.25"/>
<stop offset="0.54" stop-color="#808080" stop-opacity="0.12"/>
<stop offset="1" stop-color="#808080" stop-opacity="0.1"/>
</linearGradient>
<linearGradient id="paint6_linear_436_305" x1="134.369" y1="6266.77" x2="-17671.5" y2="6266.77" gradientUnits="userSpaceOnUse">
<stop stop-color="#808080" stop-opacity="0.25"/>
<stop offset="0.54" stop-color="#808080" stop-opacity="0.12"/>
<stop offset="1" stop-color="#808080" stop-opacity="0.1"/>
</linearGradient>
<linearGradient id="paint7_linear_436_305" x1="-6485.71" y1="9399.16" x2="-6485.71" y2="5749.62" gradientUnits="userSpaceOnUse">
<stop stop-color="#808080" stop-opacity="0.25"/>
<stop offset="0.54" stop-color="#808080" stop-opacity="0.12"/>
<stop offset="1" stop-color="#808080" stop-opacity="0.1"/>
</linearGradient>
<linearGradient id="paint8_linear_436_305" x1="-4292.1" y1="7378.48" x2="-8381.63" y2="7378.48" gradientUnits="userSpaceOnUse">
<stop stop-color="#808080" stop-opacity="0.25"/>
<stop offset="0.54" stop-color="#808080" stop-opacity="0.12"/>
<stop offset="1" stop-color="#808080" stop-opacity="0.1"/>
</linearGradient>
<linearGradient id="paint9_linear_436_305" x1="-687.896" y1="1181.62" x2="-804.202" y2="1181.62" gradientUnits="userSpaceOnUse">
<stop stop-color="#808080" stop-opacity="0.25"/>
<stop offset="0.54" stop-color="#808080" stop-opacity="0.12"/>
<stop offset="1" stop-color="#808080" stop-opacity="0.1"/>
</linearGradient>
<linearGradient id="paint10_linear_436_305" x1="-3660.61" y1="244.21" x2="-5498.63" y2="244.21" gradientUnits="userSpaceOnUse">
<stop stop-color="#808080" stop-opacity="0.25"/>
<stop offset="0.54" stop-color="#808080" stop-opacity="0.12"/>
<stop offset="1" stop-color="#808080" stop-opacity="0.1"/>
</linearGradient>
<linearGradient id="paint11_linear_436_305" x1="-3660.61" y1="248.875" x2="-5498.63" y2="248.875" gradientUnits="userSpaceOnUse">
<stop stop-color="#808080" stop-opacity="0.25"/>
<stop offset="0.54" stop-color="#808080" stop-opacity="0.12"/>
<stop offset="1" stop-color="#808080" stop-opacity="0.1"/>
</linearGradient>
<linearGradient id="paint12_linear_436_305" x1="-4105.06" y1="265.827" x2="-7465.46" y2="265.827" gradientUnits="userSpaceOnUse">
<stop stop-color="#808080" stop-opacity="0.25"/>
<stop offset="0.54" stop-color="#808080" stop-opacity="0.12"/>
<stop offset="1" stop-color="#808080" stop-opacity="0.1"/>
</linearGradient>
<linearGradient id="paint13_linear_436_305" x1="-4105.06" y1="270.495" x2="-7465.46" y2="270.495" gradientUnits="userSpaceOnUse">
<stop stop-color="#808080" stop-opacity="0.25"/>
<stop offset="0.54" stop-color="#808080" stop-opacity="0.12"/>
<stop offset="1" stop-color="#808080" stop-opacity="0.1"/>
</linearGradient>
<linearGradient id="paint14_linear_436_305" x1="-4105.06" y1="276.718" x2="-7465.46" y2="276.718" gradientUnits="userSpaceOnUse">
<stop stop-color="#808080" stop-opacity="0.25"/>
<stop offset="0.54" stop-color="#808080" stop-opacity="0.12"/>
<stop offset="1" stop-color="#808080" stop-opacity="0.1"/>
</linearGradient>
<linearGradient id="paint15_linear_436_305" x1="-2321.78" y1="281.389" x2="-3439.45" y2="281.389" gradientUnits="userSpaceOnUse">
<stop stop-color="#808080" stop-opacity="0.25"/>
<stop offset="0.54" stop-color="#808080" stop-opacity="0.12"/>
<stop offset="1" stop-color="#808080" stop-opacity="0.1"/>
</linearGradient>
<linearGradient id="paint16_linear_436_305" x1="-4105.06" y1="287.6" x2="-7465.46" y2="287.6" gradientUnits="userSpaceOnUse">
<stop stop-color="#808080" stop-opacity="0.25"/>
<stop offset="0.54" stop-color="#808080" stop-opacity="0.12"/>
<stop offset="1" stop-color="#808080" stop-opacity="0.1"/>
</linearGradient>
<linearGradient id="paint17_linear_436_305" x1="-4105.06" y1="292.271" x2="-7465.46" y2="292.271" gradientUnits="userSpaceOnUse">
<stop stop-color="#808080" stop-opacity="0.25"/>
<stop offset="0.54" stop-color="#808080" stop-opacity="0.12"/>
<stop offset="1" stop-color="#808080" stop-opacity="0.1"/>
</linearGradient>
<linearGradient id="paint18_linear_436_305" x1="-4105.06" y1="298.497" x2="-7465.46" y2="298.497" gradientUnits="userSpaceOnUse">
<stop stop-color="#808080" stop-opacity="0.25"/>
<stop offset="0.54" stop-color="#808080" stop-opacity="0.12"/>
<stop offset="1" stop-color="#808080" stop-opacity="0.1"/>
</linearGradient>
<linearGradient id="paint19_linear_436_305" x1="-2321.78" y1="303.16" x2="-3439.45" y2="303.16" gradientUnits="userSpaceOnUse">
<stop stop-color="#808080" stop-opacity="0.25"/>
<stop offset="0.54" stop-color="#808080" stop-opacity="0.12"/>
<stop offset="1" stop-color="#808080" stop-opacity="0.1"/>
</linearGradient>
<linearGradient id="paint20_linear_436_305" x1="-7135.87" y1="10247.7" x2="-7135.87" y2="6597.92" gradientUnits="userSpaceOnUse">
<stop stop-color="#808080" stop-opacity="0.25"/>
<stop offset="0.54" stop-color="#808080" stop-opacity="0.12"/>
<stop offset="1" stop-color="#808080" stop-opacity="0.1"/>
</linearGradient>
<linearGradient id="paint21_linear_436_305" x1="-4927.37" y1="8206.55" x2="-9016.9" y2="8206.55" gradientUnits="userSpaceOnUse">
<stop stop-color="#808080" stop-opacity="0.25"/>
<stop offset="0.54" stop-color="#808080" stop-opacity="0.12"/>
<stop offset="1" stop-color="#808080" stop-opacity="0.1"/>
</linearGradient>
<linearGradient id="paint22_linear_436_305" x1="-798.019" y1="1322.26" x2="-914.324" y2="1322.26" gradientUnits="userSpaceOnUse">
<stop stop-color="#808080" stop-opacity="0.25"/>
<stop offset="0.54" stop-color="#808080" stop-opacity="0.12"/>
<stop offset="1" stop-color="#808080" stop-opacity="0.1"/>
</linearGradient>
<linearGradient id="paint23_linear_436_305" x1="-4087.84" y1="264.35" x2="-5925.86" y2="264.35" gradientUnits="userSpaceOnUse">
<stop stop-color="#808080" stop-opacity="0.25"/>
<stop offset="0.54" stop-color="#808080" stop-opacity="0.12"/>
<stop offset="1" stop-color="#808080" stop-opacity="0.1"/>
</linearGradient>
<linearGradient id="paint24_linear_436_305" x1="-4087.84" y1="269.018" x2="-5925.86" y2="269.018" gradientUnits="userSpaceOnUse">
<stop stop-color="#808080" stop-opacity="0.25"/>
<stop offset="0.54" stop-color="#808080" stop-opacity="0.12"/>
<stop offset="1" stop-color="#808080" stop-opacity="0.1"/>
</linearGradient>
<linearGradient id="paint25_linear_436_305" x1="-4681.25" y1="285.965" x2="-8041.86" y2="285.965" gradientUnits="userSpaceOnUse">
<stop stop-color="#808080" stop-opacity="0.25"/>
<stop offset="0.54" stop-color="#808080" stop-opacity="0.12"/>
<stop offset="1" stop-color="#808080" stop-opacity="0.1"/>
</linearGradient>
<linearGradient id="paint26_linear_436_305" x1="-4681.25" y1="290.638" x2="-8041.86" y2="290.638" gradientUnits="userSpaceOnUse">
<stop stop-color="#808080" stop-opacity="0.25"/>
<stop offset="0.54" stop-color="#808080" stop-opacity="0.12"/>
<stop offset="1" stop-color="#808080" stop-opacity="0.1"/>
</linearGradient>
<linearGradient id="paint27_linear_436_305" x1="-4681.25" y1="296.858" x2="-8041.86" y2="296.858" gradientUnits="userSpaceOnUse">
<stop stop-color="#808080" stop-opacity="0.25"/>
<stop offset="0.54" stop-color="#808080" stop-opacity="0.12"/>
<stop offset="1" stop-color="#808080" stop-opacity="0.1"/>
</linearGradient>
<linearGradient id="paint28_linear_436_305" x1="-2655.6" y1="301.523" x2="-3773.27" y2="301.523" gradientUnits="userSpaceOnUse">
<stop stop-color="#808080" stop-opacity="0.25"/>
<stop offset="0.54" stop-color="#808080" stop-opacity="0.12"/>
<stop offset="1" stop-color="#808080" stop-opacity="0.1"/>
</linearGradient>
<linearGradient id="paint29_linear_436_305" x1="-4681.25" y1="307.736" x2="-8041.86" y2="307.736" gradientUnits="userSpaceOnUse">
<stop stop-color="#808080" stop-opacity="0.25"/>
<stop offset="0.54" stop-color="#808080" stop-opacity="0.12"/>
<stop offset="1" stop-color="#808080" stop-opacity="0.1"/>
</linearGradient>
<linearGradient id="paint30_linear_436_305" x1="-4681.25" y1="312.411" x2="-8041.86" y2="312.411" gradientUnits="userSpaceOnUse">
<stop stop-color="#808080" stop-opacity="0.25"/>
<stop offset="0.54" stop-color="#808080" stop-opacity="0.12"/>
<stop offset="1" stop-color="#808080" stop-opacity="0.1"/>
</linearGradient>
<linearGradient id="paint31_linear_436_305" x1="-4681.25" y1="318.632" x2="-8041.86" y2="318.632" gradientUnits="userSpaceOnUse">
<stop stop-color="#808080" stop-opacity="0.25"/>
<stop offset="0.54" stop-color="#808080" stop-opacity="0.12"/>
<stop offset="1" stop-color="#808080" stop-opacity="0.1"/>
</linearGradient>
<linearGradient id="paint32_linear_436_305" x1="-2655.6" y1="323.307" x2="-3773.27" y2="323.307" gradientUnits="userSpaceOnUse">
<stop stop-color="#808080" stop-opacity="0.25"/>
<stop offset="0.54" stop-color="#808080" stop-opacity="0.12"/>
<stop offset="1" stop-color="#808080" stop-opacity="0.1"/>
</linearGradient>
<linearGradient id="paint33_linear_436_305" x1="-8093.63" y1="12233.4" x2="-8093.63" y2="7790.11" gradientUnits="userSpaceOnUse">
<stop stop-color="#808080" stop-opacity="0.25"/>
<stop offset="0.54" stop-color="#808080" stop-opacity="0.12"/>
<stop offset="1" stop-color="#808080" stop-opacity="0.1"/>
</linearGradient>
<linearGradient id="paint34_linear_436_305" x1="-6237.58" y1="9622" x2="-9128.35" y2="9622" gradientUnits="userSpaceOnUse">
<stop stop-color="#808080" stop-opacity="0.25"/>
<stop offset="0.54" stop-color="#808080" stop-opacity="0.12"/>
<stop offset="1" stop-color="#808080" stop-opacity="0.1"/>
</linearGradient>
<linearGradient id="paint35_linear_436_305" x1="-3141.69" y1="1650.69" x2="-3141.69" y2="1560.06" gradientUnits="userSpaceOnUse">
<stop stop-color="#808080" stop-opacity="0.25"/>
<stop offset="0.54" stop-color="#808080" stop-opacity="0.12"/>
<stop offset="1" stop-color="#808080" stop-opacity="0.1"/>
</linearGradient>
<linearGradient id="paint36_linear_436_305" x1="-1694.31" y1="1082.14" x2="-1859.99" y2="1082.14" gradientUnits="userSpaceOnUse">
<stop stop-color="#808080" stop-opacity="0.25"/>
<stop offset="0.54" stop-color="#808080" stop-opacity="0.12"/>
<stop offset="1" stop-color="#808080" stop-opacity="0.1"/>
</linearGradient>
<linearGradient id="paint37_linear_436_305" x1="-678.183" y1="376.737" x2="-706.926" y2="376.737" gradientUnits="userSpaceOnUse">
<stop stop-color="#808080" stop-opacity="0.25"/>
<stop offset="0.54" stop-color="#808080" stop-opacity="0.12"/>
<stop offset="1" stop-color="#808080" stop-opacity="0.1"/>
</linearGradient>
<linearGradient id="paint38_linear_436_305" x1="-4666.39" y1="380.396" x2="-6095.95" y2="380.396" gradientUnits="userSpaceOnUse">
<stop stop-color="#808080" stop-opacity="0.25"/>
<stop offset="0.54" stop-color="#808080" stop-opacity="0.12"/>
<stop offset="1" stop-color="#808080" stop-opacity="0.1"/>
</linearGradient>
<linearGradient id="paint39_linear_436_305" x1="-4666.39" y1="401.317" x2="-6095.95" y2="401.317" gradientUnits="userSpaceOnUse">
<stop stop-color="#808080" stop-opacity="0.25"/>
<stop offset="0.54" stop-color="#808080" stop-opacity="0.12"/>
<stop offset="1" stop-color="#808080" stop-opacity="0.1"/>
</linearGradient>
<linearGradient id="paint40_linear_436_305" x1="-4666.39" y1="406.875" x2="-6095.95" y2="406.875" gradientUnits="userSpaceOnUse">
<stop stop-color="#808080" stop-opacity="0.25"/>
<stop offset="0.54" stop-color="#808080" stop-opacity="0.12"/>
<stop offset="1" stop-color="#808080" stop-opacity="0.1"/>
</linearGradient>
<linearGradient id="paint41_linear_436_305" x1="-1918.13" y1="395.758" x2="-2172.73" y2="395.758" gradientUnits="userSpaceOnUse">
<stop stop-color="#808080" stop-opacity="0.25"/>
<stop offset="0.54" stop-color="#808080" stop-opacity="0.12"/>
<stop offset="1" stop-color="#808080" stop-opacity="0.1"/>
</linearGradient>
<linearGradient id="paint42_linear_436_305" x1="-1730.18" y1="395.758" x2="-1872.54" y2="395.758" gradientUnits="userSpaceOnUse">
<stop stop-color="#808080" stop-opacity="0.25"/>
<stop offset="0.54" stop-color="#808080" stop-opacity="0.12"/>
<stop offset="1" stop-color="#808080" stop-opacity="0.1"/>
</linearGradient>
<linearGradient id="paint43_linear_436_305" x1="-1575.18" y1="419.864" x2="-1717.59" y2="419.864" gradientUnits="userSpaceOnUse">
<stop stop-color="#808080" stop-opacity="0.25"/>
<stop offset="0.54" stop-color="#808080" stop-opacity="0.12"/>
<stop offset="1" stop-color="#808080" stop-opacity="0.1"/>
</linearGradient>
<linearGradient id="paint44_linear_436_305" x1="-3872.51" y1="30021.1" x2="-11650.3" y2="30021.1" gradientUnits="userSpaceOnUse">
<stop stop-color="#808080" stop-opacity="0.25"/>
<stop offset="0.54" stop-color="#808080" stop-opacity="0.12"/>
<stop offset="1" stop-color="#808080" stop-opacity="0.1"/>
</linearGradient>
<linearGradient id="paint45_linear_436_305" x1="-11681.9" y1="30021.1" x2="-19459.1" y2="30021.1" gradientUnits="userSpaceOnUse">
<stop stop-color="#808080" stop-opacity="0.25"/>
<stop offset="0.54" stop-color="#808080" stop-opacity="0.12"/>
<stop offset="1" stop-color="#808080" stop-opacity="0.1"/>
</linearGradient>
<linearGradient id="paint46_linear_436_305" x1="-11681.9" y1="30021.1" x2="-19459.1" y2="30021.1" gradientUnits="userSpaceOnUse">
<stop stop-color="#808080" stop-opacity="0.25"/>
<stop offset="0.54" stop-color="#808080" stop-opacity="0.12"/>
<stop offset="1" stop-color="#808080" stop-opacity="0.1"/>
</linearGradient>
<linearGradient id="paint47_linear_436_305" x1="-6479.5" y1="11643.7" x2="-7710.98" y2="11643.7" gradientUnits="userSpaceOnUse">
<stop stop-color="#808080" stop-opacity="0.25"/>
<stop offset="0.54" stop-color="#808080" stop-opacity="0.12"/>
<stop offset="1" stop-color="#808080" stop-opacity="0.1"/>
</linearGradient>
<linearGradient id="paint48_linear_436_305" x1="-4831.67" y1="3846.47" x2="-4831.67" y2="3221.63" gradientUnits="userSpaceOnUse">
<stop stop-color="#808080" stop-opacity="0.25"/>
<stop offset="0.54" stop-color="#808080" stop-opacity="0.12"/>
<stop offset="1" stop-color="#808080" stop-opacity="0.1"/>
</linearGradient>
<linearGradient id="paint49_linear_436_305" x1="-4360.65" y1="3383.16" x2="-4995.33" y2="3383.16" gradientUnits="userSpaceOnUse">
<stop stop-color="#808080" stop-opacity="0.25"/>
<stop offset="0.54" stop-color="#808080" stop-opacity="0.12"/>
<stop offset="1" stop-color="#808080" stop-opacity="0.1"/>
</linearGradient>
<linearGradient id="paint50_linear_436_305" x1="-2856.3" y1="1291.08" x2="-2856.3" y2="1238.6" gradientUnits="userSpaceOnUse">
<stop stop-color="#808080" stop-opacity="0.25"/>
<stop offset="0.54" stop-color="#808080" stop-opacity="0.12"/>
<stop offset="1" stop-color="#808080" stop-opacity="0.1"/>
</linearGradient>
<linearGradient id="paint51_linear_436_305" x1="-1729.78" y1="863.383" x2="-1825.66" y2="863.383" gradientUnits="userSpaceOnUse">
<stop stop-color="#808080" stop-opacity="0.25"/>
<stop offset="0.54" stop-color="#808080" stop-opacity="0.12"/>
<stop offset="1" stop-color="#808080" stop-opacity="0.1"/>
</linearGradient>
<linearGradient id="paint52_linear_436_305" x1="-694.762" y1="324.157" x2="-711.417" y2="324.157" gradientUnits="userSpaceOnUse">
<stop stop-color="#808080" stop-opacity="0.25"/>
<stop offset="0.54" stop-color="#808080" stop-opacity="0.12"/>
<stop offset="1" stop-color="#808080" stop-opacity="0.1"/>
</linearGradient>
<linearGradient id="paint53_linear_436_305" x1="-1604.02" y1="314.817" x2="-1686.43" y2="314.817" gradientUnits="userSpaceOnUse">
<stop stop-color="#808080" stop-opacity="0.25"/>
<stop offset="0.54" stop-color="#808080" stop-opacity="0.12"/>
<stop offset="1" stop-color="#808080" stop-opacity="0.1"/>
</linearGradient>
<linearGradient id="paint54_linear_436_305" x1="-2733.56" y1="318.377" x2="-2973.96" y2="318.377" gradientUnits="userSpaceOnUse">
<stop stop-color="#808080" stop-opacity="0.25"/>
<stop offset="0.54" stop-color="#808080" stop-opacity="0.12"/>
<stop offset="1" stop-color="#808080" stop-opacity="0.1"/>
</linearGradient>
<linearGradient id="paint55_linear_436_305" x1="-4310.23" y1="2176.7" x2="-4310.23" y2="1410.01" gradientUnits="userSpaceOnUse">
<stop stop-color="#808080" stop-opacity="0.25"/>
<stop offset="0.54" stop-color="#808080" stop-opacity="0.12"/>
<stop offset="1" stop-color="#808080" stop-opacity="0.1"/>
</linearGradient>
<linearGradient id="paint56_linear_436_305" x1="-3658.82" y1="1734.68" x2="-4737.87" y2="1734.68" gradientUnits="userSpaceOnUse">
<stop stop-color="#808080" stop-opacity="0.25"/>
<stop offset="0.54" stop-color="#808080" stop-opacity="0.12"/>
<stop offset="1" stop-color="#808080" stop-opacity="0.1"/>
</linearGradient>
<linearGradient id="paint57_linear_436_305" x1="-3658.82" y1="412.126" x2="-4737.87" y2="412.126" gradientUnits="userSpaceOnUse">
<stop stop-color="#808080" stop-opacity="0.25"/>
<stop offset="0.54" stop-color="#808080" stop-opacity="0.12"/>
<stop offset="1" stop-color="#808080" stop-opacity="0.1"/>
</linearGradient>
<linearGradient id="paint58_linear_436_305" x1="-3658.82" y1="412.126" x2="-4737.87" y2="412.126" gradientUnits="userSpaceOnUse">
<stop stop-color="#808080" stop-opacity="0.25"/>
<stop offset="0.54" stop-color="#808080" stop-opacity="0.12"/>
<stop offset="1" stop-color="#808080" stop-opacity="0.1"/>
</linearGradient>
<linearGradient id="paint59_linear_436_305" x1="-3134.36" y1="313.548" x2="-3896.85" y2="313.548" gradientUnits="userSpaceOnUse">
<stop stop-color="#808080" stop-opacity="0.25"/>
<stop offset="0.54" stop-color="#808080" stop-opacity="0.12"/>
<stop offset="1" stop-color="#808080" stop-opacity="0.1"/>
</linearGradient>
<linearGradient id="paint60_linear_436_305" x1="-2262.92" y1="190.356" x2="-2669.11" y2="190.356" gradientUnits="userSpaceOnUse">
<stop stop-color="#808080" stop-opacity="0.25"/>
<stop offset="0.54" stop-color="#808080" stop-opacity="0.12"/>
<stop offset="1" stop-color="#808080" stop-opacity="0.1"/>
</linearGradient>
<linearGradient id="paint61_linear_436_305" x1="-1437.02" y1="193.484" x2="-1608.27" y2="193.484" gradientUnits="userSpaceOnUse">
<stop stop-color="#808080" stop-opacity="0.25"/>
<stop offset="0.54" stop-color="#808080" stop-opacity="0.12"/>
<stop offset="1" stop-color="#808080" stop-opacity="0.1"/>
</linearGradient>
<linearGradient id="paint62_linear_436_305" x1="-1926.34" y1="196.612" x2="-2224.77" y2="196.612" gradientUnits="userSpaceOnUse">
<stop stop-color="#808080" stop-opacity="0.25"/>
<stop offset="0.54" stop-color="#808080" stop-opacity="0.12"/>
<stop offset="1" stop-color="#808080" stop-opacity="0.1"/>
</linearGradient>
<linearGradient id="paint63_linear_436_305" x1="-2262.92" y1="199.737" x2="-2669.11" y2="199.737" gradientUnits="userSpaceOnUse">
<stop stop-color="#808080" stop-opacity="0.25"/>
<stop offset="0.54" stop-color="#808080" stop-opacity="0.12"/>
<stop offset="1" stop-color="#808080" stop-opacity="0.1"/>
</linearGradient>
<linearGradient id="paint64_linear_436_305" x1="-695.367" y1="202.865" x2="-740.768" y2="202.865" gradientUnits="userSpaceOnUse">
<stop stop-color="#808080" stop-opacity="0.25"/>
<stop offset="0.54" stop-color="#808080" stop-opacity="0.12"/>
<stop offset="1" stop-color="#808080" stop-opacity="0.1"/>
</linearGradient>
<linearGradient id="paint65_linear_436_305" x1="-7620.7" y1="3619.43" x2="-7620.7" y2="2441.82" gradientUnits="userSpaceOnUse">
<stop stop-color="#808080" stop-opacity="0.25"/>
<stop offset="0.54" stop-color="#808080" stop-opacity="0.12"/>
<stop offset="1" stop-color="#808080" stop-opacity="0.1"/>
</linearGradient>
<linearGradient id="paint66_linear_436_305" x1="-6596.51" y1="2928.89" x2="-8254.15" y2="2928.89" gradientUnits="userSpaceOnUse">
<stop stop-color="#808080" stop-opacity="0.25"/>
<stop offset="0.54" stop-color="#808080" stop-opacity="0.12"/>
<stop offset="1" stop-color="#808080" stop-opacity="0.1"/>
</linearGradient>
<linearGradient id="paint67_linear_436_305" x1="-6596.51" y1="651.186" x2="-8254.15" y2="651.186" gradientUnits="userSpaceOnUse">
<stop stop-color="#808080" stop-opacity="0.25"/>
<stop offset="0.54" stop-color="#808080" stop-opacity="0.12"/>
<stop offset="1" stop-color="#808080" stop-opacity="0.1"/>
</linearGradient>
<linearGradient id="paint68_linear_436_305" x1="-5645.19" y1="469.496" x2="-6816.58" y2="469.496" gradientUnits="userSpaceOnUse">
<stop stop-color="#808080" stop-opacity="0.25"/>
<stop offset="0.54" stop-color="#808080" stop-opacity="0.12"/>
<stop offset="1" stop-color="#808080" stop-opacity="0.1"/>
</linearGradient>
<linearGradient id="paint69_linear_436_305" x1="-4100.65" y1="252.622" x2="-4724.73" y2="252.622" gradientUnits="userSpaceOnUse">
<stop stop-color="#808080" stop-opacity="0.25"/>
<stop offset="0.54" stop-color="#808080" stop-opacity="0.12"/>
<stop offset="1" stop-color="#808080" stop-opacity="0.1"/>
</linearGradient>
<linearGradient id="paint70_linear_436_305" x1="-2637.05" y1="257.216" x2="-2900.21" y2="257.216" gradientUnits="userSpaceOnUse">
<stop stop-color="#808080" stop-opacity="0.25"/>
<stop offset="0.54" stop-color="#808080" stop-opacity="0.12"/>
<stop offset="1" stop-color="#808080" stop-opacity="0.1"/>
</linearGradient>
<linearGradient id="paint71_linear_436_305" x1="-3504.26" y1="261.809" x2="-3962.75" y2="261.809" gradientUnits="userSpaceOnUse">
<stop stop-color="#808080" stop-opacity="0.25"/>
<stop offset="0.54" stop-color="#808080" stop-opacity="0.12"/>
<stop offset="1" stop-color="#808080" stop-opacity="0.1"/>
</linearGradient>
<linearGradient id="paint72_linear_436_305" x1="-4100.65" y1="266.396" x2="-4724.73" y2="266.396" gradientUnits="userSpaceOnUse">
<stop stop-color="#808080" stop-opacity="0.25"/>
<stop offset="0.54" stop-color="#808080" stop-opacity="0.12"/>
<stop offset="1" stop-color="#808080" stop-opacity="0.1"/>
</linearGradient>
<linearGradient id="paint73_linear_436_305" x1="-1322.55" y1="270.99" x2="-1392.36" y2="270.99" gradientUnits="userSpaceOnUse">
<stop stop-color="#808080" stop-opacity="0.25"/>
<stop offset="0.54" stop-color="#808080" stop-opacity="0.12"/>
<stop offset="1" stop-color="#808080" stop-opacity="0.1"/>
</linearGradient>
<linearGradient id="paint74_linear_436_305" x1="-1570.6" y1="228.206" x2="-1665.31" y2="228.206" gradientUnits="userSpaceOnUse">
<stop stop-color="#808080" stop-opacity="0.25"/>
<stop offset="0.54" stop-color="#808080" stop-opacity="0.12"/>
<stop offset="1" stop-color="#808080" stop-opacity="0.1"/>
</linearGradient>
<linearGradient id="paint75_linear_436_305" x1="-3811.06" y1="12956.3" x2="-11751.6" y2="12956.3" gradientUnits="userSpaceOnUse">
<stop stop-color="#808080" stop-opacity="0.25"/>
<stop offset="0.54" stop-color="#808080" stop-opacity="0.12"/>
<stop offset="1" stop-color="#808080" stop-opacity="0.1"/>
</linearGradient>
<linearGradient id="paint76_linear_436_305" x1="-11784.5" y1="12956.3" x2="-19725.7" y2="12956.3" gradientUnits="userSpaceOnUse">
<stop stop-color="#808080" stop-opacity="0.25"/>
<stop offset="0.54" stop-color="#808080" stop-opacity="0.12"/>
<stop offset="1" stop-color="#808080" stop-opacity="0.1"/>
</linearGradient>
<linearGradient id="paint77_linear_436_305" x1="134.369" y1="9872.97" x2="-17671.5" y2="9872.97" gradientUnits="userSpaceOnUse">
<stop stop-color="#808080" stop-opacity="0.25"/>
<stop offset="0.54" stop-color="#808080" stop-opacity="0.12"/>
<stop offset="1" stop-color="#808080" stop-opacity="0.1"/>
</linearGradient>
<linearGradient id="paint78_linear_436_305" x1="-17781.3" y1="9872.97" x2="-35709.9" y2="9872.97" gradientUnits="userSpaceOnUse">
<stop stop-color="#808080" stop-opacity="0.25"/>
<stop offset="0.54" stop-color="#808080" stop-opacity="0.12"/>
<stop offset="1" stop-color="#808080" stop-opacity="0.1"/>
</linearGradient>
<linearGradient id="paint79_linear_436_305" x1="-17781.3" y1="9872.97" x2="-35709.9" y2="9872.97" gradientUnits="userSpaceOnUse">
<stop stop-color="#808080" stop-opacity="0.25"/>
<stop offset="0.54" stop-color="#808080" stop-opacity="0.12"/>
<stop offset="1" stop-color="#808080" stop-opacity="0.1"/>
</linearGradient>
<linearGradient id="paint80_linear_436_305" x1="-6507.26" y1="9242.01" x2="-6507.26" y2="5654.5" gradientUnits="userSpaceOnUse">
<stop stop-color="#808080" stop-opacity="0.25"/>
<stop offset="0.54" stop-color="#808080" stop-opacity="0.12"/>
<stop offset="1" stop-color="#808080" stop-opacity="0.1"/>
</linearGradient>
<linearGradient id="paint81_linear_436_305" x1="-7146.65" y1="10076.1" x2="-7146.65" y2="6488.55" gradientUnits="userSpaceOnUse">
<stop stop-color="#808080" stop-opacity="0.25"/>
<stop offset="0.54" stop-color="#808080" stop-opacity="0.12"/>
<stop offset="1" stop-color="#808080" stop-opacity="0.1"/>
</linearGradient>
<linearGradient id="paint82_linear_436_305" x1="-8070.59" y1="12027.9" x2="-8070.59" y2="7660.52" gradientUnits="userSpaceOnUse">
<stop stop-color="#808080" stop-opacity="0.25"/>
<stop offset="0.54" stop-color="#808080" stop-opacity="0.12"/>
<stop offset="1" stop-color="#808080" stop-opacity="0.1"/>
</linearGradient>
<linearGradient id="paint83_linear_436_305" x1="-3125.9" y1="1627.54" x2="-3125.9" y2="1538.36" gradientUnits="userSpaceOnUse">
<stop stop-color="#808080" stop-opacity="0.25"/>
<stop offset="0.54" stop-color="#808080" stop-opacity="0.12"/>
<stop offset="1" stop-color="#808080" stop-opacity="0.1"/>
</linearGradient>
<linearGradient id="paint84_linear_436_305" x1="-4801.44" y1="3783.26" x2="-4801.44" y2="3169.12" gradientUnits="userSpaceOnUse">
<stop stop-color="#808080" stop-opacity="0.25"/>
<stop offset="0.54" stop-color="#808080" stop-opacity="0.12"/>
<stop offset="1" stop-color="#808080" stop-opacity="0.1"/>
</linearGradient>
<linearGradient id="paint85_linear_436_305" x1="-2835.31" y1="1273.32" x2="-2835.31" y2="1221.72" gradientUnits="userSpaceOnUse">
<stop stop-color="#808080" stop-opacity="0.25"/>
<stop offset="0.54" stop-color="#808080" stop-opacity="0.12"/>
<stop offset="1" stop-color="#808080" stop-opacity="0.1"/>
</linearGradient>
<linearGradient id="paint86_linear_436_305" x1="-4304.42" y1="2141.9" x2="-4304.42" y2="1388.27" gradientUnits="userSpaceOnUse">
<stop stop-color="#808080" stop-opacity="0.25"/>
<stop offset="0.54" stop-color="#808080" stop-opacity="0.12"/>
<stop offset="1" stop-color="#808080" stop-opacity="0.1"/>
</linearGradient>
<linearGradient id="paint87_linear_436_305" x1="-7575.1" y1="3560.49" x2="-7575.1" y2="2402.8" gradientUnits="userSpaceOnUse">
<stop stop-color="#808080" stop-opacity="0.25"/>
<stop offset="0.54" stop-color="#808080" stop-opacity="0.12"/>
<stop offset="1" stop-color="#808080" stop-opacity="0.1"/>
</linearGradient>
<clipPath id="clip0_436_305">
<rect width="97.3687" height="83.8869" fill="white" transform="matrix(-1 0 0 1 134.369 111.936)"/>
</clipPath>
</defs>
</svg>
