<svg width="177" height="254" viewBox="0 0 177 254" fill="none" xmlns="http://www.w3.org/2000/svg">
<g filter="url(#filter0_d_436_504)">
<rect x="13" y="20" width="151" height="227.777" fill="#E8E8E8"/>
</g>
<path d="M26.4545 69.0781H28.017C27.8182 67.6399 26.5504 66.6278 24.9062 66.6278C22.9851 66.6278 21.5043 68.0128 21.5043 70.3707C21.5043 72.6719 22.8892 74.0994 24.9382 74.0994C26.7741 74.0994 28.0845 72.9382 28.0845 71.0241V70.108H25.0412V71.2656H26.6037C26.5824 72.1676 25.968 72.7393 24.9453 72.7393C23.7912 72.7393 23.0632 71.8764 23.0632 70.3565C23.0632 68.8438 23.8196 67.9879 24.9311 67.9879C25.723 67.9879 26.2592 68.3963 26.4545 69.0781ZM31.6969 74.1065C33.0463 74.1065 33.9554 73.4496 34.1685 72.4375L32.7694 72.3452C32.6167 72.7607 32.226 72.9773 31.7218 72.9773C30.9654 72.9773 30.486 72.4766 30.486 71.6634V71.6598H34.2005V71.2443C34.2005 69.3906 33.0783 68.4744 31.6365 68.4744C30.0314 68.4744 28.9909 69.6143 28.9909 71.2976C28.9909 73.027 30.0172 74.1065 31.6969 74.1065ZM30.486 70.7223C30.5179 70.1009 30.9902 69.6037 31.6614 69.6037C32.3184 69.6037 32.7729 70.0724 32.7765 70.7223H30.486ZM38.089 68.5455H37.0627V67.2386H35.5499V68.5455H34.8042V69.6818H35.5499V72.5227C35.5428 73.5916 36.2708 74.1207 37.3681 74.0746C37.7587 74.0604 38.0357 73.9822 38.1884 73.9325L37.9505 72.8068C37.8759 72.821 37.7161 72.8565 37.574 72.8565C37.2722 72.8565 37.0627 72.7429 37.0627 72.3239V69.6818H38.089V68.5455ZM42.3228 76.0455C43.4485 76.0455 44.0451 75.4702 44.354 74.5895L46.4741 68.5526L44.8725 68.5455L43.7326 72.5511H43.6758L42.5465 68.5455H40.9556L42.9123 74.1562L42.8235 74.3871C42.6246 74.8984 42.2447 74.9233 41.712 74.7599L41.3711 75.8892C41.5877 75.9815 41.9393 76.0455 42.3228 76.0455ZM49.5272 74.1065C51.182 74.1065 52.2118 72.9737 52.2118 71.294C52.2118 69.6037 51.182 68.4744 49.5272 68.4744C47.8723 68.4744 46.8425 69.6037 46.8425 71.294C46.8425 72.9737 47.8723 74.1065 49.5272 74.1065ZM49.5343 72.9347C48.7708 72.9347 48.3801 72.2351 48.3801 71.2834C48.3801 70.3317 48.7708 69.6286 49.5343 69.6286C50.2836 69.6286 50.6742 70.3317 50.6742 71.2834C50.6742 72.2351 50.2836 72.9347 49.5343 72.9347ZM56.6934 71.6776C56.6969 72.4091 56.1962 72.7926 55.6529 72.7926C55.0811 72.7926 54.7118 72.3913 54.7083 71.7486V68.5455H53.1955V72.0185C53.199 73.2933 53.9448 74.071 55.0421 74.071C55.8624 74.071 56.4519 73.6484 56.6969 73.0092H56.7537V74H58.2061V68.5455H56.6934V71.6776ZM64.1951 74.1065C65.6475 74.1065 66.5602 73.2543 66.6312 72.0007H65.2037C65.1149 72.5831 64.7314 72.9098 64.2129 72.9098C63.5062 72.9098 63.0481 72.3168 63.0481 71.2727C63.0481 70.2429 63.5098 69.6534 64.2129 69.6534C64.7669 69.6534 65.122 70.0192 65.2037 70.5625H66.6312C66.5673 69.3018 65.612 68.4744 64.188 68.4744C62.5332 68.4744 61.5105 69.6214 61.5105 71.294C61.5105 72.9524 62.5154 74.1065 64.1951 74.1065ZM70.0643 74.1065C71.7191 74.1065 72.7489 72.9737 72.7489 71.294C72.7489 69.6037 71.7191 68.4744 70.0643 68.4744C68.4094 68.4744 67.3796 69.6037 67.3796 71.294C67.3796 72.9737 68.4094 74.1065 70.0643 74.1065ZM70.0714 72.9347C69.3079 72.9347 68.9173 72.2351 68.9173 71.2834C68.9173 70.3317 69.3079 69.6286 70.0714 69.6286C70.8207 69.6286 71.2113 70.3317 71.2113 71.2834C71.2113 72.2351 70.8207 72.9347 70.0714 72.9347ZM73.7326 74H75.2454V70.7259C75.2454 70.1222 75.6289 69.7209 76.1332 69.7209C76.6303 69.7209 76.9641 70.0618 76.9641 70.598V74H78.4308V70.669C78.4308 70.1044 78.7539 69.7209 79.3043 69.7209C79.7873 69.7209 80.1495 70.0227 80.1495 70.63V74H81.6587V70.3317C81.6587 69.1491 80.9556 68.4744 79.94 68.4744C79.141 68.4744 78.5195 68.8828 78.2958 69.5078H78.239C78.065 68.8757 77.5075 68.4744 76.7582 68.4744C76.0231 68.4744 75.4656 68.8651 75.2383 69.5078H75.1744V68.5455H73.7326V74ZM82.8537 76.0455H84.3665V73.1264H84.4126C84.6222 73.581 85.0803 74.0888 85.9609 74.0888C87.2038 74.0888 88.1733 73.1051 88.1733 71.2798C88.1733 69.4048 87.1612 68.4744 85.9645 68.4744C85.0518 68.4744 84.6151 69.0178 84.4126 69.4616H84.3452V68.5455H82.8537V76.0455ZM84.3345 71.2727C84.3345 70.2997 84.7464 69.6783 85.4815 69.6783C86.2308 69.6783 86.6286 70.3281 86.6286 71.2727C86.6286 72.2244 86.2237 72.8849 85.4815 72.8849C84.7536 72.8849 84.3345 72.2457 84.3345 71.2727ZM90.7372 74.103C91.5433 74.103 92.0653 73.7514 92.3317 73.2436H92.3743V74H93.8089V70.321C93.8089 69.0213 92.7081 68.4744 91.4936 68.4744C90.1868 68.4744 89.3274 69.0994 89.1179 70.0938L90.517 70.2074C90.62 69.8452 90.9432 69.5788 91.4865 69.5788C92.0014 69.5788 92.2962 69.8381 92.2962 70.2855V70.3068C92.2962 70.6584 91.9233 70.7045 90.9751 70.7969C89.8956 70.8963 88.9261 71.2585 88.9261 72.4766C88.9261 73.5561 89.6967 74.103 90.7372 74.103ZM91.1705 73.0589C90.7053 73.0589 90.3714 72.8423 90.3714 72.4268C90.3714 72.0007 90.723 71.7912 91.2557 71.7166C91.5859 71.6705 92.1257 71.5923 92.3068 71.4716V72.0504C92.3068 72.6222 91.8345 73.0589 91.1705 73.0589ZM96.4954 70.8466C96.4989 70.1435 96.918 69.7315 97.5288 69.7315C98.136 69.7315 98.5018 70.1293 98.4982 70.7969V74H100.011V70.527C100.011 69.2557 99.2653 68.4744 98.1289 68.4744C97.3192 68.4744 96.7333 68.8722 96.4883 69.5078H96.4244V68.5455H94.9826V74H96.4954V70.8466ZM101.942 76.0455C103.068 76.0455 103.664 75.4702 103.973 74.5895L106.093 68.5526L104.492 68.5455L103.352 72.5511H103.295L102.166 68.5455H100.575L102.531 74.1562L102.443 74.3871C102.244 74.8984 101.864 74.9233 101.331 74.7599L100.99 75.8892C101.207 75.9815 101.558 76.0455 101.942 76.0455ZM110.258 74H111.856L112.793 70.5696H112.861L113.798 74H115.4L116.881 68.5455H115.354L114.523 72.1889H114.477L113.582 68.5455H112.08L111.199 72.2102H111.149L110.304 68.5455H108.773L110.258 74ZM120.015 74.1065C121.67 74.1065 122.7 72.9737 122.7 71.294C122.7 69.6037 121.67 68.4744 120.015 68.4744C118.361 68.4744 117.331 69.6037 117.331 71.294C117.331 72.9737 118.361 74.1065 120.015 74.1065ZM120.023 72.9347C119.259 72.9347 118.868 72.2351 118.868 71.2834C118.868 70.3317 119.259 69.6286 120.023 69.6286C120.772 69.6286 121.162 70.3317 121.162 71.2834C121.162 72.2351 120.772 72.9347 120.023 72.9347ZM123.684 74H125.197V70.9141C125.197 70.2429 125.687 69.7812 126.354 69.7812C126.564 69.7812 126.851 69.8168 126.993 69.8629V68.5206C126.858 68.4886 126.67 68.4673 126.518 68.4673C125.907 68.4673 125.406 68.8224 125.207 69.4972H125.15V68.5455H123.684V74ZM127.776 74H129.288V72.267L129.697 71.8018L131.185 74H132.957L130.83 70.907L132.854 68.5455H131.117L129.37 70.6158H129.288V66.7273H127.776V74ZM133.596 74H135.109V68.5455H133.596V74ZM134.356 67.8423C134.807 67.8423 135.176 67.4979 135.176 67.0753C135.176 66.6562 134.807 66.3118 134.356 66.3118C133.908 66.3118 133.539 66.6562 133.539 67.0753C133.539 67.4979 133.908 67.8423 134.356 67.8423ZM137.833 70.8466C137.837 70.1435 138.256 69.7315 138.867 69.7315C139.474 69.7315 139.84 70.1293 139.836 70.7969V74H141.349V70.527C141.349 69.2557 140.603 68.4744 139.467 68.4744C138.657 68.4744 138.071 68.8722 137.826 69.5078H137.762V68.5455H136.32V74H137.833V70.8466ZM144.999 76.1591C146.558 76.1591 147.665 75.4489 147.665 74.0533V68.5455H146.163V69.4616H146.107C145.904 69.0178 145.46 68.4744 144.548 68.4744C143.351 68.4744 142.339 69.4048 142.339 71.2621C142.339 73.0767 143.322 73.9219 144.551 73.9219C145.421 73.9219 145.908 73.4851 146.107 73.0341H146.17V74.032C146.17 74.7812 145.691 75.0724 145.034 75.0724C144.366 75.0724 144.029 74.7812 143.905 74.451L142.506 74.6392C142.687 75.4986 143.528 76.1591 144.999 76.1591ZM145.031 72.7855C144.288 72.7855 143.884 72.196 143.884 71.255C143.884 70.3281 144.281 69.6783 145.031 69.6783C145.766 69.6783 146.178 70.2997 146.178 71.255C146.178 72.2173 145.759 72.7855 145.031 72.7855ZM24.0895 89.1065C25.4389 89.1065 26.348 88.4496 26.5611 87.4375L25.1619 87.3452C25.0092 87.7607 24.6186 87.9773 24.1143 87.9773C23.358 87.9773 22.8786 87.4766 22.8786 86.6634V86.6598H26.593V86.2443C26.593 84.3906 25.4709 83.4744 24.0291 83.4744C22.424 83.4744 21.3835 84.6143 21.3835 86.2976C21.3835 88.027 22.4098 89.1065 24.0895 89.1065ZM22.8786 85.7223C22.9105 85.1009 23.3828 84.6037 24.054 84.6037C24.7109 84.6037 25.1655 85.0724 25.169 85.7223H22.8786ZM30.5135 83.5455H29.4304V83.1797C29.4304 82.8104 29.5795 82.5938 30.0234 82.5938C30.2045 82.5938 30.3892 82.6328 30.5099 82.6719L30.7763 81.5355C30.5881 81.4787 30.1726 81.3864 29.7074 81.3864C28.6811 81.3864 27.9176 81.9652 27.9176 83.1513V83.5455H27.147V84.6818H27.9176V89H29.4304V84.6818H30.5135V83.5455ZM34.3709 83.5455H33.2878V83.1797C33.2878 82.8104 33.437 82.5938 33.8809 82.5938C34.062 82.5938 34.2466 82.6328 34.3674 82.6719L34.6337 81.5355C34.4455 81.4787 34.03 81.3864 33.5648 81.3864C32.5385 81.3864 31.775 81.9652 31.775 83.1513V83.5455H31.0044V84.6818H31.775V89H33.2878V84.6818H34.3709V83.5455ZM35.2951 89H36.8079V83.5455H35.2951V89ZM36.055 82.8423C36.506 82.8423 36.8754 82.4979 36.8754 82.0753C36.8754 81.6562 36.506 81.3118 36.055 81.3118C35.6076 81.3118 35.2383 81.6562 35.2383 82.0753C35.2383 82.4979 35.6076 82.8423 36.055 82.8423ZM40.4842 89.1065C41.9366 89.1065 42.8493 88.2543 42.9203 87.0007H41.4927C41.4039 87.5831 41.0204 87.9098 40.502 87.9098C39.7953 87.9098 39.3372 87.3168 39.3372 86.2727C39.3372 85.2429 39.7988 84.6534 40.502 84.6534C41.0559 84.6534 41.411 85.0192 41.4927 85.5625H42.9203C42.8564 84.3018 41.9011 83.4744 40.4771 83.4744C38.8223 83.4744 37.7995 84.6214 37.7995 86.294C37.7995 87.9524 38.8045 89.1065 40.4842 89.1065ZM43.8888 89H45.4016V83.5455H43.8888V89ZM44.6488 82.8423C45.0998 82.8423 45.4691 82.4979 45.4691 82.0753C45.4691 81.6562 45.0998 81.3118 44.6488 81.3118C44.2013 81.3118 43.832 81.6562 43.832 82.0753C43.832 82.4979 44.2013 82.8423 44.6488 82.8423ZM49.0993 89.1065C50.4487 89.1065 51.3578 88.4496 51.5708 87.4375L50.1717 87.3452C50.019 87.7607 49.6284 87.9773 49.1241 87.9773C48.3677 87.9773 47.8883 87.4766 47.8883 86.6634V86.6598H51.6028V86.2443C51.6028 84.3906 50.4806 83.4744 49.0389 83.4744C47.4338 83.4744 46.3933 84.6143 46.3933 86.2976C46.3933 88.027 47.4196 89.1065 49.0993 89.1065ZM47.8883 85.7223C47.9203 85.1009 48.3926 84.6037 49.0637 84.6037C49.7207 84.6037 50.1752 85.0724 50.1788 85.7223H47.8883ZM54.1028 85.8466C54.1064 85.1435 54.5254 84.7315 55.1362 84.7315C55.7434 84.7315 56.1092 85.1293 56.1056 85.7969V89H57.6184V85.527C57.6184 84.2557 56.8727 83.4744 55.7363 83.4744C54.9267 83.4744 54.3407 83.8722 54.0957 84.5078H54.0318V83.5455H52.59V89H54.1028V85.8466ZM61.712 83.5455H60.6857V82.2386H59.1729V83.5455H58.4272V84.6818H59.1729V87.5227C59.1658 88.5916 59.8938 89.1207 60.9911 89.0746C61.3817 89.0604 61.6587 88.9822 61.8114 88.9325L61.5735 87.8068C61.4989 87.821 61.3391 87.8565 61.1971 87.8565C60.8952 87.8565 60.6857 87.7429 60.6857 87.3239V84.6818H61.712V83.5455ZM63.6314 91.0455C64.7571 91.0455 65.3537 90.4702 65.6626 89.5895L67.7827 83.5526L66.1811 83.5455L65.0412 87.5511H64.9844L63.8551 83.5455H62.2642L64.2209 89.1562L64.1321 89.3871C63.9332 89.8984 63.5533 89.9233 63.0206 89.7599L62.6797 90.8892C62.8963 90.9815 63.2479 91.0455 63.6314 91.0455ZM73.3358 89.1065C74.9906 89.1065 76.0204 87.9737 76.0204 86.294C76.0204 84.6037 74.9906 83.4744 73.3358 83.4744C71.6809 83.4744 70.6511 84.6037 70.6511 86.294C70.6511 87.9737 71.6809 89.1065 73.3358 89.1065ZM73.3429 87.9347C72.5794 87.9347 72.1887 87.2351 72.1887 86.2834C72.1887 85.3317 72.5794 84.6286 73.3429 84.6286C74.0922 84.6286 74.4828 85.3317 74.4828 86.2834C74.4828 87.2351 74.0922 87.9347 73.3429 87.9347ZM78.5169 85.8466C78.5204 85.1435 78.9395 84.7315 79.5502 84.7315C80.1575 84.7315 80.5233 85.1293 80.5197 85.7969V89H82.0325V85.527C82.0325 84.2557 81.2868 83.4744 80.1504 83.4744C79.3407 83.4744 78.7548 83.8722 78.5098 84.5078H78.4458V83.5455H77.0041V89H78.5169V85.8466ZM87.0946 89.103C87.9007 89.103 88.4228 88.7514 88.6891 88.2436H88.7317V89H90.1664V85.321C90.1664 84.0213 89.0655 83.4744 87.851 83.4744C86.5442 83.4744 85.6848 84.0994 85.4753 85.0938L86.8745 85.2074C86.9775 84.8452 87.3006 84.5788 87.8439 84.5788C88.3588 84.5788 88.6536 84.8381 88.6536 85.2855V85.3068C88.6536 85.6584 88.2807 85.7045 87.3326 85.7969C86.253 85.8963 85.2836 86.2585 85.2836 87.4766C85.2836 88.5561 86.0542 89.103 87.0946 89.103ZM87.5279 88.0589C87.0627 88.0589 86.7289 87.8423 86.7289 87.4268C86.7289 87.0007 87.0804 86.7912 87.6131 86.7166C87.9434 86.6705 88.4831 86.5923 88.6642 86.4716V87.0504C88.6642 87.6222 88.1919 88.0589 87.5279 88.0589ZM98.1928 85.1009C98.0579 84.0959 97.2482 83.4744 95.8704 83.4744C94.4748 83.4744 93.555 84.1207 93.5586 85.1719C93.555 85.9886 94.07 86.5178 95.1353 86.7308L96.0799 86.919C96.5558 87.0149 96.7724 87.1889 96.7795 87.4624C96.7724 87.7855 96.4208 88.0163 95.8917 88.0163C95.3519 88.0163 94.9933 87.7855 94.9009 87.3416L93.413 87.4197C93.555 88.4638 94.4428 89.1065 95.8881 89.1065C97.3015 89.1065 98.3136 88.3857 98.3171 87.3097C98.3136 86.5213 97.7987 86.049 96.7404 85.8324L95.7532 85.6335C95.2454 85.5234 95.0572 85.3494 95.0607 85.0866C95.0572 84.7599 95.4265 84.5469 95.8952 84.5469C96.4208 84.5469 96.7333 84.8345 96.8079 85.1861L98.1928 85.1009ZM100.204 91.0455C101.329 91.0455 101.926 90.4702 102.235 89.5895L104.355 83.5526L102.753 83.5455L101.613 87.5511H101.557L100.427 83.5455H98.8365L100.793 89.1562L100.704 89.3871C100.506 89.8984 100.126 89.9233 99.5929 89.7599L99.252 90.8892C99.4686 90.9815 99.8201 91.0455 100.204 91.0455ZM106.642 85.8466C106.645 85.1435 107.064 84.7315 107.675 84.7315C108.282 84.7315 108.648 85.1293 108.645 85.7969V89H110.157V85.527C110.157 84.2557 109.412 83.4744 108.275 83.4744C107.466 83.4744 106.88 83.8722 106.635 84.5078H106.571V83.5455H105.129V89H106.642V85.8466ZM113.814 89.1065C115.267 89.1065 116.179 88.2543 116.25 87.0007H114.823C114.734 87.5831 114.35 87.9098 113.832 87.9098C113.125 87.9098 112.667 87.3168 112.667 86.2727C112.667 85.2429 113.129 84.6534 113.832 84.6534C114.386 84.6534 114.741 85.0192 114.823 85.5625H116.25C116.186 84.3018 115.231 83.4744 113.807 83.4744C112.152 83.4744 111.13 84.6214 111.13 86.294C111.13 87.9524 112.135 89.1065 113.814 89.1065ZM120.815 89L121.355 87.3416H123.979L124.519 89H126.167L123.66 81.7273H121.678L119.168 89H120.815ZM121.746 86.1413L122.641 83.3892H122.697L123.592 86.1413H121.746ZM130.822 83.8189H132.295C132.274 82.5227 131.209 81.6278 129.589 81.6278C127.995 81.6278 126.827 82.5085 126.834 83.8295C126.83 84.902 127.586 85.5163 128.815 85.8111L129.607 86.0099C130.399 86.2017 130.839 86.429 130.843 86.919C130.839 87.4517 130.335 87.8139 129.554 87.8139C128.755 87.8139 128.18 87.4446 128.13 86.7166H126.642C126.681 88.2898 127.807 89.103 129.572 89.103C131.347 89.103 132.391 88.2543 132.395 86.9226C132.391 85.7116 131.479 85.0689 130.214 84.7848L129.561 84.6286C128.929 84.483 128.4 84.2486 128.41 83.7266C128.41 83.2578 128.826 82.9134 129.579 82.9134C130.314 82.9134 130.765 83.2472 130.822 83.8189ZM134.517 89L135.056 87.3416H137.681L138.22 89H139.868L137.361 81.7273H135.379L132.869 89H134.517ZM135.447 86.1413L136.342 83.3892H136.399L137.294 86.1413H135.447ZM140.743 89H142.281V86.642H143.574C145.246 86.642 146.219 85.6442 146.219 84.1918C146.219 82.7464 145.264 81.7273 143.613 81.7273H140.743V89ZM142.281 85.4098V82.9844H143.318C144.206 82.9844 144.635 83.4673 144.635 84.1918C144.635 84.9126 144.206 85.4098 143.325 85.4098H142.281ZM148.997 81.7273H147.417L147.559 86.8196H148.859L148.997 81.7273ZM148.209 89.0923C148.663 89.0923 149.058 88.7124 149.061 88.2401C149.058 87.7749 148.663 87.3949 148.209 87.3949C147.74 87.3949 147.353 87.7749 147.357 88.2401C147.353 88.7124 147.74 89.0923 148.209 89.0923Z" fill="#0D0D0D"/>
<g clip-path="url(#clip0_436_504)">
<path d="M103.469 119.732H55.595V159.887H103.469V119.732Z" fill="#F2F2F2"/>
<path d="M116.057 185.476L116.03 185.377C116.043 185.369 116.059 185.36 116.076 185.349C116.147 185.307 116.248 185.248 116.37 185.181C116.614 185.046 116.942 184.878 117.277 184.744C117.614 184.609 117.948 184.513 118.208 184.513C118.338 184.513 118.441 184.537 118.516 184.583C118.589 184.628 118.644 184.699 118.672 184.812C118.811 185.365 119.155 186.189 119.46 186.868C119.614 187.209 119.759 187.516 119.865 187.738C119.918 187.849 119.962 187.938 119.992 188L120.015 188.046L118.712 190.131C118.705 190.132 118.697 190.132 118.688 190.132C118.64 190.135 118.572 190.138 118.491 190.14C118.327 190.145 118.109 190.145 117.893 190.128C117.675 190.111 117.466 190.078 117.314 190.019C117.155 189.959 117.101 189.889 117.101 189.82C117.101 189.741 117.083 189.611 117.053 189.452C117.023 189.29 116.98 189.09 116.929 188.866C116.827 188.419 116.69 187.874 116.554 187.346C116.418 186.819 116.282 186.309 116.18 185.93C116.129 185.741 116.086 185.585 116.057 185.476Z" fill="white" stroke="black" stroke-width="0.2"/>
<path d="M117.953 189.003C117.953 189.003 119.585 189.412 119.585 188.187C119.585 186.963 120.265 187.507 120.265 187.507C120.265 187.507 121.897 188.459 121.217 189.412C120.537 190.364 119.313 191.452 118.905 192.404C118.497 193.356 117.273 195.94 115.913 195.396C114.553 194.852 115.505 193.628 115.505 193.628C115.505 193.628 116.593 191.996 116.321 190.636C116.049 189.276 115.913 188.595 116.321 188.595C116.729 188.595 117.409 188.187 117.409 188.731C117.409 189.276 117.953 189.003 117.953 189.003Z" fill="#2F2E41"/>
<path d="M117.885 138.477C120.74 138.477 123.054 136.164 123.054 133.309C123.054 130.455 120.74 128.141 117.885 128.141C115.031 128.141 112.717 130.455 112.717 133.309C112.717 136.164 115.031 138.477 117.885 138.477Z" fill="#0D0D0D"/>
<path d="M117.341 133.581C119.895 133.581 121.966 131.511 121.966 128.957C121.966 126.403 119.895 124.333 117.341 124.333C114.787 124.333 112.717 126.403 112.717 128.957C112.717 131.511 114.787 133.581 117.341 133.581Z" fill="#0D0D0D"/>
<path d="M114.893 156.294L112.173 156.022L111.063 153.306L111.221 150.854H114.893V156.294Z" fill="#3F3D56"/>
<path opacity="0.1" d="M114.893 156.294L112.173 156.022L111.063 153.306L111.221 150.854H114.893V156.294Z" fill="black"/>
<path d="M118.361 140.45H118.261V140.532L118.342 140.548L118.829 140.645L117.36 141.991L115.271 142.513C115.266 142.507 115.26 142.5 115.254 142.493C115.218 142.448 115.168 142.383 115.109 142.305C114.991 142.147 114.841 141.933 114.707 141.708C114.573 141.481 114.46 141.249 114.412 141.053C114.364 140.852 114.392 140.73 114.477 140.666C114.567 140.598 114.637 140.48 114.695 140.344C114.753 140.205 114.805 140.032 114.85 139.842C114.941 139.46 115.009 138.992 115.061 138.54C115.112 138.087 115.146 137.648 115.167 137.322C115.178 137.159 115.185 137.024 115.19 136.93C115.191 136.917 115.191 136.906 115.192 136.895C115.211 136.899 115.231 136.902 115.254 136.906C115.365 136.926 115.522 136.955 115.709 136.991C116.085 137.063 116.58 137.164 117.062 137.283C117.546 137.402 118.011 137.536 118.328 137.673C118.489 137.742 118.6 137.807 118.659 137.864C118.688 137.893 118.696 137.911 118.698 137.919L118.698 137.919C118.698 137.923 118.699 137.928 118.689 137.942C118.574 138.096 118.494 138.334 118.436 138.592C118.377 138.853 118.338 139.146 118.313 139.42C118.287 139.695 118.274 139.952 118.268 140.14C118.265 140.235 118.263 140.312 118.262 140.365L118.261 140.428L118.261 140.444L118.261 140.448L118.261 140.449L118.261 140.45V140.45L118.361 140.45Z" fill="white" stroke="black" stroke-width="0.2"/>
<path d="M115.935 147.354L118.697 147.749L118.724 147.818C118.755 147.898 118.799 148.013 118.855 148.154C118.965 148.435 119.119 148.818 119.289 149.227C119.628 150.04 120.04 150.968 120.318 151.386C120.376 151.472 120.424 151.604 120.46 151.778C120.496 151.95 120.518 152.155 120.531 152.381C120.556 152.834 120.54 153.365 120.506 153.874C120.472 154.381 120.421 154.864 120.379 155.22C120.357 155.398 120.338 155.544 120.325 155.646C120.318 155.694 120.313 155.732 120.309 155.759L118.451 156.953L118.442 156.957L118.389 156.977C118.343 156.996 118.275 157.022 118.188 157.054C118.015 157.118 117.768 157.207 117.472 157.304C116.879 157.499 116.093 157.727 115.318 157.862C114.539 157.997 113.786 158.036 113.249 157.865C112.983 157.78 112.777 157.647 112.644 157.454C112.512 157.262 112.444 157 112.477 156.643C112.614 155.131 112.339 153.487 112.032 152.225C111.879 151.593 111.716 151.055 111.592 150.674C111.53 150.484 111.478 150.334 111.441 150.23C111.43 150.198 111.42 150.171 111.411 150.148L115.935 147.354Z" fill="white" stroke="black" stroke-width="0.2"/>
<path d="M134.134 165.595C134.124 165.591 134.114 165.586 134.103 165.58C134.041 165.549 133.954 165.504 133.85 165.447C133.644 165.334 133.376 165.177 133.13 165C132.881 164.821 132.663 164.627 132.547 164.444C132.489 164.353 132.461 164.272 132.46 164.201C132.459 164.133 132.482 164.066 132.547 163.997C132.88 163.646 133.313 163.027 133.659 162.501C133.832 162.237 133.985 161.994 134.095 161.818C134.15 161.73 134.194 161.658 134.224 161.608L134.242 161.578L136.303 161.563C136.306 161.566 136.308 161.569 136.31 161.573C136.334 161.605 136.367 161.652 136.405 161.709C136.482 161.824 136.58 161.979 136.666 162.14C136.753 162.303 136.823 162.465 136.85 162.598C136.878 162.737 136.851 162.798 136.811 162.824C136.753 162.86 136.668 162.933 136.568 163.026C136.466 163.121 136.343 163.243 136.207 163.381C135.934 163.657 135.607 164.001 135.292 164.337C134.978 164.673 134.675 165.002 134.452 165.246C134.34 165.368 134.248 165.47 134.184 165.54L134.134 165.595Z" fill="white" stroke="black" stroke-width="0.2"/>
<path d="M135.851 162.599C135.851 162.599 135.402 161.251 134.529 161.805C133.657 162.36 133.736 161.629 133.736 161.629C133.736 161.629 133.675 160.033 134.662 160.087C135.65 160.14 136.98 160.52 137.844 160.379C138.708 160.239 141.105 159.94 141.334 161.157C141.562 162.373 140.258 162.249 140.258 162.249C140.258 162.249 138.601 162.213 137.754 163.023C136.908 163.834 136.485 164.239 136.3 163.948C136.115 163.657 135.516 163.357 135.904 163.11C136.292 162.864 135.851 162.599 135.851 162.599Z" fill="#2F2E41"/>
<path d="M108.297 123.313C108.201 123.342 108.201 123.342 108.201 123.342L108.201 123.342L108.202 123.344L108.203 123.349L108.209 123.369L108.233 123.449L108.325 123.756C108.403 124.022 108.517 124.404 108.654 124.871C108.928 125.806 109.297 127.081 109.68 128.44C110.445 131.163 111.259 134.216 111.462 135.568C111.669 136.947 112.187 137.881 112.656 138.472C112.89 138.767 113.112 138.976 113.276 139.112C113.358 139.179 113.426 139.229 113.473 139.262C113.476 139.264 113.479 139.266 113.482 139.267C113.468 139.308 113.448 139.366 113.423 139.437C113.37 139.592 113.292 139.813 113.197 140.076C113.006 140.602 112.743 141.297 112.455 141.975C112.167 142.654 111.855 143.31 111.566 143.762C111.421 143.989 111.287 144.156 111.17 144.25C111.112 144.297 111.064 144.32 111.026 144.328C110.992 144.334 110.964 144.329 110.937 144.311C110.909 144.293 110.865 144.238 110.809 144.125C110.755 144.017 110.697 143.872 110.636 143.692C110.515 143.332 110.385 142.844 110.252 142.272C109.985 141.127 109.704 139.65 109.45 138.188C109.195 136.727 108.965 135.283 108.8 134.204C108.717 133.664 108.65 133.216 108.604 132.903C108.581 132.746 108.563 132.623 108.55 132.54L108.537 132.444L108.533 132.42L108.532 132.413L108.532 132.412L108.532 132.411C108.532 132.411 108.532 132.411 108.433 132.425L108.532 132.411L108.531 132.404L106.627 123.564L106.623 123.547L106.614 123.533L106.614 123.533L106.614 123.533L106.614 123.533L106.613 123.532L106.61 123.527L106.599 123.507C106.588 123.489 106.573 123.462 106.553 123.427C106.515 123.357 106.46 123.255 106.396 123.124C106.267 122.864 106.104 122.495 105.961 122.058C105.675 121.182 105.477 120.05 105.808 118.991C105.849 118.86 105.892 118.769 105.935 118.709C105.978 118.65 106.015 118.627 106.044 118.62C106.072 118.613 106.107 118.616 106.157 118.643C106.207 118.67 106.265 118.718 106.329 118.79C106.59 119.081 106.886 119.678 107.167 120.359C107.447 121.036 107.705 121.781 107.894 122.358C107.988 122.646 108.065 122.892 108.118 123.066C108.145 123.153 108.166 123.222 108.18 123.269L108.196 123.323L108.2 123.337L108.201 123.34L108.201 123.341L108.201 123.341L108.297 123.313ZM108.297 123.313L108.201 123.342L108.201 123.341L108.297 123.313Z" fill="white" stroke="black" stroke-width="0.2"/>
<path d="M132.702 128.545L132.772 128.617L132.772 128.617L132.773 128.616L132.775 128.614L132.786 128.604L132.826 128.565C132.862 128.531 132.914 128.481 132.98 128.419C133.112 128.294 133.3 128.118 133.525 127.914C133.974 127.506 134.567 126.986 135.145 126.536C135.726 126.082 136.278 125.71 136.649 125.586C136.741 125.556 136.815 125.542 136.872 125.544C136.928 125.545 136.961 125.56 136.981 125.58C137.003 125.6 137.024 125.638 137.031 125.711C137.039 125.784 137.032 125.885 137.003 126.018C136.767 127.103 136.035 127.99 135.353 128.609C135.014 128.918 134.688 129.158 134.448 129.321C134.328 129.403 134.23 129.465 134.162 129.506C134.127 129.527 134.101 129.543 134.083 129.553L134.063 129.565L134.058 129.567L134.057 129.568L134.056 129.568L134.056 129.568L134.056 129.568L134.041 129.576L134.03 129.589L128.004 136.332L128.004 136.332L128 136.337L128.079 136.398C128 136.337 128 136.337 128 136.337L127.999 136.338L127.998 136.339L127.995 136.344L127.979 136.363L127.92 136.439C127.868 136.506 127.792 136.604 127.694 136.729C127.499 136.978 127.219 137.335 126.881 137.763C126.203 138.619 125.29 139.761 124.346 140.905C123.401 142.049 122.428 143.195 121.63 144.058C121.23 144.489 120.876 144.849 120.593 145.102C120.451 145.228 120.329 145.326 120.229 145.393C120.124 145.463 120.059 145.489 120.026 145.491C119.993 145.494 119.966 145.484 119.94 145.462C119.911 145.436 119.881 145.392 119.853 145.323C119.798 145.184 119.764 144.972 119.75 144.703C119.723 144.168 119.776 143.443 119.861 142.71C119.946 141.978 120.061 141.244 120.155 140.693C120.202 140.417 120.244 140.187 120.274 140.026C120.288 139.951 120.299 139.892 120.307 139.849C120.311 139.849 120.314 139.849 120.317 139.848C120.375 139.843 120.458 139.834 120.563 139.815C120.773 139.779 121.069 139.707 121.419 139.566C122.118 139.285 123.03 138.729 123.892 137.632C124.737 136.557 126.954 134.306 128.965 132.318C129.97 131.325 130.921 130.4 131.622 129.723C131.972 129.385 132.26 129.108 132.459 128.916L132.69 128.695L132.751 128.637L132.766 128.622L132.77 128.619L132.771 128.618L132.771 128.617C132.771 128.617 132.771 128.617 132.703 128.546L132.771 128.617L132.772 128.617L132.702 128.545Z" fill="white" stroke="black" stroke-width="0.2"/>
<path d="M120.709 135.553C120.709 137.376 119.232 138.854 117.409 138.854C115.587 138.854 114.109 137.376 114.109 135.553C114.109 133.731 115.587 132.253 117.409 132.253C119.232 132.253 120.709 133.731 120.709 135.553Z" fill="white" stroke="black" stroke-width="0.2"/>
<path d="M120.643 153.678C120.643 153.678 115.913 157.042 114.145 156.498C112.377 155.954 112.105 155.546 112.105 155.546C112.105 155.546 110.473 166.699 111.697 171.051C111.697 171.051 111.833 175.403 113.057 177.035L115.913 186.419C115.913 186.419 119.041 186.283 119.041 185.195C119.041 185.195 118.633 182.883 118.633 181.251C118.633 179.619 116.457 175.539 116.457 175.539L117.953 164.115C117.953 164.115 123.666 175.539 125.978 174.723C128.29 173.907 134.818 165.339 134.818 165.339L132.778 163.434C132.778 163.434 127.066 166.835 126.386 168.603C126.386 168.603 121.837 154.666 120.643 153.678Z" fill="#1A191B"/>
<path d="M117.001 140.994C117.001 140.994 118.769 139.634 119.041 139.634H120.81C120.81 139.634 122.17 142.898 121.626 144.258C121.626 144.258 120.946 147.794 120.81 148.066C120.673 148.338 120.81 149.154 121.082 149.97C121.354 150.786 122.17 152.554 121.762 152.962C121.354 153.37 120.946 154.458 120.673 154.458C120.401 154.458 118.225 152.418 117.817 151.058C117.409 149.698 117.409 149.29 116.457 149.834C115.505 150.378 111.289 150.106 111.561 152.282C111.684 153.379 111.865 154.469 112.105 155.546C112.105 155.546 110.473 156.09 110.201 153.506C109.929 150.922 109.657 150.786 110.473 149.834C111.289 148.882 110.201 144.938 110.201 144.938C110.201 144.938 111.561 142.626 111.833 141.402C112.105 140.178 113.193 138.954 113.193 138.954C113.193 138.954 113.873 138.546 114.281 138.818C114.689 139.09 114.907 138.954 114.907 138.954C114.907 138.954 114.145 140.858 114.961 140.858C115.777 140.858 117.001 140.994 117.001 140.994Z" fill="#1C1C23"/>
<path opacity="0.1" d="M114.961 155.75C115.074 155.75 115.165 155.567 115.165 155.342C115.165 155.117 115.074 154.934 114.961 154.934C114.849 154.934 114.757 155.117 114.757 155.342C114.757 155.567 114.849 155.75 114.961 155.75Z" fill="black"/>
<path d="M117.749 135.078C120.003 135.078 121.829 133.921 121.829 132.494C121.829 131.066 120.003 129.909 117.749 129.909C115.496 129.909 113.669 131.066 113.669 132.494C113.669 133.921 115.496 135.078 117.749 135.078Z" fill="#0D0D0D"/>
<path d="M47.9787 150.038C51.1335 150.038 53.6909 146.567 53.6909 142.286C53.6909 138.004 51.1335 134.533 47.9787 134.533C44.8239 134.533 42.2665 138.004 42.2665 142.286C42.2665 146.567 44.8239 150.038 47.9787 150.038Z" fill="#2F2E41"/>
<path d="M57.431 129.977L57.3502 129.918L57.3341 129.94L57.3315 129.968L57.431 129.977ZM57.431 129.977L57.3315 129.968L57.3314 129.968L57.3313 129.969L57.3309 129.974L57.3291 129.992L57.3222 130.064L57.2954 130.34C57.272 130.578 57.238 130.92 57.1955 131.338C57.1106 132.173 56.9916 133.307 56.8557 134.505C56.5833 136.906 56.244 139.549 55.9744 140.56C55.9278 140.734 55.8715 140.949 55.8065 141.197C55.4907 142.4 54.9718 144.378 54.3944 146.251C54.0462 147.381 53.6775 148.47 53.3202 149.326C53.1415 149.754 52.9666 150.122 52.7995 150.407C52.6305 150.695 52.4763 150.886 52.3434 150.975L52.3213 150.989L52.3094 151.013L51.1072 153.418L49.8796 153.663L48.6925 150.365L48.8249 149.041L49.4967 147.251L49.5071 147.241L49.5811 147.167C49.645 147.104 49.7365 147.012 49.8471 146.9C50.0682 146.675 50.366 146.366 50.6726 146.032C50.9789 145.698 51.2949 145.337 51.5518 145.008C51.8058 144.682 52.0116 144.376 52.0857 144.153C52.1554 143.944 52.4118 142.918 52.7553 141.506C53.0996 140.09 53.5332 138.28 53.9582 136.495C54.3832 134.709 54.7997 132.95 55.11 131.636C55.2651 130.98 55.3937 130.435 55.4835 130.054L55.5876 129.612L55.6149 129.496L55.6219 129.466L55.6231 129.461L55.6232 129.461L55.629 129.444L55.6519 129.38C55.6721 129.324 55.7018 129.242 55.7401 129.138C55.8166 128.931 55.9274 128.636 56.0642 128.288C56.3378 127.592 56.715 126.686 57.1298 125.839C57.5461 124.99 57.9954 124.211 58.4116 123.764C58.6217 123.538 58.8087 123.413 58.9655 123.388C59.0406 123.377 59.1101 123.388 59.177 123.425C59.2455 123.462 59.3166 123.53 59.387 123.639C59.6724 124.083 59.7026 124.689 59.5706 125.368C59.4391 126.044 59.1499 126.775 58.8202 127.451C58.4909 128.127 58.1232 128.744 57.8376 129.192C57.6948 129.417 57.5728 129.598 57.4865 129.724C57.4433 129.787 57.4091 129.836 57.3858 129.869L57.3591 129.906L57.3523 129.915L57.3507 129.918L57.3503 129.918L57.3502 129.918L57.431 129.977Z" fill="white" stroke="black" stroke-width="0.2"/>
<path d="M61.6756 186.425L61.6832 186.441V187.562L60.4341 187.811L60.4167 187.804L60.2859 187.748C60.1728 187.699 60.0106 187.63 59.8138 187.547C59.4203 187.381 58.8885 187.16 58.3352 186.939C57.7821 186.717 57.2067 186.496 56.7264 186.329C56.4863 186.246 56.2688 186.176 56.0891 186.127C55.9128 186.079 55.7629 186.047 55.663 186.047C55.6389 186.047 55.6253 186.042 55.6163 186.035C55.6064 186.028 55.5946 186.014 55.5838 185.987C55.5609 185.931 55.5516 185.838 55.5608 185.708C55.5791 185.453 55.6653 185.105 55.7755 184.749C55.885 184.395 56.0159 184.04 56.1195 183.774C56.1713 183.641 56.2162 183.53 56.2482 183.452C56.2542 183.438 56.2598 183.424 56.2649 183.412C56.2815 183.417 56.3003 183.422 56.3213 183.428C56.4118 183.453 56.5415 183.488 56.6983 183.528C57.0119 183.61 57.4347 183.712 57.8708 183.798C58.306 183.883 58.7584 183.952 59.1297 183.965C59.3151 183.972 59.4848 183.964 59.6241 183.936C59.7598 183.909 59.8857 183.857 59.9591 183.759C59.9723 183.742 59.9812 183.739 59.9854 183.739C59.9919 183.738 60.0075 183.738 60.0359 183.751C60.0956 183.779 60.176 183.848 60.273 183.96C60.4639 184.182 60.6852 184.532 60.8972 184.905C61.1084 185.277 61.3072 185.666 61.4534 185.962C61.5264 186.11 61.5862 186.235 61.6277 186.323C61.6485 186.367 61.6646 186.402 61.6756 186.425Z" fill="white" stroke="black" stroke-width="0.2"/>
<path d="M60.4231 185.331C60.4231 185.331 58.5191 183.699 58.9271 183.427C59.3351 183.155 60.9671 181.251 61.7832 182.339C62.5992 183.427 66.2714 189.412 65.3193 190.772C64.3673 192.132 63.6873 191.316 63.6873 191.316C63.6873 191.316 61.1578 187.915 60.1784 187.915C60.1784 187.915 61.5112 186.419 60.4231 185.331Z" fill="#2F2E41"/>
<path d="M46.926 195.726C46.9257 195.701 46.9254 195.678 46.9251 195.658L49.7042 196.289C49.5855 197.297 49.7207 198.325 49.8869 199.106C49.9726 199.509 50.0669 199.847 50.1398 200.085C50.1763 200.204 50.2075 200.298 50.2296 200.363C50.2328 200.372 50.2357 200.381 50.2385 200.389L47.3319 202.371L47.3268 202.371C47.3067 202.373 47.2772 202.375 47.2399 202.377C47.1654 202.382 47.0602 202.387 46.9377 202.389C46.6916 202.393 46.3804 202.385 46.1094 202.336C45.9739 202.311 45.8524 202.277 45.7555 202.231C45.6578 202.186 45.5935 202.132 45.5598 202.074C45.5001 201.97 45.5064 201.783 45.8088 201.447C46.1312 201.089 46.3571 200.534 46.5177 199.918C46.679 199.298 46.7774 198.604 46.8371 197.955C46.8969 197.306 46.9183 196.699 46.9247 196.256C46.9279 196.034 46.9273 195.852 46.926 195.726Z" fill="white" stroke="black" stroke-width="0.2"/>
<path d="M50.3588 199.34C50.3588 199.34 50.0867 199.068 49.4067 199.884C48.7267 200.7 47.3666 201.652 46.5506 200.836C45.7346 200.02 45.7346 200.7 45.7346 200.7C45.7346 200.7 43.9665 203.556 42.4705 203.964C40.9744 204.372 42.0624 205.732 43.4225 205.188C44.7825 204.644 51.4468 202.332 51.4468 202.332C51.4468 202.332 51.3108 200.428 50.3588 199.34Z" fill="#2F2E41"/>
<path d="M38.4741 166.345L40.4402 163.33L41.6609 164.795L39.9447 166.907L39.9342 166.92L39.9285 166.936L39.9285 166.936L39.9284 166.936L39.9283 166.937L39.9275 166.939L39.9244 166.947L39.9117 166.98C39.9004 167.009 39.8833 167.052 39.8607 167.107C39.8153 167.216 39.7475 167.372 39.6581 167.558C39.4791 167.931 39.2142 168.423 38.8701 168.901C38.1766 169.865 37.1891 170.738 35.9578 170.544C35.6466 170.495 35.4729 170.396 35.3856 170.279C35.3004 170.165 35.2816 170.012 35.3315 169.815C35.3816 169.617 35.4983 169.389 35.6642 169.142C35.8294 168.896 36.0396 168.638 36.2715 168.381C36.7352 167.866 37.2801 167.363 37.7101 166.988C37.9249 166.801 38.1106 166.646 38.2425 166.538C38.3085 166.484 38.3609 166.442 38.3969 166.413L38.438 166.38L38.4485 166.372L38.4512 166.37L38.4518 166.369L38.4519 166.369L38.3903 166.29L38.452 166.369L38.465 166.359L38.4741 166.345Z" fill="white" stroke="black" stroke-width="0.2"/>
<path d="M39.7504 162.618C39.7504 162.618 42.0625 166.019 43.1505 166.291C44.2385 166.563 43.8305 163.706 43.8305 163.706L39.7504 162.618Z" fill="black"/>
<path opacity="0.1" d="M39.7504 162.618C39.7504 162.618 42.0625 166.019 43.1505 166.291C44.2385 166.563 43.8305 163.706 43.8305 163.706L39.7504 162.618Z" fill="black"/>
<path d="M42.7425 162.346L43.1505 169.419C43.1505 169.419 41.6544 179.891 43.9665 182.339C43.9665 182.339 45.3266 186.011 45.3266 187.371C45.3266 188.731 46.2786 196.892 46.2786 196.892H50.2228C50.2228 196.892 51.0388 185.603 48.8627 182.067V162.754L42.7425 162.346Z" fill="#2A2A2A"/>
<path opacity="0.1" d="M42.6755 176.362C42.6949 178.856 42.9934 181.309 43.9666 182.339C43.9666 182.339 45.3267 186.011 45.3267 187.371C45.3267 188.731 46.2787 196.892 46.2787 196.892H50.2228C50.2228 196.892 51.0389 185.603 48.8628 182.067V177.017" fill="black"/>
<path d="M46.9587 163.979L42.8786 174.723C42.8786 174.723 40.4305 183.971 43.4226 184.923C46.4147 185.875 54.167 185.603 55.391 186.555C56.6151 187.507 57.2951 183.699 56.8871 183.291C56.4791 182.883 49.9508 180.707 47.2307 180.707C47.2307 180.707 54.439 170.915 52.6709 168.739C50.9029 166.563 48.4548 163.843 46.9587 163.979Z" fill="#2A2A2A"/>
<path d="M46.0066 143.306C46.0066 143.306 46.1427 146.978 45.4626 147.114C44.9046 147.25 44.3587 147.432 43.8306 147.658V149.698L44.9186 150.378L47.6387 148.746L48.7268 147.794L49.8148 146.842C49.8148 146.842 49.1348 144.938 49.8148 143.714L46.0066 143.306Z" fill="white"/>
<path d="M45.4626 149.154C45.4626 149.154 47.7746 146.978 48.3187 147.114C48.8627 147.25 50.4267 146.23 50.4267 146.23C50.1241 147.274 49.9192 148.344 49.8147 149.426C49.7411 150.31 49.9068 150.795 50.0742 151.054C50.2683 151.346 50.426 151.66 50.5436 151.99C50.7687 152.648 51.1857 153.443 51.7188 152.554C51.7188 152.554 51.4468 154.05 51.1748 158.402C50.9028 162.755 52.3988 165.747 52.3988 165.747C52.3988 165.747 53.6229 169.011 53.0788 169.691C53.0788 169.691 48.8627 166.971 49.1347 165.747C49.1347 165.747 39.3423 164.387 39.3423 162.619C39.3397 162.109 39.4624 161.607 39.6996 161.157C39.9368 160.706 40.2811 160.321 40.7024 160.035C40.7934 159.201 40.9758 158.38 41.2464 157.586C41.2464 157.586 39.7503 154.458 41.1104 151.874C41.1104 151.874 39.8863 148.338 41.5184 147.522C43.1505 146.706 45.1905 147.114 45.1905 147.114C45.1905 147.114 43.2865 148.338 44.5105 149.018L45.4626 149.154Z" fill="black"/>
<path d="M51.3467 141.538C51.3467 143.36 49.8692 144.838 48.0466 144.838C46.224 144.838 44.7465 143.36 44.7465 141.538C44.7465 139.715 46.224 138.238 48.0466 138.238C49.8692 138.238 51.3467 139.715 51.3467 141.538Z" fill="white" stroke="black" stroke-width="0.2"/>
<path d="M48.3186 141.47C50.3843 141.47 52.0588 140.587 52.0588 139.498C52.0588 138.409 50.3843 137.526 48.3186 137.526C46.253 137.526 44.5785 138.409 44.5785 139.498C44.5785 140.587 46.253 141.47 48.3186 141.47Z" fill="#2F2E41"/>
<path d="M43.8986 136.982C44.4995 136.982 44.9866 136.495 44.9866 135.894C44.9866 135.293 44.4995 134.806 43.8986 134.806C43.2977 134.806 42.8105 135.293 42.8105 135.894C42.8105 136.495 43.2977 136.982 43.8986 136.982Z" fill="#2F2E41"/>
<path d="M52.0589 136.982C52.6598 136.982 53.1469 136.495 53.1469 135.894C53.1469 135.293 52.6598 134.806 52.0589 134.806C51.458 134.806 50.9708 135.293 50.9708 135.894C50.9708 136.495 51.458 136.982 52.0589 136.982Z" fill="#2F2E41"/>
<path d="M32.6101 205.392H148.381" stroke="#3F3D56" stroke-miterlimit="10"/>
<path d="M106.461 116.173H58.5872V156.328H106.461V116.173Z" stroke="#3F3D56" stroke-miterlimit="10"/>
<path d="M82.524 129.401V126.833L79.1606 130.257L82.524 133.682V131.113C85.2987 131.113 87.5692 133.425 87.5692 136.25C87.5692 137.085 87.3672 137.908 86.9804 138.648L88.1998 139.889C88.8877 138.8 89.2522 137.538 89.2509 136.25C89.2509 132.483 86.2237 129.401 82.524 129.401ZM82.524 141.387C79.7491 141.387 77.4788 139.076 77.4788 136.25C77.4789 135.416 77.6808 134.593 78.0674 133.853L76.8482 132.612C76.1546 133.698 75.7896 134.962 75.7971 136.25C75.7971 140.017 78.8243 143.1 82.524 143.1V145.668L85.8874 142.244L82.524 138.819V141.387Z" fill="black"/>
</g>
<defs>
<filter id="filter0_d_436_504" x="0" y="0" width="177" height="253.777" filterUnits="userSpaceOnUse" color-interpolation-filters="sRGB">
<feFlood flood-opacity="0" result="BackgroundImageFix"/>
<feColorMatrix in="SourceAlpha" type="matrix" values="0 0 0 0 0 0 0 0 0 0 0 0 0 0 0 0 0 0 127 0" result="hardAlpha"/>
<feOffset dy="-7"/>
<feGaussianBlur stdDeviation="6.5"/>
<feColorMatrix type="matrix" values="0 0 0 0 0 0 0 0 0 0 0 0 0 0 0 0 0 0 0.25 0"/>
<feBlend mode="normal" in2="BackgroundImageFix" result="effect1_dropShadow_436_504"/>
<feBlend mode="normal" in="SourceGraphic" in2="effect1_dropShadow_436_504" result="shape"/>
</filter>
<clipPath id="clip0_436_504">
<rect width="118.892" height="89.3554" fill="white" transform="translate(32.6101 116.105)"/>
</clipPath>
</defs>
</svg>
